%TF.GenerationSoftware,KiCad,Pcbnew,9.0.0*%
%TF.CreationDate,2025-04-06T09:24:48+08:00*%
%TF.ProjectId,processor,70726f63-6573-4736-9f72-2e6b69636164,rev?*%
%TF.SameCoordinates,Original*%
%TF.FileFunction,Legend,Bot*%
%TF.FilePolarity,Positive*%
%FSLAX46Y46*%
G04 Gerber Fmt 4.6, Leading zero omitted, Abs format (unit mm)*
G04 Created by KiCad (PCBNEW 9.0.0) date 2025-04-06 09:24:48*
%MOMM*%
%LPD*%
G01*
G04 APERTURE LIST*
%TA.AperFunction,ComponentPad*%
%ADD10R,1.300000X1.300000*%
%TD*%
%TA.AperFunction,ComponentPad*%
%ADD11C,1.300000*%
%TD*%
%TA.AperFunction,ComponentPad*%
%ADD12R,1.800000X1.800000*%
%TD*%
%TA.AperFunction,ComponentPad*%
%ADD13C,1.800000*%
%TD*%
%TA.AperFunction,ComponentPad*%
%ADD14C,2.000000*%
%TD*%
%ADD15R,1.300000X1.300000*%
%ADD16C,1.300000*%
%ADD17R,1.800000X1.800000*%
%ADD18C,1.800000*%
%ADD19C,2.000000*%
%TA.AperFunction,SMDPad,CuDef*%
%ADD20R,5.000000X5.000000*%
%TD*%
%TA.AperFunction,SMDPad,CuDef*%
%ADD21R,4.000000X4.000000*%
%TD*%
%TA.AperFunction,Conductor*%
%ADD22C,0.200000*%
%TD*%
%ADD23R,5.000000X5.000000*%
%ADD24R,4.000000X4.000000*%
%ADD25C,0.100000*%
%ADD26C,0.125000*%
%ADD27C,0.200000*%
%ADD28C,0.203200*%
%ADD29C,0.150000*%
%ADD30C,0.120000*%
%ADD31C,0.050000*%
%TA.AperFunction,Profile*%
%ADD32C,0.050000*%
%TD*%
G04 APERTURE END LIST*
D10*
%TO.P,Q3,1,C*%
%TO.N,Net-(D1-K)*%
X152500000Y-81000000D03*
D11*
%TO.P,Q3,2,B*%
%TO.N,Net-(Q3-B)*%
X151230000Y-79730000D03*
%TO.P,Q3,3,E*%
%TO.N,Net-(BT1--)*%
X152500000Y-78460000D03*
%TD*%
D12*
%TO.P,Power,1,K*%
%TO.N,Net-(BT1--)*%
X116460000Y-98000000D03*
D13*
%TO.P,Power,2,A*%
%TO.N,Net-(BT1-+)*%
X119000000Y-98000000D03*
%TD*%
D14*
%TO.P,AND Input A,1,1*%
%TO.N,Net-(BT1-+)*%
X128885000Y-102750000D03*
X135385000Y-102750000D03*
%TO.P,AND Input A,2,2*%
%TO.N,Net-(Q2-B)*%
X128885000Y-107250000D03*
X135385000Y-107250000D03*
%TD*%
D10*
%TO.P,Q1,1,C*%
%TO.N,Net-(Q1-C)*%
X148500000Y-72540000D03*
D11*
%TO.P,Q1,2,B*%
%TO.N,Net-(Q1-B)*%
X147230000Y-71270000D03*
%TO.P,Q1,3,E*%
%TO.N,Net-(BT1--)*%
X148500000Y-70000000D03*
%TD*%
D14*
%TO.P,AND Input B,1,1*%
%TO.N,Net-(BT1-+)*%
X140250000Y-102750000D03*
X146750000Y-102750000D03*
%TO.P,AND Input B,2,2*%
%TO.N,Net-(Q1-B)*%
X140250000Y-107250000D03*
X146750000Y-107250000D03*
%TD*%
%TO.P,NOT Input,1,1*%
%TO.N,Net-(Q3-B)*%
X151500000Y-102750000D03*
X158000000Y-102750000D03*
%TO.P,NOT Input,2,2*%
%TO.N,Net-(BT1-+)*%
X151500000Y-107250000D03*
X158000000Y-107250000D03*
%TD*%
D12*
%TO.P,AND Output,1,K*%
%TO.N,Net-(D2-K)*%
X144730000Y-92000000D03*
D13*
%TO.P,AND Output,2,A*%
%TO.N,Net-(BT1-+)*%
X147270000Y-92000000D03*
%TD*%
D10*
%TO.P,Q2,1,C*%
%TO.N,Net-(D2-K)*%
X156000000Y-72580000D03*
D11*
%TO.P,Q2,2,B*%
%TO.N,Net-(Q2-B)*%
X154730000Y-71310000D03*
%TO.P,Q2,3,E*%
%TO.N,Net-(Q1-C)*%
X156000000Y-70040000D03*
%TD*%
D12*
%TO.P,NOT Output,1,K*%
%TO.N,Net-(D1-K)*%
X154230000Y-92000000D03*
D13*
%TO.P,NOT Output,2,A*%
%TO.N,Net-(BT1-+)*%
X156770000Y-92000000D03*
%TD*%
D15*
%TO.C,Q3*%
X152500000Y-81000000D03*
D16*
X151230000Y-79730000D03*
X152500000Y-78460000D03*
%TD*%
D17*
%TO.C,Power*%
X116460000Y-98000000D03*
D18*
X119000000Y-98000000D03*
%TD*%
D19*
%TO.C,AND Input A*%
X128885000Y-102750000D03*
X135385000Y-102750000D03*
X128885000Y-107250000D03*
X135385000Y-107250000D03*
%TD*%
D15*
%TO.C,Q1*%
X148500000Y-72540000D03*
D16*
X147230000Y-71270000D03*
X148500000Y-70000000D03*
%TD*%
D19*
%TO.C,AND Input B*%
X140250000Y-102750000D03*
X146750000Y-102750000D03*
X140250000Y-107250000D03*
X146750000Y-107250000D03*
%TD*%
%TO.C,NOT Input*%
X151500000Y-102750000D03*
X158000000Y-102750000D03*
X151500000Y-107250000D03*
X158000000Y-107250000D03*
%TD*%
D17*
%TO.C,AND Output*%
X144730000Y-92000000D03*
D18*
X147270000Y-92000000D03*
%TD*%
D15*
%TO.C,Q2*%
X156000000Y-72580000D03*
D16*
X154730000Y-71310000D03*
X156000000Y-70040000D03*
%TD*%
D17*
%TO.C,NOT Output*%
X154230000Y-92000000D03*
D18*
X156770000Y-92000000D03*
%TD*%
D10*
%TO.P,Q3,1,C*%
%TO.N,Net-(D1-K)*%
X152500000Y-81000000D03*
D11*
%TO.P,Q3,2,B*%
%TO.N,Net-(Q3-B)*%
X151230000Y-79730000D03*
%TO.P,Q3,3,E*%
%TO.N,Net-(BT1--)*%
X152500000Y-78460000D03*
%TD*%
D12*
%TO.P,Power,1,K*%
%TO.N,Net-(BT1--)*%
X116460000Y-98000000D03*
D13*
%TO.P,Power,2,A*%
%TO.N,Net-(BT1-+)*%
X119000000Y-98000000D03*
%TD*%
D20*
%TO.P,Battery,1,+*%
%TO.N,Net-(BT1-+)*%
X129500000Y-94500000D03*
X129500000Y-68600000D03*
D21*
%TO.P,Battery,2,-*%
%TO.N,Net-(BT1--)*%
X129500000Y-81550000D03*
%TD*%
D14*
%TO.P,AND Input A,1,1*%
%TO.N,Net-(BT1-+)*%
X128885000Y-102750000D03*
X135385000Y-102750000D03*
%TO.P,AND Input A,2,2*%
%TO.N,Net-(Q2-B)*%
X128885000Y-107250000D03*
X135385000Y-107250000D03*
%TD*%
D10*
%TO.P,Q1,1,C*%
%TO.N,Net-(Q1-C)*%
X148500000Y-72540000D03*
D11*
%TO.P,Q1,2,B*%
%TO.N,Net-(Q1-B)*%
X147230000Y-71270000D03*
%TO.P,Q1,3,E*%
%TO.N,Net-(BT1--)*%
X148500000Y-70000000D03*
%TD*%
D14*
%TO.P,AND Input B,1,1*%
%TO.N,Net-(BT1-+)*%
X140250000Y-102750000D03*
X146750000Y-102750000D03*
%TO.P,AND Input B,2,2*%
%TO.N,Net-(Q1-B)*%
X140250000Y-107250000D03*
X146750000Y-107250000D03*
%TD*%
%TO.P,NOT Input,1,1*%
%TO.N,Net-(Q3-B)*%
X151500000Y-102750000D03*
X158000000Y-102750000D03*
%TO.P,NOT Input,2,2*%
%TO.N,Net-(BT1-+)*%
X151500000Y-107250000D03*
X158000000Y-107250000D03*
%TD*%
D12*
%TO.P,AND Output,1,K*%
%TO.N,Net-(D2-K)*%
X144730000Y-92000000D03*
D13*
%TO.P,AND Output,2,A*%
%TO.N,Net-(BT1-+)*%
X147270000Y-92000000D03*
%TD*%
D10*
%TO.P,Q2,1,C*%
%TO.N,Net-(D2-K)*%
X156000000Y-72580000D03*
D11*
%TO.P,Q2,2,B*%
%TO.N,Net-(Q2-B)*%
X154730000Y-71310000D03*
%TO.P,Q2,3,E*%
%TO.N,Net-(Q1-C)*%
X156000000Y-70040000D03*
%TD*%
D12*
%TO.P,NOT Output,1,K*%
%TO.N,Net-(D1-K)*%
X154230000Y-92000000D03*
D13*
%TO.P,NOT Output,2,A*%
%TO.N,Net-(BT1-+)*%
X156770000Y-92000000D03*
%TD*%
D22*
%TO.N,Net-(BT1--)*%
X152500000Y-78460000D02*
X156951000Y-74009000D01*
X141961000Y-69089000D02*
X129500000Y-81550000D01*
X141050000Y-70000000D02*
X129500000Y-81550000D01*
X156951000Y-74009000D02*
X156951000Y-69646082D01*
X148500000Y-70000000D02*
X141050000Y-70000000D01*
X116460000Y-94590000D02*
X129500000Y-81550000D01*
X116460000Y-98000000D02*
X116460000Y-94590000D01*
X156951000Y-69646082D02*
X156393918Y-69089000D01*
X156393918Y-69089000D02*
X141961000Y-69089000D01*
%TO.N,Net-(BT1-+)*%
X156472018Y-68600000D02*
X129500000Y-68600000D01*
X147270000Y-92000000D02*
X148000000Y-92730000D01*
X148000000Y-101500000D02*
X146750000Y-102750000D01*
X151500000Y-107250000D02*
X149397000Y-109353000D01*
X149397000Y-109353000D02*
X135081008Y-109353000D01*
X135081008Y-109353000D02*
X129500000Y-103771992D01*
X129500000Y-102135000D02*
X128885000Y-102750000D01*
X119000000Y-98000000D02*
X126000000Y-98000000D01*
X129500000Y-94500000D02*
X127199000Y-92199000D01*
X148000000Y-92730000D02*
X148000000Y-101500000D01*
X129500000Y-94500000D02*
X129500000Y-102135000D01*
X129500000Y-103771992D02*
X129500000Y-94500000D01*
X126000000Y-98000000D02*
X129500000Y-94500000D01*
X156770000Y-92000000D02*
X157352000Y-91418000D01*
X135385000Y-102750000D02*
X140250000Y-102750000D01*
X127199000Y-70901000D02*
X129500000Y-68600000D01*
X157352000Y-91418000D02*
X157352000Y-69479982D01*
X157352000Y-69479982D02*
X156472018Y-68600000D01*
%TO.N,Net-(D1-K)*%
X154230000Y-82730000D02*
X152500000Y-81000000D01*
X154230000Y-92000000D02*
X154230000Y-82730000D01*
%TO.N,Net-(D2-K)*%
X147454992Y-108952000D02*
X150199000Y-106207992D01*
X135247108Y-108952000D02*
X147454992Y-108952000D01*
X150199000Y-78381000D02*
X156000000Y-72580000D01*
X134846108Y-105949000D02*
X134084000Y-106711108D01*
X144730000Y-102569892D02*
X141350892Y-105949000D01*
X134084000Y-106711108D02*
X134084000Y-107788892D01*
X141350892Y-105949000D02*
X134846108Y-105949000D01*
X150199000Y-106207992D02*
X150199000Y-78381000D01*
X134084000Y-107788892D02*
X135247108Y-108952000D01*
X144730000Y-92000000D02*
X144730000Y-102569892D01*
%TO.N,Net-(Q1-B)*%
X147230000Y-90261529D02*
X147230000Y-71270000D01*
X148471000Y-105529000D02*
X148471000Y-91502529D01*
X146750000Y-107250000D02*
X148471000Y-105529000D01*
X148471000Y-91502529D02*
X147230000Y-90261529D01*
%TO.N,Net-(Q1-C)*%
X151000000Y-70040000D02*
X156000000Y-70040000D01*
X148500000Y-72540000D02*
X151000000Y-70040000D01*
%TO.N,Net-(Q2-B)*%
X136686000Y-108551000D02*
X135385000Y-107250000D01*
X147288892Y-108551000D02*
X136686000Y-108551000D01*
X149451000Y-106388892D02*
X147288892Y-108551000D01*
X154730000Y-71310000D02*
X149451000Y-76589000D01*
X149451000Y-76589000D02*
X149451000Y-106388892D01*
%TO.N,Net-(Q3-B)*%
X151230000Y-79730000D02*
X151500000Y-80000000D01*
X151500000Y-80000000D02*
X151500000Y-102750000D01*
%TD*%
D15*
%TO.C,Q3*%
X152500000Y-81000000D03*
D16*
X151230000Y-79730000D03*
X152500000Y-78460000D03*
%TD*%
D17*
%TO.C,Power*%
X116460000Y-98000000D03*
D18*
X119000000Y-98000000D03*
%TD*%
D23*
%TO.C,Battery*%
X129500000Y-94500000D03*
X129500000Y-68600000D03*
D24*
X129500000Y-81550000D03*
%TD*%
D19*
%TO.C,AND Input A*%
X128885000Y-102750000D03*
X135385000Y-102750000D03*
X128885000Y-107250000D03*
X135385000Y-107250000D03*
%TD*%
D15*
%TO.C,Q1*%
X148500000Y-72540000D03*
D16*
X147230000Y-71270000D03*
X148500000Y-70000000D03*
%TD*%
D19*
%TO.C,AND Input B*%
X140250000Y-102750000D03*
X146750000Y-102750000D03*
X140250000Y-107250000D03*
X146750000Y-107250000D03*
%TD*%
%TO.C,NOT Input*%
X151500000Y-102750000D03*
X158000000Y-102750000D03*
X151500000Y-107250000D03*
X158000000Y-107250000D03*
%TD*%
D17*
%TO.C,AND Output*%
X144730000Y-92000000D03*
D18*
X147270000Y-92000000D03*
%TD*%
D15*
%TO.C,Q2*%
X156000000Y-72580000D03*
D16*
X154730000Y-71310000D03*
X156000000Y-70040000D03*
%TD*%
D17*
%TO.C,NOT Output*%
X154230000Y-92000000D03*
D18*
X156770000Y-92000000D03*
%TD*%
D23*
%TO.C,Battery*%
X129500000Y-94500000D03*
X129500000Y-68600000D03*
D24*
X129500000Y-81550000D03*
%TD*%
D25*
X144000000Y-68000000D02*
X159500000Y-68000000D01*
X159500000Y-74500000D01*
X144000000Y-74500000D01*
X144000000Y-68000000D01*
X143500000Y-65641522D02*
X160000000Y-65641522D01*
X160000000Y-83641522D01*
X143500000Y-83641522D01*
X143500000Y-65641522D01*
X147500000Y-76480000D02*
X156000000Y-76480000D01*
X156000000Y-82980000D01*
X147500000Y-82980000D01*
X147500000Y-76480000D01*
D26*
X148820331Y-76101119D02*
X148820331Y-75101119D01*
X148820331Y-75101119D02*
X149391759Y-76101119D01*
X149391759Y-76101119D02*
X149391759Y-75101119D01*
X150058426Y-75101119D02*
X150248902Y-75101119D01*
X150248902Y-75101119D02*
X150344140Y-75148738D01*
X150344140Y-75148738D02*
X150439378Y-75243976D01*
X150439378Y-75243976D02*
X150486997Y-75434452D01*
X150486997Y-75434452D02*
X150486997Y-75767785D01*
X150486997Y-75767785D02*
X150439378Y-75958261D01*
X150439378Y-75958261D02*
X150344140Y-76053500D01*
X150344140Y-76053500D02*
X150248902Y-76101119D01*
X150248902Y-76101119D02*
X150058426Y-76101119D01*
X150058426Y-76101119D02*
X149963188Y-76053500D01*
X149963188Y-76053500D02*
X149867950Y-75958261D01*
X149867950Y-75958261D02*
X149820331Y-75767785D01*
X149820331Y-75767785D02*
X149820331Y-75434452D01*
X149820331Y-75434452D02*
X149867950Y-75243976D01*
X149867950Y-75243976D02*
X149963188Y-75148738D01*
X149963188Y-75148738D02*
X150058426Y-75101119D01*
X150772712Y-75101119D02*
X151344140Y-75101119D01*
X151058426Y-76101119D02*
X151058426Y-75101119D01*
X152963188Y-75148738D02*
X152867950Y-75101119D01*
X152867950Y-75101119D02*
X152725093Y-75101119D01*
X152725093Y-75101119D02*
X152582236Y-75148738D01*
X152582236Y-75148738D02*
X152486998Y-75243976D01*
X152486998Y-75243976D02*
X152439379Y-75339214D01*
X152439379Y-75339214D02*
X152391760Y-75529690D01*
X152391760Y-75529690D02*
X152391760Y-75672547D01*
X152391760Y-75672547D02*
X152439379Y-75863023D01*
X152439379Y-75863023D02*
X152486998Y-75958261D01*
X152486998Y-75958261D02*
X152582236Y-76053500D01*
X152582236Y-76053500D02*
X152725093Y-76101119D01*
X152725093Y-76101119D02*
X152820331Y-76101119D01*
X152820331Y-76101119D02*
X152963188Y-76053500D01*
X152963188Y-76053500D02*
X153010807Y-76005880D01*
X153010807Y-76005880D02*
X153010807Y-75672547D01*
X153010807Y-75672547D02*
X152820331Y-75672547D01*
X153867950Y-76101119D02*
X153867950Y-75577309D01*
X153867950Y-75577309D02*
X153820331Y-75482071D01*
X153820331Y-75482071D02*
X153725093Y-75434452D01*
X153725093Y-75434452D02*
X153534617Y-75434452D01*
X153534617Y-75434452D02*
X153439379Y-75482071D01*
X153867950Y-76053500D02*
X153772712Y-76101119D01*
X153772712Y-76101119D02*
X153534617Y-76101119D01*
X153534617Y-76101119D02*
X153439379Y-76053500D01*
X153439379Y-76053500D02*
X153391760Y-75958261D01*
X153391760Y-75958261D02*
X153391760Y-75863023D01*
X153391760Y-75863023D02*
X153439379Y-75767785D01*
X153439379Y-75767785D02*
X153534617Y-75720166D01*
X153534617Y-75720166D02*
X153772712Y-75720166D01*
X153772712Y-75720166D02*
X153867950Y-75672547D01*
X154201284Y-75434452D02*
X154582236Y-75434452D01*
X154344141Y-75101119D02*
X154344141Y-75958261D01*
X154344141Y-75958261D02*
X154391760Y-76053500D01*
X154391760Y-76053500D02*
X154486998Y-76101119D01*
X154486998Y-76101119D02*
X154582236Y-76101119D01*
X155296522Y-76053500D02*
X155201284Y-76101119D01*
X155201284Y-76101119D02*
X155010808Y-76101119D01*
X155010808Y-76101119D02*
X154915570Y-76053500D01*
X154915570Y-76053500D02*
X154867951Y-75958261D01*
X154867951Y-75958261D02*
X154867951Y-75577309D01*
X154867951Y-75577309D02*
X154915570Y-75482071D01*
X154915570Y-75482071D02*
X155010808Y-75434452D01*
X155010808Y-75434452D02*
X155201284Y-75434452D01*
X155201284Y-75434452D02*
X155296522Y-75482071D01*
X155296522Y-75482071D02*
X155344141Y-75577309D01*
X155344141Y-75577309D02*
X155344141Y-75672547D01*
X155344141Y-75672547D02*
X154867951Y-75767785D01*
X148772712Y-67085404D02*
X149248902Y-67085404D01*
X148677474Y-67371119D02*
X149010807Y-66371119D01*
X149010807Y-66371119D02*
X149344140Y-67371119D01*
X149677474Y-67371119D02*
X149677474Y-66371119D01*
X149677474Y-66371119D02*
X150248902Y-67371119D01*
X150248902Y-67371119D02*
X150248902Y-66371119D01*
X150725093Y-67371119D02*
X150725093Y-66371119D01*
X150725093Y-66371119D02*
X150963188Y-66371119D01*
X150963188Y-66371119D02*
X151106045Y-66418738D01*
X151106045Y-66418738D02*
X151201283Y-66513976D01*
X151201283Y-66513976D02*
X151248902Y-66609214D01*
X151248902Y-66609214D02*
X151296521Y-66799690D01*
X151296521Y-66799690D02*
X151296521Y-66942547D01*
X151296521Y-66942547D02*
X151248902Y-67133023D01*
X151248902Y-67133023D02*
X151201283Y-67228261D01*
X151201283Y-67228261D02*
X151106045Y-67323500D01*
X151106045Y-67323500D02*
X150963188Y-67371119D01*
X150963188Y-67371119D02*
X150725093Y-67371119D01*
X153010807Y-66418738D02*
X152915569Y-66371119D01*
X152915569Y-66371119D02*
X152772712Y-66371119D01*
X152772712Y-66371119D02*
X152629855Y-66418738D01*
X152629855Y-66418738D02*
X152534617Y-66513976D01*
X152534617Y-66513976D02*
X152486998Y-66609214D01*
X152486998Y-66609214D02*
X152439379Y-66799690D01*
X152439379Y-66799690D02*
X152439379Y-66942547D01*
X152439379Y-66942547D02*
X152486998Y-67133023D01*
X152486998Y-67133023D02*
X152534617Y-67228261D01*
X152534617Y-67228261D02*
X152629855Y-67323500D01*
X152629855Y-67323500D02*
X152772712Y-67371119D01*
X152772712Y-67371119D02*
X152867950Y-67371119D01*
X152867950Y-67371119D02*
X153010807Y-67323500D01*
X153010807Y-67323500D02*
X153058426Y-67275880D01*
X153058426Y-67275880D02*
X153058426Y-66942547D01*
X153058426Y-66942547D02*
X152867950Y-66942547D01*
X153915569Y-67371119D02*
X153915569Y-66847309D01*
X153915569Y-66847309D02*
X153867950Y-66752071D01*
X153867950Y-66752071D02*
X153772712Y-66704452D01*
X153772712Y-66704452D02*
X153582236Y-66704452D01*
X153582236Y-66704452D02*
X153486998Y-66752071D01*
X153915569Y-67323500D02*
X153820331Y-67371119D01*
X153820331Y-67371119D02*
X153582236Y-67371119D01*
X153582236Y-67371119D02*
X153486998Y-67323500D01*
X153486998Y-67323500D02*
X153439379Y-67228261D01*
X153439379Y-67228261D02*
X153439379Y-67133023D01*
X153439379Y-67133023D02*
X153486998Y-67037785D01*
X153486998Y-67037785D02*
X153582236Y-66990166D01*
X153582236Y-66990166D02*
X153820331Y-66990166D01*
X153820331Y-66990166D02*
X153915569Y-66942547D01*
X154248903Y-66704452D02*
X154629855Y-66704452D01*
X154391760Y-66371119D02*
X154391760Y-67228261D01*
X154391760Y-67228261D02*
X154439379Y-67323500D01*
X154439379Y-67323500D02*
X154534617Y-67371119D01*
X154534617Y-67371119D02*
X154629855Y-67371119D01*
X155344141Y-67323500D02*
X155248903Y-67371119D01*
X155248903Y-67371119D02*
X155058427Y-67371119D01*
X155058427Y-67371119D02*
X154963189Y-67323500D01*
X154963189Y-67323500D02*
X154915570Y-67228261D01*
X154915570Y-67228261D02*
X154915570Y-66847309D01*
X154915570Y-66847309D02*
X154963189Y-66752071D01*
X154963189Y-66752071D02*
X155058427Y-66704452D01*
X155058427Y-66704452D02*
X155248903Y-66704452D01*
X155248903Y-66704452D02*
X155344141Y-66752071D01*
X155344141Y-66752071D02*
X155391760Y-66847309D01*
X155391760Y-66847309D02*
X155391760Y-66942547D01*
X155391760Y-66942547D02*
X154915570Y-67037785D01*
D27*
X148369673Y-64867219D02*
X148369673Y-63867219D01*
X148369673Y-63867219D02*
X148750625Y-63867219D01*
X148750625Y-63867219D02*
X148845863Y-63914838D01*
X148845863Y-63914838D02*
X148893482Y-63962457D01*
X148893482Y-63962457D02*
X148941101Y-64057695D01*
X148941101Y-64057695D02*
X148941101Y-64200552D01*
X148941101Y-64200552D02*
X148893482Y-64295790D01*
X148893482Y-64295790D02*
X148845863Y-64343409D01*
X148845863Y-64343409D02*
X148750625Y-64391028D01*
X148750625Y-64391028D02*
X148369673Y-64391028D01*
X149369673Y-64867219D02*
X149369673Y-64200552D01*
X149369673Y-64391028D02*
X149417292Y-64295790D01*
X149417292Y-64295790D02*
X149464911Y-64248171D01*
X149464911Y-64248171D02*
X149560149Y-64200552D01*
X149560149Y-64200552D02*
X149655387Y-64200552D01*
X150131578Y-64867219D02*
X150036340Y-64819600D01*
X150036340Y-64819600D02*
X149988721Y-64771980D01*
X149988721Y-64771980D02*
X149941102Y-64676742D01*
X149941102Y-64676742D02*
X149941102Y-64391028D01*
X149941102Y-64391028D02*
X149988721Y-64295790D01*
X149988721Y-64295790D02*
X150036340Y-64248171D01*
X150036340Y-64248171D02*
X150131578Y-64200552D01*
X150131578Y-64200552D02*
X150274435Y-64200552D01*
X150274435Y-64200552D02*
X150369673Y-64248171D01*
X150369673Y-64248171D02*
X150417292Y-64295790D01*
X150417292Y-64295790D02*
X150464911Y-64391028D01*
X150464911Y-64391028D02*
X150464911Y-64676742D01*
X150464911Y-64676742D02*
X150417292Y-64771980D01*
X150417292Y-64771980D02*
X150369673Y-64819600D01*
X150369673Y-64819600D02*
X150274435Y-64867219D01*
X150274435Y-64867219D02*
X150131578Y-64867219D01*
X151322054Y-64819600D02*
X151226816Y-64867219D01*
X151226816Y-64867219D02*
X151036340Y-64867219D01*
X151036340Y-64867219D02*
X150941102Y-64819600D01*
X150941102Y-64819600D02*
X150893483Y-64771980D01*
X150893483Y-64771980D02*
X150845864Y-64676742D01*
X150845864Y-64676742D02*
X150845864Y-64391028D01*
X150845864Y-64391028D02*
X150893483Y-64295790D01*
X150893483Y-64295790D02*
X150941102Y-64248171D01*
X150941102Y-64248171D02*
X151036340Y-64200552D01*
X151036340Y-64200552D02*
X151226816Y-64200552D01*
X151226816Y-64200552D02*
X151322054Y-64248171D01*
X152131578Y-64819600D02*
X152036340Y-64867219D01*
X152036340Y-64867219D02*
X151845864Y-64867219D01*
X151845864Y-64867219D02*
X151750626Y-64819600D01*
X151750626Y-64819600D02*
X151703007Y-64724361D01*
X151703007Y-64724361D02*
X151703007Y-64343409D01*
X151703007Y-64343409D02*
X151750626Y-64248171D01*
X151750626Y-64248171D02*
X151845864Y-64200552D01*
X151845864Y-64200552D02*
X152036340Y-64200552D01*
X152036340Y-64200552D02*
X152131578Y-64248171D01*
X152131578Y-64248171D02*
X152179197Y-64343409D01*
X152179197Y-64343409D02*
X152179197Y-64438647D01*
X152179197Y-64438647D02*
X151703007Y-64533885D01*
X152560150Y-64819600D02*
X152655388Y-64867219D01*
X152655388Y-64867219D02*
X152845864Y-64867219D01*
X152845864Y-64867219D02*
X152941102Y-64819600D01*
X152941102Y-64819600D02*
X152988721Y-64724361D01*
X152988721Y-64724361D02*
X152988721Y-64676742D01*
X152988721Y-64676742D02*
X152941102Y-64581504D01*
X152941102Y-64581504D02*
X152845864Y-64533885D01*
X152845864Y-64533885D02*
X152703007Y-64533885D01*
X152703007Y-64533885D02*
X152607769Y-64486266D01*
X152607769Y-64486266D02*
X152560150Y-64391028D01*
X152560150Y-64391028D02*
X152560150Y-64343409D01*
X152560150Y-64343409D02*
X152607769Y-64248171D01*
X152607769Y-64248171D02*
X152703007Y-64200552D01*
X152703007Y-64200552D02*
X152845864Y-64200552D01*
X152845864Y-64200552D02*
X152941102Y-64248171D01*
X153369674Y-64819600D02*
X153464912Y-64867219D01*
X153464912Y-64867219D02*
X153655388Y-64867219D01*
X153655388Y-64867219D02*
X153750626Y-64819600D01*
X153750626Y-64819600D02*
X153798245Y-64724361D01*
X153798245Y-64724361D02*
X153798245Y-64676742D01*
X153798245Y-64676742D02*
X153750626Y-64581504D01*
X153750626Y-64581504D02*
X153655388Y-64533885D01*
X153655388Y-64533885D02*
X153512531Y-64533885D01*
X153512531Y-64533885D02*
X153417293Y-64486266D01*
X153417293Y-64486266D02*
X153369674Y-64391028D01*
X153369674Y-64391028D02*
X153369674Y-64343409D01*
X153369674Y-64343409D02*
X153417293Y-64248171D01*
X153417293Y-64248171D02*
X153512531Y-64200552D01*
X153512531Y-64200552D02*
X153655388Y-64200552D01*
X153655388Y-64200552D02*
X153750626Y-64248171D01*
X154369674Y-64867219D02*
X154274436Y-64819600D01*
X154274436Y-64819600D02*
X154226817Y-64771980D01*
X154226817Y-64771980D02*
X154179198Y-64676742D01*
X154179198Y-64676742D02*
X154179198Y-64391028D01*
X154179198Y-64391028D02*
X154226817Y-64295790D01*
X154226817Y-64295790D02*
X154274436Y-64248171D01*
X154274436Y-64248171D02*
X154369674Y-64200552D01*
X154369674Y-64200552D02*
X154512531Y-64200552D01*
X154512531Y-64200552D02*
X154607769Y-64248171D01*
X154607769Y-64248171D02*
X154655388Y-64295790D01*
X154655388Y-64295790D02*
X154703007Y-64391028D01*
X154703007Y-64391028D02*
X154703007Y-64676742D01*
X154703007Y-64676742D02*
X154655388Y-64771980D01*
X154655388Y-64771980D02*
X154607769Y-64819600D01*
X154607769Y-64819600D02*
X154512531Y-64867219D01*
X154512531Y-64867219D02*
X154369674Y-64867219D01*
X155131579Y-64867219D02*
X155131579Y-64200552D01*
X155131579Y-64391028D02*
X155179198Y-64295790D01*
X155179198Y-64295790D02*
X155226817Y-64248171D01*
X155226817Y-64248171D02*
X155322055Y-64200552D01*
X155322055Y-64200552D02*
X155417293Y-64200552D01*
D28*
X113875588Y-105093687D02*
X113875588Y-104077687D01*
X113875588Y-104077687D02*
X114456160Y-105093687D01*
X114456160Y-105093687D02*
X114456160Y-104077687D01*
X114939969Y-105093687D02*
X114939969Y-104416354D01*
X114939969Y-104077687D02*
X114891588Y-104126068D01*
X114891588Y-104126068D02*
X114939969Y-104174449D01*
X114939969Y-104174449D02*
X114988350Y-104126068D01*
X114988350Y-104126068D02*
X114939969Y-104077687D01*
X114939969Y-104077687D02*
X114939969Y-104174449D01*
X115859208Y-105045307D02*
X115762446Y-105093687D01*
X115762446Y-105093687D02*
X115568922Y-105093687D01*
X115568922Y-105093687D02*
X115472160Y-105045307D01*
X115472160Y-105045307D02*
X115423779Y-104996926D01*
X115423779Y-104996926D02*
X115375398Y-104900164D01*
X115375398Y-104900164D02*
X115375398Y-104609878D01*
X115375398Y-104609878D02*
X115423779Y-104513116D01*
X115423779Y-104513116D02*
X115472160Y-104464735D01*
X115472160Y-104464735D02*
X115568922Y-104416354D01*
X115568922Y-104416354D02*
X115762446Y-104416354D01*
X115762446Y-104416354D02*
X115859208Y-104464735D01*
X116294636Y-105093687D02*
X116294636Y-104077687D01*
X116730065Y-105093687D02*
X116730065Y-104561497D01*
X116730065Y-104561497D02*
X116681684Y-104464735D01*
X116681684Y-104464735D02*
X116584922Y-104416354D01*
X116584922Y-104416354D02*
X116439779Y-104416354D01*
X116439779Y-104416354D02*
X116343017Y-104464735D01*
X116343017Y-104464735D02*
X116294636Y-104513116D01*
X117359017Y-105093687D02*
X117262255Y-105045307D01*
X117262255Y-105045307D02*
X117213874Y-104996926D01*
X117213874Y-104996926D02*
X117165493Y-104900164D01*
X117165493Y-104900164D02*
X117165493Y-104609878D01*
X117165493Y-104609878D02*
X117213874Y-104513116D01*
X117213874Y-104513116D02*
X117262255Y-104464735D01*
X117262255Y-104464735D02*
X117359017Y-104416354D01*
X117359017Y-104416354D02*
X117504160Y-104416354D01*
X117504160Y-104416354D02*
X117600922Y-104464735D01*
X117600922Y-104464735D02*
X117649303Y-104513116D01*
X117649303Y-104513116D02*
X117697684Y-104609878D01*
X117697684Y-104609878D02*
X117697684Y-104900164D01*
X117697684Y-104900164D02*
X117649303Y-104996926D01*
X117649303Y-104996926D02*
X117600922Y-105045307D01*
X117600922Y-105045307D02*
X117504160Y-105093687D01*
X117504160Y-105093687D02*
X117359017Y-105093687D01*
X118278255Y-105093687D02*
X118181493Y-105045307D01*
X118181493Y-105045307D02*
X118133112Y-104948545D01*
X118133112Y-104948545D02*
X118133112Y-104077687D01*
X119100731Y-105093687D02*
X119100731Y-104561497D01*
X119100731Y-104561497D02*
X119052350Y-104464735D01*
X119052350Y-104464735D02*
X118955588Y-104416354D01*
X118955588Y-104416354D02*
X118762064Y-104416354D01*
X118762064Y-104416354D02*
X118665302Y-104464735D01*
X119100731Y-105045307D02*
X119003969Y-105093687D01*
X119003969Y-105093687D02*
X118762064Y-105093687D01*
X118762064Y-105093687D02*
X118665302Y-105045307D01*
X118665302Y-105045307D02*
X118616921Y-104948545D01*
X118616921Y-104948545D02*
X118616921Y-104851783D01*
X118616921Y-104851783D02*
X118665302Y-104755021D01*
X118665302Y-104755021D02*
X118762064Y-104706640D01*
X118762064Y-104706640D02*
X119003969Y-104706640D01*
X119003969Y-104706640D02*
X119100731Y-104658259D01*
X119536159Y-105045307D02*
X119632921Y-105093687D01*
X119632921Y-105093687D02*
X119826445Y-105093687D01*
X119826445Y-105093687D02*
X119923207Y-105045307D01*
X119923207Y-105045307D02*
X119971588Y-104948545D01*
X119971588Y-104948545D02*
X119971588Y-104900164D01*
X119971588Y-104900164D02*
X119923207Y-104803402D01*
X119923207Y-104803402D02*
X119826445Y-104755021D01*
X119826445Y-104755021D02*
X119681302Y-104755021D01*
X119681302Y-104755021D02*
X119584540Y-104706640D01*
X119584540Y-104706640D02*
X119536159Y-104609878D01*
X119536159Y-104609878D02*
X119536159Y-104561497D01*
X119536159Y-104561497D02*
X119584540Y-104464735D01*
X119584540Y-104464735D02*
X119681302Y-104416354D01*
X119681302Y-104416354D02*
X119826445Y-104416354D01*
X119826445Y-104416354D02*
X119923207Y-104464735D01*
X120455397Y-104077687D02*
X120358635Y-104271211D01*
X120842445Y-105045307D02*
X120939207Y-105093687D01*
X120939207Y-105093687D02*
X121132731Y-105093687D01*
X121132731Y-105093687D02*
X121229493Y-105045307D01*
X121229493Y-105045307D02*
X121277874Y-104948545D01*
X121277874Y-104948545D02*
X121277874Y-104900164D01*
X121277874Y-104900164D02*
X121229493Y-104803402D01*
X121229493Y-104803402D02*
X121132731Y-104755021D01*
X121132731Y-104755021D02*
X120987588Y-104755021D01*
X120987588Y-104755021D02*
X120890826Y-104706640D01*
X120890826Y-104706640D02*
X120842445Y-104609878D01*
X120842445Y-104609878D02*
X120842445Y-104561497D01*
X120842445Y-104561497D02*
X120890826Y-104464735D01*
X120890826Y-104464735D02*
X120987588Y-104416354D01*
X120987588Y-104416354D02*
X121132731Y-104416354D01*
X121132731Y-104416354D02*
X121229493Y-104464735D01*
X114407779Y-106729390D02*
X113827207Y-106729390D01*
X114117493Y-106729390D02*
X114117493Y-105713390D01*
X114117493Y-105713390D02*
X114020731Y-105858533D01*
X114020731Y-105858533D02*
X113923969Y-105955295D01*
X113923969Y-105955295D02*
X113827207Y-106003676D01*
X114843207Y-106342343D02*
X115617303Y-106342343D01*
X116439779Y-106197200D02*
X116584922Y-106245581D01*
X116584922Y-106245581D02*
X116633303Y-106293962D01*
X116633303Y-106293962D02*
X116681684Y-106390724D01*
X116681684Y-106390724D02*
X116681684Y-106535867D01*
X116681684Y-106535867D02*
X116633303Y-106632629D01*
X116633303Y-106632629D02*
X116584922Y-106681010D01*
X116584922Y-106681010D02*
X116488160Y-106729390D01*
X116488160Y-106729390D02*
X116101112Y-106729390D01*
X116101112Y-106729390D02*
X116101112Y-105713390D01*
X116101112Y-105713390D02*
X116439779Y-105713390D01*
X116439779Y-105713390D02*
X116536541Y-105761771D01*
X116536541Y-105761771D02*
X116584922Y-105810152D01*
X116584922Y-105810152D02*
X116633303Y-105906914D01*
X116633303Y-105906914D02*
X116633303Y-106003676D01*
X116633303Y-106003676D02*
X116584922Y-106100438D01*
X116584922Y-106100438D02*
X116536541Y-106148819D01*
X116536541Y-106148819D02*
X116439779Y-106197200D01*
X116439779Y-106197200D02*
X116101112Y-106197200D01*
X117117112Y-106729390D02*
X117117112Y-106052057D01*
X117117112Y-105713390D02*
X117068731Y-105761771D01*
X117068731Y-105761771D02*
X117117112Y-105810152D01*
X117117112Y-105810152D02*
X117165493Y-105761771D01*
X117165493Y-105761771D02*
X117117112Y-105713390D01*
X117117112Y-105713390D02*
X117117112Y-105810152D01*
X117455779Y-106052057D02*
X117842827Y-106052057D01*
X117600922Y-105713390D02*
X117600922Y-106584248D01*
X117600922Y-106584248D02*
X117649303Y-106681010D01*
X117649303Y-106681010D02*
X117746065Y-106729390D01*
X117746065Y-106729390D02*
X117842827Y-106729390D01*
X119100731Y-106729390D02*
X119003969Y-106681010D01*
X119003969Y-106681010D02*
X118955588Y-106584248D01*
X118955588Y-106584248D02*
X118955588Y-105713390D01*
X119632921Y-106729390D02*
X119536159Y-106681010D01*
X119536159Y-106681010D02*
X119487778Y-106632629D01*
X119487778Y-106632629D02*
X119439397Y-106535867D01*
X119439397Y-106535867D02*
X119439397Y-106245581D01*
X119439397Y-106245581D02*
X119487778Y-106148819D01*
X119487778Y-106148819D02*
X119536159Y-106100438D01*
X119536159Y-106100438D02*
X119632921Y-106052057D01*
X119632921Y-106052057D02*
X119778064Y-106052057D01*
X119778064Y-106052057D02*
X119874826Y-106100438D01*
X119874826Y-106100438D02*
X119923207Y-106148819D01*
X119923207Y-106148819D02*
X119971588Y-106245581D01*
X119971588Y-106245581D02*
X119971588Y-106535867D01*
X119971588Y-106535867D02*
X119923207Y-106632629D01*
X119923207Y-106632629D02*
X119874826Y-106681010D01*
X119874826Y-106681010D02*
X119778064Y-106729390D01*
X119778064Y-106729390D02*
X119632921Y-106729390D01*
X120842445Y-106052057D02*
X120842445Y-106874533D01*
X120842445Y-106874533D02*
X120794064Y-106971295D01*
X120794064Y-106971295D02*
X120745683Y-107019676D01*
X120745683Y-107019676D02*
X120648921Y-107068057D01*
X120648921Y-107068057D02*
X120503778Y-107068057D01*
X120503778Y-107068057D02*
X120407016Y-107019676D01*
X120842445Y-106681010D02*
X120745683Y-106729390D01*
X120745683Y-106729390D02*
X120552159Y-106729390D01*
X120552159Y-106729390D02*
X120455397Y-106681010D01*
X120455397Y-106681010D02*
X120407016Y-106632629D01*
X120407016Y-106632629D02*
X120358635Y-106535867D01*
X120358635Y-106535867D02*
X120358635Y-106245581D01*
X120358635Y-106245581D02*
X120407016Y-106148819D01*
X120407016Y-106148819D02*
X120455397Y-106100438D01*
X120455397Y-106100438D02*
X120552159Y-106052057D01*
X120552159Y-106052057D02*
X120745683Y-106052057D01*
X120745683Y-106052057D02*
X120842445Y-106100438D01*
X121326254Y-106729390D02*
X121326254Y-106052057D01*
X121326254Y-105713390D02*
X121277873Y-105761771D01*
X121277873Y-105761771D02*
X121326254Y-105810152D01*
X121326254Y-105810152D02*
X121374635Y-105761771D01*
X121374635Y-105761771D02*
X121326254Y-105713390D01*
X121326254Y-105713390D02*
X121326254Y-105810152D01*
X122245493Y-106681010D02*
X122148731Y-106729390D01*
X122148731Y-106729390D02*
X121955207Y-106729390D01*
X121955207Y-106729390D02*
X121858445Y-106681010D01*
X121858445Y-106681010D02*
X121810064Y-106632629D01*
X121810064Y-106632629D02*
X121761683Y-106535867D01*
X121761683Y-106535867D02*
X121761683Y-106245581D01*
X121761683Y-106245581D02*
X121810064Y-106148819D01*
X121810064Y-106148819D02*
X121858445Y-106100438D01*
X121858445Y-106100438D02*
X121955207Y-106052057D01*
X121955207Y-106052057D02*
X122148731Y-106052057D01*
X122148731Y-106052057D02*
X122245493Y-106100438D01*
X114311017Y-107687760D02*
X114311017Y-108510236D01*
X114311017Y-108510236D02*
X114262636Y-108606998D01*
X114262636Y-108606998D02*
X114214255Y-108655379D01*
X114214255Y-108655379D02*
X114117493Y-108703760D01*
X114117493Y-108703760D02*
X113972350Y-108703760D01*
X113972350Y-108703760D02*
X113875588Y-108655379D01*
X114311017Y-108316713D02*
X114214255Y-108365093D01*
X114214255Y-108365093D02*
X114020731Y-108365093D01*
X114020731Y-108365093D02*
X113923969Y-108316713D01*
X113923969Y-108316713D02*
X113875588Y-108268332D01*
X113875588Y-108268332D02*
X113827207Y-108171570D01*
X113827207Y-108171570D02*
X113827207Y-107881284D01*
X113827207Y-107881284D02*
X113875588Y-107784522D01*
X113875588Y-107784522D02*
X113923969Y-107736141D01*
X113923969Y-107736141D02*
X114020731Y-107687760D01*
X114020731Y-107687760D02*
X114214255Y-107687760D01*
X114214255Y-107687760D02*
X114311017Y-107736141D01*
X115230255Y-108365093D02*
X115230255Y-107832903D01*
X115230255Y-107832903D02*
X115181874Y-107736141D01*
X115181874Y-107736141D02*
X115085112Y-107687760D01*
X115085112Y-107687760D02*
X114891588Y-107687760D01*
X114891588Y-107687760D02*
X114794826Y-107736141D01*
X115230255Y-108316713D02*
X115133493Y-108365093D01*
X115133493Y-108365093D02*
X114891588Y-108365093D01*
X114891588Y-108365093D02*
X114794826Y-108316713D01*
X114794826Y-108316713D02*
X114746445Y-108219951D01*
X114746445Y-108219951D02*
X114746445Y-108123189D01*
X114746445Y-108123189D02*
X114794826Y-108026427D01*
X114794826Y-108026427D02*
X114891588Y-107978046D01*
X114891588Y-107978046D02*
X115133493Y-107978046D01*
X115133493Y-107978046D02*
X115230255Y-107929665D01*
X115568921Y-107687760D02*
X115955969Y-107687760D01*
X115714064Y-107349093D02*
X115714064Y-108219951D01*
X115714064Y-108219951D02*
X115762445Y-108316713D01*
X115762445Y-108316713D02*
X115859207Y-108365093D01*
X115859207Y-108365093D02*
X115955969Y-108365093D01*
X116681683Y-108316713D02*
X116584921Y-108365093D01*
X116584921Y-108365093D02*
X116391397Y-108365093D01*
X116391397Y-108365093D02*
X116294635Y-108316713D01*
X116294635Y-108316713D02*
X116246254Y-108219951D01*
X116246254Y-108219951D02*
X116246254Y-107832903D01*
X116246254Y-107832903D02*
X116294635Y-107736141D01*
X116294635Y-107736141D02*
X116391397Y-107687760D01*
X116391397Y-107687760D02*
X116584921Y-107687760D01*
X116584921Y-107687760D02*
X116681683Y-107736141D01*
X116681683Y-107736141D02*
X116730064Y-107832903D01*
X116730064Y-107832903D02*
X116730064Y-107929665D01*
X116730064Y-107929665D02*
X116246254Y-108026427D01*
X118375016Y-108316713D02*
X118278254Y-108365093D01*
X118278254Y-108365093D02*
X118084730Y-108365093D01*
X118084730Y-108365093D02*
X117987968Y-108316713D01*
X117987968Y-108316713D02*
X117939587Y-108268332D01*
X117939587Y-108268332D02*
X117891206Y-108171570D01*
X117891206Y-108171570D02*
X117891206Y-107881284D01*
X117891206Y-107881284D02*
X117939587Y-107784522D01*
X117939587Y-107784522D02*
X117987968Y-107736141D01*
X117987968Y-107736141D02*
X118084730Y-107687760D01*
X118084730Y-107687760D02*
X118278254Y-107687760D01*
X118278254Y-107687760D02*
X118375016Y-107736141D01*
X118955587Y-108365093D02*
X118858825Y-108316713D01*
X118858825Y-108316713D02*
X118810444Y-108268332D01*
X118810444Y-108268332D02*
X118762063Y-108171570D01*
X118762063Y-108171570D02*
X118762063Y-107881284D01*
X118762063Y-107881284D02*
X118810444Y-107784522D01*
X118810444Y-107784522D02*
X118858825Y-107736141D01*
X118858825Y-107736141D02*
X118955587Y-107687760D01*
X118955587Y-107687760D02*
X119100730Y-107687760D01*
X119100730Y-107687760D02*
X119197492Y-107736141D01*
X119197492Y-107736141D02*
X119245873Y-107784522D01*
X119245873Y-107784522D02*
X119294254Y-107881284D01*
X119294254Y-107881284D02*
X119294254Y-108171570D01*
X119294254Y-108171570D02*
X119245873Y-108268332D01*
X119245873Y-108268332D02*
X119197492Y-108316713D01*
X119197492Y-108316713D02*
X119100730Y-108365093D01*
X119100730Y-108365093D02*
X118955587Y-108365093D01*
X119729682Y-108365093D02*
X119729682Y-107687760D01*
X119729682Y-107784522D02*
X119778063Y-107736141D01*
X119778063Y-107736141D02*
X119874825Y-107687760D01*
X119874825Y-107687760D02*
X120019968Y-107687760D01*
X120019968Y-107687760D02*
X120116730Y-107736141D01*
X120116730Y-107736141D02*
X120165111Y-107832903D01*
X120165111Y-107832903D02*
X120165111Y-108365093D01*
X120165111Y-107832903D02*
X120213492Y-107736141D01*
X120213492Y-107736141D02*
X120310254Y-107687760D01*
X120310254Y-107687760D02*
X120455397Y-107687760D01*
X120455397Y-107687760D02*
X120552158Y-107736141D01*
X120552158Y-107736141D02*
X120600539Y-107832903D01*
X120600539Y-107832903D02*
X120600539Y-108365093D01*
X121084349Y-107687760D02*
X121084349Y-108703760D01*
X121084349Y-107736141D02*
X121181111Y-107687760D01*
X121181111Y-107687760D02*
X121374635Y-107687760D01*
X121374635Y-107687760D02*
X121471397Y-107736141D01*
X121471397Y-107736141D02*
X121519778Y-107784522D01*
X121519778Y-107784522D02*
X121568159Y-107881284D01*
X121568159Y-107881284D02*
X121568159Y-108171570D01*
X121568159Y-108171570D02*
X121519778Y-108268332D01*
X121519778Y-108268332D02*
X121471397Y-108316713D01*
X121471397Y-108316713D02*
X121374635Y-108365093D01*
X121374635Y-108365093D02*
X121181111Y-108365093D01*
X121181111Y-108365093D02*
X121084349Y-108316713D01*
X122439016Y-107687760D02*
X122439016Y-108365093D01*
X122003587Y-107687760D02*
X122003587Y-108219951D01*
X122003587Y-108219951D02*
X122051968Y-108316713D01*
X122051968Y-108316713D02*
X122148730Y-108365093D01*
X122148730Y-108365093D02*
X122293873Y-108365093D01*
X122293873Y-108365093D02*
X122390635Y-108316713D01*
X122390635Y-108316713D02*
X122439016Y-108268332D01*
X122777682Y-107687760D02*
X123164730Y-107687760D01*
X122922825Y-107349093D02*
X122922825Y-108219951D01*
X122922825Y-108219951D02*
X122971206Y-108316713D01*
X122971206Y-108316713D02*
X123067968Y-108365093D01*
X123067968Y-108365093D02*
X123164730Y-108365093D01*
X123890444Y-108316713D02*
X123793682Y-108365093D01*
X123793682Y-108365093D02*
X123600158Y-108365093D01*
X123600158Y-108365093D02*
X123503396Y-108316713D01*
X123503396Y-108316713D02*
X123455015Y-108219951D01*
X123455015Y-108219951D02*
X123455015Y-107832903D01*
X123455015Y-107832903D02*
X123503396Y-107736141D01*
X123503396Y-107736141D02*
X123600158Y-107687760D01*
X123600158Y-107687760D02*
X123793682Y-107687760D01*
X123793682Y-107687760D02*
X123890444Y-107736141D01*
X123890444Y-107736141D02*
X123938825Y-107832903D01*
X123938825Y-107832903D02*
X123938825Y-107929665D01*
X123938825Y-107929665D02*
X123455015Y-108026427D01*
X124374253Y-108365093D02*
X124374253Y-107687760D01*
X124374253Y-107881284D02*
X124422634Y-107784522D01*
X124422634Y-107784522D02*
X124471015Y-107736141D01*
X124471015Y-107736141D02*
X124567777Y-107687760D01*
X124567777Y-107687760D02*
X124664539Y-107687760D01*
D29*
X149280057Y-79825238D02*
X149232438Y-79920476D01*
X149232438Y-79920476D02*
X149137200Y-80015714D01*
X149137200Y-80015714D02*
X148994342Y-80158571D01*
X148994342Y-80158571D02*
X148946723Y-80253809D01*
X148946723Y-80253809D02*
X148946723Y-80349047D01*
X149184819Y-80301428D02*
X149137200Y-80396666D01*
X149137200Y-80396666D02*
X149041961Y-80491904D01*
X149041961Y-80491904D02*
X148851485Y-80539523D01*
X148851485Y-80539523D02*
X148518152Y-80539523D01*
X148518152Y-80539523D02*
X148327676Y-80491904D01*
X148327676Y-80491904D02*
X148232438Y-80396666D01*
X148232438Y-80396666D02*
X148184819Y-80301428D01*
X148184819Y-80301428D02*
X148184819Y-80110952D01*
X148184819Y-80110952D02*
X148232438Y-80015714D01*
X148232438Y-80015714D02*
X148327676Y-79920476D01*
X148327676Y-79920476D02*
X148518152Y-79872857D01*
X148518152Y-79872857D02*
X148851485Y-79872857D01*
X148851485Y-79872857D02*
X149041961Y-79920476D01*
X149041961Y-79920476D02*
X149137200Y-80015714D01*
X149137200Y-80015714D02*
X149184819Y-80110952D01*
X149184819Y-80110952D02*
X149184819Y-80301428D01*
X148184819Y-79539523D02*
X148184819Y-78920476D01*
X148184819Y-78920476D02*
X148565771Y-79253809D01*
X148565771Y-79253809D02*
X148565771Y-79110952D01*
X148565771Y-79110952D02*
X148613390Y-79015714D01*
X148613390Y-79015714D02*
X148661009Y-78968095D01*
X148661009Y-78968095D02*
X148756247Y-78920476D01*
X148756247Y-78920476D02*
X148994342Y-78920476D01*
X148994342Y-78920476D02*
X149089580Y-78968095D01*
X149089580Y-78968095D02*
X149137200Y-79015714D01*
X149137200Y-79015714D02*
X149184819Y-79110952D01*
X149184819Y-79110952D02*
X149184819Y-79396666D01*
X149184819Y-79396666D02*
X149137200Y-79491904D01*
X149137200Y-79491904D02*
X149089580Y-79539523D01*
X115753809Y-95494819D02*
X115753809Y-94494819D01*
X115753809Y-94494819D02*
X116134761Y-94494819D01*
X116134761Y-94494819D02*
X116229999Y-94542438D01*
X116229999Y-94542438D02*
X116277618Y-94590057D01*
X116277618Y-94590057D02*
X116325237Y-94685295D01*
X116325237Y-94685295D02*
X116325237Y-94828152D01*
X116325237Y-94828152D02*
X116277618Y-94923390D01*
X116277618Y-94923390D02*
X116229999Y-94971009D01*
X116229999Y-94971009D02*
X116134761Y-95018628D01*
X116134761Y-95018628D02*
X115753809Y-95018628D01*
X116896666Y-95494819D02*
X116801428Y-95447200D01*
X116801428Y-95447200D02*
X116753809Y-95399580D01*
X116753809Y-95399580D02*
X116706190Y-95304342D01*
X116706190Y-95304342D02*
X116706190Y-95018628D01*
X116706190Y-95018628D02*
X116753809Y-94923390D01*
X116753809Y-94923390D02*
X116801428Y-94875771D01*
X116801428Y-94875771D02*
X116896666Y-94828152D01*
X116896666Y-94828152D02*
X117039523Y-94828152D01*
X117039523Y-94828152D02*
X117134761Y-94875771D01*
X117134761Y-94875771D02*
X117182380Y-94923390D01*
X117182380Y-94923390D02*
X117229999Y-95018628D01*
X117229999Y-95018628D02*
X117229999Y-95304342D01*
X117229999Y-95304342D02*
X117182380Y-95399580D01*
X117182380Y-95399580D02*
X117134761Y-95447200D01*
X117134761Y-95447200D02*
X117039523Y-95494819D01*
X117039523Y-95494819D02*
X116896666Y-95494819D01*
X117563333Y-94828152D02*
X117753809Y-95494819D01*
X117753809Y-95494819D02*
X117944285Y-95018628D01*
X117944285Y-95018628D02*
X118134761Y-95494819D01*
X118134761Y-95494819D02*
X118325237Y-94828152D01*
X119087142Y-95447200D02*
X118991904Y-95494819D01*
X118991904Y-95494819D02*
X118801428Y-95494819D01*
X118801428Y-95494819D02*
X118706190Y-95447200D01*
X118706190Y-95447200D02*
X118658571Y-95351961D01*
X118658571Y-95351961D02*
X118658571Y-94971009D01*
X118658571Y-94971009D02*
X118706190Y-94875771D01*
X118706190Y-94875771D02*
X118801428Y-94828152D01*
X118801428Y-94828152D02*
X118991904Y-94828152D01*
X118991904Y-94828152D02*
X119087142Y-94875771D01*
X119087142Y-94875771D02*
X119134761Y-94971009D01*
X119134761Y-94971009D02*
X119134761Y-95066247D01*
X119134761Y-95066247D02*
X118658571Y-95161485D01*
X119563333Y-95494819D02*
X119563333Y-94828152D01*
X119563333Y-95018628D02*
X119610952Y-94923390D01*
X119610952Y-94923390D02*
X119658571Y-94875771D01*
X119658571Y-94875771D02*
X119753809Y-94828152D01*
X119753809Y-94828152D02*
X119849047Y-94828152D01*
D26*
X119928570Y-68932309D02*
X120071427Y-68979928D01*
X120071427Y-68979928D02*
X120119046Y-69027547D01*
X120119046Y-69027547D02*
X120166665Y-69122785D01*
X120166665Y-69122785D02*
X120166665Y-69265642D01*
X120166665Y-69265642D02*
X120119046Y-69360880D01*
X120119046Y-69360880D02*
X120071427Y-69408500D01*
X120071427Y-69408500D02*
X119976189Y-69456119D01*
X119976189Y-69456119D02*
X119595237Y-69456119D01*
X119595237Y-69456119D02*
X119595237Y-68456119D01*
X119595237Y-68456119D02*
X119928570Y-68456119D01*
X119928570Y-68456119D02*
X120023808Y-68503738D01*
X120023808Y-68503738D02*
X120071427Y-68551357D01*
X120071427Y-68551357D02*
X120119046Y-68646595D01*
X120119046Y-68646595D02*
X120119046Y-68741833D01*
X120119046Y-68741833D02*
X120071427Y-68837071D01*
X120071427Y-68837071D02*
X120023808Y-68884690D01*
X120023808Y-68884690D02*
X119928570Y-68932309D01*
X119928570Y-68932309D02*
X119595237Y-68932309D01*
X121023808Y-69456119D02*
X121023808Y-68932309D01*
X121023808Y-68932309D02*
X120976189Y-68837071D01*
X120976189Y-68837071D02*
X120880951Y-68789452D01*
X120880951Y-68789452D02*
X120690475Y-68789452D01*
X120690475Y-68789452D02*
X120595237Y-68837071D01*
X121023808Y-69408500D02*
X120928570Y-69456119D01*
X120928570Y-69456119D02*
X120690475Y-69456119D01*
X120690475Y-69456119D02*
X120595237Y-69408500D01*
X120595237Y-69408500D02*
X120547618Y-69313261D01*
X120547618Y-69313261D02*
X120547618Y-69218023D01*
X120547618Y-69218023D02*
X120595237Y-69122785D01*
X120595237Y-69122785D02*
X120690475Y-69075166D01*
X120690475Y-69075166D02*
X120928570Y-69075166D01*
X120928570Y-69075166D02*
X121023808Y-69027547D01*
X121357142Y-68789452D02*
X121738094Y-68789452D01*
X121499999Y-68456119D02*
X121499999Y-69313261D01*
X121499999Y-69313261D02*
X121547618Y-69408500D01*
X121547618Y-69408500D02*
X121642856Y-69456119D01*
X121642856Y-69456119D02*
X121738094Y-69456119D01*
X121928571Y-68789452D02*
X122309523Y-68789452D01*
X122071428Y-68456119D02*
X122071428Y-69313261D01*
X122071428Y-69313261D02*
X122119047Y-69408500D01*
X122119047Y-69408500D02*
X122214285Y-69456119D01*
X122214285Y-69456119D02*
X122309523Y-69456119D01*
X123023809Y-69408500D02*
X122928571Y-69456119D01*
X122928571Y-69456119D02*
X122738095Y-69456119D01*
X122738095Y-69456119D02*
X122642857Y-69408500D01*
X122642857Y-69408500D02*
X122595238Y-69313261D01*
X122595238Y-69313261D02*
X122595238Y-68932309D01*
X122595238Y-68932309D02*
X122642857Y-68837071D01*
X122642857Y-68837071D02*
X122738095Y-68789452D01*
X122738095Y-68789452D02*
X122928571Y-68789452D01*
X122928571Y-68789452D02*
X123023809Y-68837071D01*
X123023809Y-68837071D02*
X123071428Y-68932309D01*
X123071428Y-68932309D02*
X123071428Y-69027547D01*
X123071428Y-69027547D02*
X122595238Y-69122785D01*
X123500000Y-69456119D02*
X123500000Y-68789452D01*
X123500000Y-68979928D02*
X123547619Y-68884690D01*
X123547619Y-68884690D02*
X123595238Y-68837071D01*
X123595238Y-68837071D02*
X123690476Y-68789452D01*
X123690476Y-68789452D02*
X123785714Y-68789452D01*
X124023810Y-68789452D02*
X124261905Y-69456119D01*
X124500000Y-68789452D02*
X124261905Y-69456119D01*
X124261905Y-69456119D02*
X124166667Y-69694214D01*
X124166667Y-69694214D02*
X124119048Y-69741833D01*
X124119048Y-69741833D02*
X124023810Y-69789452D01*
X127801666Y-100920404D02*
X128277856Y-100920404D01*
X127706428Y-101206119D02*
X128039761Y-100206119D01*
X128039761Y-100206119D02*
X128373094Y-101206119D01*
X128706428Y-101206119D02*
X128706428Y-100206119D01*
X128706428Y-100206119D02*
X129277856Y-101206119D01*
X129277856Y-101206119D02*
X129277856Y-100206119D01*
X129754047Y-101206119D02*
X129754047Y-100206119D01*
X129754047Y-100206119D02*
X129992142Y-100206119D01*
X129992142Y-100206119D02*
X130134999Y-100253738D01*
X130134999Y-100253738D02*
X130230237Y-100348976D01*
X130230237Y-100348976D02*
X130277856Y-100444214D01*
X130277856Y-100444214D02*
X130325475Y-100634690D01*
X130325475Y-100634690D02*
X130325475Y-100777547D01*
X130325475Y-100777547D02*
X130277856Y-100968023D01*
X130277856Y-100968023D02*
X130230237Y-101063261D01*
X130230237Y-101063261D02*
X130134999Y-101158500D01*
X130134999Y-101158500D02*
X129992142Y-101206119D01*
X129992142Y-101206119D02*
X129754047Y-101206119D01*
X131515952Y-101206119D02*
X131515952Y-100206119D01*
X131992142Y-100539452D02*
X131992142Y-101206119D01*
X131992142Y-100634690D02*
X132039761Y-100587071D01*
X132039761Y-100587071D02*
X132134999Y-100539452D01*
X132134999Y-100539452D02*
X132277856Y-100539452D01*
X132277856Y-100539452D02*
X132373094Y-100587071D01*
X132373094Y-100587071D02*
X132420713Y-100682309D01*
X132420713Y-100682309D02*
X132420713Y-101206119D01*
X132896904Y-100539452D02*
X132896904Y-101539452D01*
X132896904Y-100587071D02*
X132992142Y-100539452D01*
X132992142Y-100539452D02*
X133182618Y-100539452D01*
X133182618Y-100539452D02*
X133277856Y-100587071D01*
X133277856Y-100587071D02*
X133325475Y-100634690D01*
X133325475Y-100634690D02*
X133373094Y-100729928D01*
X133373094Y-100729928D02*
X133373094Y-101015642D01*
X133373094Y-101015642D02*
X133325475Y-101110880D01*
X133325475Y-101110880D02*
X133277856Y-101158500D01*
X133277856Y-101158500D02*
X133182618Y-101206119D01*
X133182618Y-101206119D02*
X132992142Y-101206119D01*
X132992142Y-101206119D02*
X132896904Y-101158500D01*
X134230237Y-100539452D02*
X134230237Y-101206119D01*
X133801666Y-100539452D02*
X133801666Y-101063261D01*
X133801666Y-101063261D02*
X133849285Y-101158500D01*
X133849285Y-101158500D02*
X133944523Y-101206119D01*
X133944523Y-101206119D02*
X134087380Y-101206119D01*
X134087380Y-101206119D02*
X134182618Y-101158500D01*
X134182618Y-101158500D02*
X134230237Y-101110880D01*
X134563571Y-100539452D02*
X134944523Y-100539452D01*
X134706428Y-100206119D02*
X134706428Y-101063261D01*
X134706428Y-101063261D02*
X134754047Y-101158500D01*
X134754047Y-101158500D02*
X134849285Y-101206119D01*
X134849285Y-101206119D02*
X134944523Y-101206119D01*
X135992143Y-100920404D02*
X136468333Y-100920404D01*
X135896905Y-101206119D02*
X136230238Y-100206119D01*
X136230238Y-100206119D02*
X136563571Y-101206119D01*
D29*
X145490057Y-71365238D02*
X145442438Y-71460476D01*
X145442438Y-71460476D02*
X145347200Y-71555714D01*
X145347200Y-71555714D02*
X145204342Y-71698571D01*
X145204342Y-71698571D02*
X145156723Y-71793809D01*
X145156723Y-71793809D02*
X145156723Y-71889047D01*
X145394819Y-71841428D02*
X145347200Y-71936666D01*
X145347200Y-71936666D02*
X145251961Y-72031904D01*
X145251961Y-72031904D02*
X145061485Y-72079523D01*
X145061485Y-72079523D02*
X144728152Y-72079523D01*
X144728152Y-72079523D02*
X144537676Y-72031904D01*
X144537676Y-72031904D02*
X144442438Y-71936666D01*
X144442438Y-71936666D02*
X144394819Y-71841428D01*
X144394819Y-71841428D02*
X144394819Y-71650952D01*
X144394819Y-71650952D02*
X144442438Y-71555714D01*
X144442438Y-71555714D02*
X144537676Y-71460476D01*
X144537676Y-71460476D02*
X144728152Y-71412857D01*
X144728152Y-71412857D02*
X145061485Y-71412857D01*
X145061485Y-71412857D02*
X145251961Y-71460476D01*
X145251961Y-71460476D02*
X145347200Y-71555714D01*
X145347200Y-71555714D02*
X145394819Y-71650952D01*
X145394819Y-71650952D02*
X145394819Y-71841428D01*
X145394819Y-70460476D02*
X145394819Y-71031904D01*
X145394819Y-70746190D02*
X144394819Y-70746190D01*
X144394819Y-70746190D02*
X144537676Y-70841428D01*
X144537676Y-70841428D02*
X144632914Y-70936666D01*
X144632914Y-70936666D02*
X144680533Y-71031904D01*
D26*
X139095238Y-100920404D02*
X139571428Y-100920404D01*
X139000000Y-101206119D02*
X139333333Y-100206119D01*
X139333333Y-100206119D02*
X139666666Y-101206119D01*
X140000000Y-101206119D02*
X140000000Y-100206119D01*
X140000000Y-100206119D02*
X140571428Y-101206119D01*
X140571428Y-101206119D02*
X140571428Y-100206119D01*
X141047619Y-101206119D02*
X141047619Y-100206119D01*
X141047619Y-100206119D02*
X141285714Y-100206119D01*
X141285714Y-100206119D02*
X141428571Y-100253738D01*
X141428571Y-100253738D02*
X141523809Y-100348976D01*
X141523809Y-100348976D02*
X141571428Y-100444214D01*
X141571428Y-100444214D02*
X141619047Y-100634690D01*
X141619047Y-100634690D02*
X141619047Y-100777547D01*
X141619047Y-100777547D02*
X141571428Y-100968023D01*
X141571428Y-100968023D02*
X141523809Y-101063261D01*
X141523809Y-101063261D02*
X141428571Y-101158500D01*
X141428571Y-101158500D02*
X141285714Y-101206119D01*
X141285714Y-101206119D02*
X141047619Y-101206119D01*
X142809524Y-101206119D02*
X142809524Y-100206119D01*
X143285714Y-100539452D02*
X143285714Y-101206119D01*
X143285714Y-100634690D02*
X143333333Y-100587071D01*
X143333333Y-100587071D02*
X143428571Y-100539452D01*
X143428571Y-100539452D02*
X143571428Y-100539452D01*
X143571428Y-100539452D02*
X143666666Y-100587071D01*
X143666666Y-100587071D02*
X143714285Y-100682309D01*
X143714285Y-100682309D02*
X143714285Y-101206119D01*
X144190476Y-100539452D02*
X144190476Y-101539452D01*
X144190476Y-100587071D02*
X144285714Y-100539452D01*
X144285714Y-100539452D02*
X144476190Y-100539452D01*
X144476190Y-100539452D02*
X144571428Y-100587071D01*
X144571428Y-100587071D02*
X144619047Y-100634690D01*
X144619047Y-100634690D02*
X144666666Y-100729928D01*
X144666666Y-100729928D02*
X144666666Y-101015642D01*
X144666666Y-101015642D02*
X144619047Y-101110880D01*
X144619047Y-101110880D02*
X144571428Y-101158500D01*
X144571428Y-101158500D02*
X144476190Y-101206119D01*
X144476190Y-101206119D02*
X144285714Y-101206119D01*
X144285714Y-101206119D02*
X144190476Y-101158500D01*
X145523809Y-100539452D02*
X145523809Y-101206119D01*
X145095238Y-100539452D02*
X145095238Y-101063261D01*
X145095238Y-101063261D02*
X145142857Y-101158500D01*
X145142857Y-101158500D02*
X145238095Y-101206119D01*
X145238095Y-101206119D02*
X145380952Y-101206119D01*
X145380952Y-101206119D02*
X145476190Y-101158500D01*
X145476190Y-101158500D02*
X145523809Y-101110880D01*
X145857143Y-100539452D02*
X146238095Y-100539452D01*
X146000000Y-100206119D02*
X146000000Y-101063261D01*
X146000000Y-101063261D02*
X146047619Y-101158500D01*
X146047619Y-101158500D02*
X146142857Y-101206119D01*
X146142857Y-101206119D02*
X146238095Y-101206119D01*
X147666667Y-100682309D02*
X147809524Y-100729928D01*
X147809524Y-100729928D02*
X147857143Y-100777547D01*
X147857143Y-100777547D02*
X147904762Y-100872785D01*
X147904762Y-100872785D02*
X147904762Y-101015642D01*
X147904762Y-101015642D02*
X147857143Y-101110880D01*
X147857143Y-101110880D02*
X147809524Y-101158500D01*
X147809524Y-101158500D02*
X147714286Y-101206119D01*
X147714286Y-101206119D02*
X147333334Y-101206119D01*
X147333334Y-101206119D02*
X147333334Y-100206119D01*
X147333334Y-100206119D02*
X147666667Y-100206119D01*
X147666667Y-100206119D02*
X147761905Y-100253738D01*
X147761905Y-100253738D02*
X147809524Y-100301357D01*
X147809524Y-100301357D02*
X147857143Y-100396595D01*
X147857143Y-100396595D02*
X147857143Y-100491833D01*
X147857143Y-100491833D02*
X147809524Y-100587071D01*
X147809524Y-100587071D02*
X147761905Y-100634690D01*
X147761905Y-100634690D02*
X147666667Y-100682309D01*
X147666667Y-100682309D02*
X147333334Y-100682309D01*
X151297619Y-101206119D02*
X151297619Y-100206119D01*
X151297619Y-100206119D02*
X151869047Y-101206119D01*
X151869047Y-101206119D02*
X151869047Y-100206119D01*
X152535714Y-100206119D02*
X152726190Y-100206119D01*
X152726190Y-100206119D02*
X152821428Y-100253738D01*
X152821428Y-100253738D02*
X152916666Y-100348976D01*
X152916666Y-100348976D02*
X152964285Y-100539452D01*
X152964285Y-100539452D02*
X152964285Y-100872785D01*
X152964285Y-100872785D02*
X152916666Y-101063261D01*
X152916666Y-101063261D02*
X152821428Y-101158500D01*
X152821428Y-101158500D02*
X152726190Y-101206119D01*
X152726190Y-101206119D02*
X152535714Y-101206119D01*
X152535714Y-101206119D02*
X152440476Y-101158500D01*
X152440476Y-101158500D02*
X152345238Y-101063261D01*
X152345238Y-101063261D02*
X152297619Y-100872785D01*
X152297619Y-100872785D02*
X152297619Y-100539452D01*
X152297619Y-100539452D02*
X152345238Y-100348976D01*
X152345238Y-100348976D02*
X152440476Y-100253738D01*
X152440476Y-100253738D02*
X152535714Y-100206119D01*
X153250000Y-100206119D02*
X153821428Y-100206119D01*
X153535714Y-101206119D02*
X153535714Y-100206119D01*
X154916667Y-101206119D02*
X154916667Y-100206119D01*
X155392857Y-100539452D02*
X155392857Y-101206119D01*
X155392857Y-100634690D02*
X155440476Y-100587071D01*
X155440476Y-100587071D02*
X155535714Y-100539452D01*
X155535714Y-100539452D02*
X155678571Y-100539452D01*
X155678571Y-100539452D02*
X155773809Y-100587071D01*
X155773809Y-100587071D02*
X155821428Y-100682309D01*
X155821428Y-100682309D02*
X155821428Y-101206119D01*
X156297619Y-100539452D02*
X156297619Y-101539452D01*
X156297619Y-100587071D02*
X156392857Y-100539452D01*
X156392857Y-100539452D02*
X156583333Y-100539452D01*
X156583333Y-100539452D02*
X156678571Y-100587071D01*
X156678571Y-100587071D02*
X156726190Y-100634690D01*
X156726190Y-100634690D02*
X156773809Y-100729928D01*
X156773809Y-100729928D02*
X156773809Y-101015642D01*
X156773809Y-101015642D02*
X156726190Y-101110880D01*
X156726190Y-101110880D02*
X156678571Y-101158500D01*
X156678571Y-101158500D02*
X156583333Y-101206119D01*
X156583333Y-101206119D02*
X156392857Y-101206119D01*
X156392857Y-101206119D02*
X156297619Y-101158500D01*
X157630952Y-100539452D02*
X157630952Y-101206119D01*
X157202381Y-100539452D02*
X157202381Y-101063261D01*
X157202381Y-101063261D02*
X157250000Y-101158500D01*
X157250000Y-101158500D02*
X157345238Y-101206119D01*
X157345238Y-101206119D02*
X157488095Y-101206119D01*
X157488095Y-101206119D02*
X157583333Y-101158500D01*
X157583333Y-101158500D02*
X157630952Y-101110880D01*
X157964286Y-100539452D02*
X158345238Y-100539452D01*
X158107143Y-100206119D02*
X158107143Y-101063261D01*
X158107143Y-101063261D02*
X158154762Y-101158500D01*
X158154762Y-101158500D02*
X158250000Y-101206119D01*
X158250000Y-101206119D02*
X158345238Y-101206119D01*
D29*
X141904761Y-89209104D02*
X142380951Y-89209104D01*
X141809523Y-89494819D02*
X142142856Y-88494819D01*
X142142856Y-88494819D02*
X142476189Y-89494819D01*
X142809523Y-89494819D02*
X142809523Y-88494819D01*
X142809523Y-88494819D02*
X143380951Y-89494819D01*
X143380951Y-89494819D02*
X143380951Y-88494819D01*
X143857142Y-89494819D02*
X143857142Y-88494819D01*
X143857142Y-88494819D02*
X144095237Y-88494819D01*
X144095237Y-88494819D02*
X144238094Y-88542438D01*
X144238094Y-88542438D02*
X144333332Y-88637676D01*
X144333332Y-88637676D02*
X144380951Y-88732914D01*
X144380951Y-88732914D02*
X144428570Y-88923390D01*
X144428570Y-88923390D02*
X144428570Y-89066247D01*
X144428570Y-89066247D02*
X144380951Y-89256723D01*
X144380951Y-89256723D02*
X144333332Y-89351961D01*
X144333332Y-89351961D02*
X144238094Y-89447200D01*
X144238094Y-89447200D02*
X144095237Y-89494819D01*
X144095237Y-89494819D02*
X143857142Y-89494819D01*
X145809523Y-88494819D02*
X145999999Y-88494819D01*
X145999999Y-88494819D02*
X146095237Y-88542438D01*
X146095237Y-88542438D02*
X146190475Y-88637676D01*
X146190475Y-88637676D02*
X146238094Y-88828152D01*
X146238094Y-88828152D02*
X146238094Y-89161485D01*
X146238094Y-89161485D02*
X146190475Y-89351961D01*
X146190475Y-89351961D02*
X146095237Y-89447200D01*
X146095237Y-89447200D02*
X145999999Y-89494819D01*
X145999999Y-89494819D02*
X145809523Y-89494819D01*
X145809523Y-89494819D02*
X145714285Y-89447200D01*
X145714285Y-89447200D02*
X145619047Y-89351961D01*
X145619047Y-89351961D02*
X145571428Y-89161485D01*
X145571428Y-89161485D02*
X145571428Y-88828152D01*
X145571428Y-88828152D02*
X145619047Y-88637676D01*
X145619047Y-88637676D02*
X145714285Y-88542438D01*
X145714285Y-88542438D02*
X145809523Y-88494819D01*
X147095237Y-88828152D02*
X147095237Y-89494819D01*
X146666666Y-88828152D02*
X146666666Y-89351961D01*
X146666666Y-89351961D02*
X146714285Y-89447200D01*
X146714285Y-89447200D02*
X146809523Y-89494819D01*
X146809523Y-89494819D02*
X146952380Y-89494819D01*
X146952380Y-89494819D02*
X147047618Y-89447200D01*
X147047618Y-89447200D02*
X147095237Y-89399580D01*
X147428571Y-88828152D02*
X147809523Y-88828152D01*
X147571428Y-88494819D02*
X147571428Y-89351961D01*
X147571428Y-89351961D02*
X147619047Y-89447200D01*
X147619047Y-89447200D02*
X147714285Y-89494819D01*
X147714285Y-89494819D02*
X147809523Y-89494819D01*
X148142857Y-88828152D02*
X148142857Y-89828152D01*
X148142857Y-88875771D02*
X148238095Y-88828152D01*
X148238095Y-88828152D02*
X148428571Y-88828152D01*
X148428571Y-88828152D02*
X148523809Y-88875771D01*
X148523809Y-88875771D02*
X148571428Y-88923390D01*
X148571428Y-88923390D02*
X148619047Y-89018628D01*
X148619047Y-89018628D02*
X148619047Y-89304342D01*
X148619047Y-89304342D02*
X148571428Y-89399580D01*
X148571428Y-89399580D02*
X148523809Y-89447200D01*
X148523809Y-89447200D02*
X148428571Y-89494819D01*
X148428571Y-89494819D02*
X148238095Y-89494819D01*
X148238095Y-89494819D02*
X148142857Y-89447200D01*
X149476190Y-88828152D02*
X149476190Y-89494819D01*
X149047619Y-88828152D02*
X149047619Y-89351961D01*
X149047619Y-89351961D02*
X149095238Y-89447200D01*
X149095238Y-89447200D02*
X149190476Y-89494819D01*
X149190476Y-89494819D02*
X149333333Y-89494819D01*
X149333333Y-89494819D02*
X149428571Y-89447200D01*
X149428571Y-89447200D02*
X149476190Y-89399580D01*
X149809524Y-88828152D02*
X150190476Y-88828152D01*
X149952381Y-88494819D02*
X149952381Y-89351961D01*
X149952381Y-89351961D02*
X150000000Y-89447200D01*
X150000000Y-89447200D02*
X150095238Y-89494819D01*
X150095238Y-89494819D02*
X150190476Y-89494819D01*
X152990057Y-71405238D02*
X152942438Y-71500476D01*
X152942438Y-71500476D02*
X152847200Y-71595714D01*
X152847200Y-71595714D02*
X152704342Y-71738571D01*
X152704342Y-71738571D02*
X152656723Y-71833809D01*
X152656723Y-71833809D02*
X152656723Y-71929047D01*
X152894819Y-71881428D02*
X152847200Y-71976666D01*
X152847200Y-71976666D02*
X152751961Y-72071904D01*
X152751961Y-72071904D02*
X152561485Y-72119523D01*
X152561485Y-72119523D02*
X152228152Y-72119523D01*
X152228152Y-72119523D02*
X152037676Y-72071904D01*
X152037676Y-72071904D02*
X151942438Y-71976666D01*
X151942438Y-71976666D02*
X151894819Y-71881428D01*
X151894819Y-71881428D02*
X151894819Y-71690952D01*
X151894819Y-71690952D02*
X151942438Y-71595714D01*
X151942438Y-71595714D02*
X152037676Y-71500476D01*
X152037676Y-71500476D02*
X152228152Y-71452857D01*
X152228152Y-71452857D02*
X152561485Y-71452857D01*
X152561485Y-71452857D02*
X152751961Y-71500476D01*
X152751961Y-71500476D02*
X152847200Y-71595714D01*
X152847200Y-71595714D02*
X152894819Y-71690952D01*
X152894819Y-71690952D02*
X152894819Y-71881428D01*
X151990057Y-71071904D02*
X151942438Y-71024285D01*
X151942438Y-71024285D02*
X151894819Y-70929047D01*
X151894819Y-70929047D02*
X151894819Y-70690952D01*
X151894819Y-70690952D02*
X151942438Y-70595714D01*
X151942438Y-70595714D02*
X151990057Y-70548095D01*
X151990057Y-70548095D02*
X152085295Y-70500476D01*
X152085295Y-70500476D02*
X152180533Y-70500476D01*
X152180533Y-70500476D02*
X152323390Y-70548095D01*
X152323390Y-70548095D02*
X152894819Y-71119523D01*
X152894819Y-71119523D02*
X152894819Y-70500476D01*
X151476190Y-89494819D02*
X151476190Y-88494819D01*
X151476190Y-88494819D02*
X152047618Y-89494819D01*
X152047618Y-89494819D02*
X152047618Y-88494819D01*
X152714285Y-88494819D02*
X152904761Y-88494819D01*
X152904761Y-88494819D02*
X152999999Y-88542438D01*
X152999999Y-88542438D02*
X153095237Y-88637676D01*
X153095237Y-88637676D02*
X153142856Y-88828152D01*
X153142856Y-88828152D02*
X153142856Y-89161485D01*
X153142856Y-89161485D02*
X153095237Y-89351961D01*
X153095237Y-89351961D02*
X152999999Y-89447200D01*
X152999999Y-89447200D02*
X152904761Y-89494819D01*
X152904761Y-89494819D02*
X152714285Y-89494819D01*
X152714285Y-89494819D02*
X152619047Y-89447200D01*
X152619047Y-89447200D02*
X152523809Y-89351961D01*
X152523809Y-89351961D02*
X152476190Y-89161485D01*
X152476190Y-89161485D02*
X152476190Y-88828152D01*
X152476190Y-88828152D02*
X152523809Y-88637676D01*
X152523809Y-88637676D02*
X152619047Y-88542438D01*
X152619047Y-88542438D02*
X152714285Y-88494819D01*
X153428571Y-88494819D02*
X153999999Y-88494819D01*
X153714285Y-89494819D02*
X153714285Y-88494819D01*
X155285714Y-88494819D02*
X155476190Y-88494819D01*
X155476190Y-88494819D02*
X155571428Y-88542438D01*
X155571428Y-88542438D02*
X155666666Y-88637676D01*
X155666666Y-88637676D02*
X155714285Y-88828152D01*
X155714285Y-88828152D02*
X155714285Y-89161485D01*
X155714285Y-89161485D02*
X155666666Y-89351961D01*
X155666666Y-89351961D02*
X155571428Y-89447200D01*
X155571428Y-89447200D02*
X155476190Y-89494819D01*
X155476190Y-89494819D02*
X155285714Y-89494819D01*
X155285714Y-89494819D02*
X155190476Y-89447200D01*
X155190476Y-89447200D02*
X155095238Y-89351961D01*
X155095238Y-89351961D02*
X155047619Y-89161485D01*
X155047619Y-89161485D02*
X155047619Y-88828152D01*
X155047619Y-88828152D02*
X155095238Y-88637676D01*
X155095238Y-88637676D02*
X155190476Y-88542438D01*
X155190476Y-88542438D02*
X155285714Y-88494819D01*
X156571428Y-88828152D02*
X156571428Y-89494819D01*
X156142857Y-88828152D02*
X156142857Y-89351961D01*
X156142857Y-89351961D02*
X156190476Y-89447200D01*
X156190476Y-89447200D02*
X156285714Y-89494819D01*
X156285714Y-89494819D02*
X156428571Y-89494819D01*
X156428571Y-89494819D02*
X156523809Y-89447200D01*
X156523809Y-89447200D02*
X156571428Y-89399580D01*
X156904762Y-88828152D02*
X157285714Y-88828152D01*
X157047619Y-88494819D02*
X157047619Y-89351961D01*
X157047619Y-89351961D02*
X157095238Y-89447200D01*
X157095238Y-89447200D02*
X157190476Y-89494819D01*
X157190476Y-89494819D02*
X157285714Y-89494819D01*
X157619048Y-88828152D02*
X157619048Y-89828152D01*
X157619048Y-88875771D02*
X157714286Y-88828152D01*
X157714286Y-88828152D02*
X157904762Y-88828152D01*
X157904762Y-88828152D02*
X158000000Y-88875771D01*
X158000000Y-88875771D02*
X158047619Y-88923390D01*
X158047619Y-88923390D02*
X158095238Y-89018628D01*
X158095238Y-89018628D02*
X158095238Y-89304342D01*
X158095238Y-89304342D02*
X158047619Y-89399580D01*
X158047619Y-89399580D02*
X158000000Y-89447200D01*
X158000000Y-89447200D02*
X157904762Y-89494819D01*
X157904762Y-89494819D02*
X157714286Y-89494819D01*
X157714286Y-89494819D02*
X157619048Y-89447200D01*
X158952381Y-88828152D02*
X158952381Y-89494819D01*
X158523810Y-88828152D02*
X158523810Y-89351961D01*
X158523810Y-89351961D02*
X158571429Y-89447200D01*
X158571429Y-89447200D02*
X158666667Y-89494819D01*
X158666667Y-89494819D02*
X158809524Y-89494819D01*
X158809524Y-89494819D02*
X158904762Y-89447200D01*
X158904762Y-89447200D02*
X158952381Y-89399580D01*
X159285715Y-88828152D02*
X159666667Y-88828152D01*
X159428572Y-88494819D02*
X159428572Y-89351961D01*
X159428572Y-89351961D02*
X159476191Y-89447200D01*
X159476191Y-89447200D02*
X159571429Y-89494819D01*
X159571429Y-89494819D02*
X159666667Y-89494819D01*
D30*
%TO.C,Q3*%
X154350000Y-81530000D02*
X154350000Y-77930000D01*
X149900000Y-79730000D02*
G75*
G02*
X154338478Y-77891522I2600000J0D01*
G01*
X154338478Y-81568478D02*
G75*
G02*
X149899999Y-79730000I-1838478J1838478D01*
G01*
%TO.C,Power*%
X116170000Y-96764000D02*
X116170000Y-96920000D01*
X116170000Y-99080000D02*
X116170000Y-99236000D01*
X116170000Y-96764484D02*
G75*
G02*
X119401397Y-96919939I1560000J-1235516D01*
G01*
X116689039Y-96920000D02*
G75*
G02*
X118770910Y-96919951I1040961J-1080000D01*
G01*
X118770910Y-99080049D02*
G75*
G02*
X116689039Y-99080000I-1040910J1080049D01*
G01*
X119401397Y-99080061D02*
G75*
G02*
X116170000Y-99235516I-1671397J1080061D01*
G01*
%TO.C,Battery*%
X126700000Y-65800000D02*
X126700000Y-70870000D01*
X126700000Y-70870000D02*
X123150000Y-70870000D01*
X126700000Y-92230000D02*
X123220000Y-92230000D01*
X126700000Y-97300000D02*
X126700000Y-92230000D01*
X132300000Y-65800000D02*
X126700000Y-65800000D01*
X132300000Y-70870000D02*
X132300000Y-65800000D01*
X132300000Y-70870000D02*
X133750000Y-70870000D01*
X132300000Y-92230000D02*
X133750000Y-92230000D01*
X132300000Y-97300000D02*
X126700000Y-97300000D01*
X132300000Y-97300000D02*
X132300000Y-92230000D01*
X133750000Y-70870000D02*
X140130000Y-77750000D01*
X133750000Y-92230000D02*
X140130000Y-85350000D01*
X140130000Y-77750000D02*
X140130000Y-85350000D01*
X121007247Y-76233548D02*
G75*
G02*
X123200000Y-70870000I2192753J2233548D01*
G01*
X121032608Y-76243578D02*
G75*
G02*
X121169999Y-86719999I-5132609J-5306422D01*
G01*
X123200000Y-92227058D02*
G75*
G02*
X121160001Y-86730001I1J3127058D01*
G01*
%TO.C,AND Input A*%
X128635000Y-104250000D02*
X128635000Y-105750000D01*
X129885000Y-108250000D02*
X134385000Y-108250000D01*
X134385000Y-101750000D02*
X129885000Y-101750000D01*
X135635000Y-105750000D02*
X135635000Y-104250000D01*
%TO.C,Q1*%
X150350000Y-73070000D02*
X150350000Y-69470000D01*
X145900000Y-71270000D02*
G75*
G02*
X150338478Y-69431522I2600000J0D01*
G01*
X150338478Y-73108478D02*
G75*
G02*
X145899999Y-71270000I-1838478J1838478D01*
G01*
%TO.C,AND Input B*%
X140000000Y-104250000D02*
X140000000Y-105750000D01*
X141250000Y-108250000D02*
X145750000Y-108250000D01*
X145750000Y-101750000D02*
X141250000Y-101750000D01*
X147000000Y-105750000D02*
X147000000Y-104250000D01*
%TO.C,NOT Input*%
X151250000Y-104250000D02*
X151250000Y-105750000D01*
X152500000Y-108250000D02*
X157000000Y-108250000D01*
X157000000Y-101750000D02*
X152500000Y-101750000D01*
X158250000Y-105750000D02*
X158250000Y-104250000D01*
%TO.C,AND Output*%
X144440000Y-90764000D02*
X144440000Y-90920000D01*
X144440000Y-93080000D02*
X144440000Y-93236000D01*
X144440000Y-90764484D02*
G75*
G02*
X147671397Y-90919939I1560000J-1235516D01*
G01*
X144959039Y-90920000D02*
G75*
G02*
X147040910Y-90919951I1040961J-1080000D01*
G01*
X147040910Y-93080049D02*
G75*
G02*
X144959039Y-93080000I-1040910J1080049D01*
G01*
X147671397Y-93080061D02*
G75*
G02*
X144440000Y-93235516I-1671397J1080061D01*
G01*
%TO.C,Q2*%
X157850000Y-73110000D02*
X157850000Y-69510000D01*
X153400000Y-71310000D02*
G75*
G02*
X157838478Y-69471522I2600000J0D01*
G01*
X157838478Y-73148478D02*
G75*
G02*
X153399999Y-71310000I-1838478J1838478D01*
G01*
%TO.C,NOT Output*%
X153940000Y-90764000D02*
X153940000Y-90920000D01*
X153940000Y-93080000D02*
X153940000Y-93236000D01*
X153940000Y-90764484D02*
G75*
G02*
X157171397Y-90919939I1560000J-1235516D01*
G01*
X154459039Y-90920000D02*
G75*
G02*
X156540910Y-90919951I1040961J-1080000D01*
G01*
X156540910Y-93080049D02*
G75*
G02*
X154459039Y-93080000I-1040910J1080049D01*
G01*
X157171397Y-93080061D02*
G75*
G02*
X153940000Y-93235516I-1671397J1080061D01*
G01*
%TD*%
D31*
%TO.C,Q3*%
X149770000Y-82460000D02*
X149770000Y-77000000D01*
X149770000Y-82460000D02*
X154510000Y-82460000D01*
X154510000Y-77000000D02*
X149770000Y-77000000D01*
X154510000Y-77000000D02*
X154510000Y-82460000D01*
%TO.C,Power*%
X115310000Y-95790000D02*
X115310000Y-100210000D01*
X115310000Y-100210000D02*
X120150000Y-100210000D01*
X120150000Y-95790000D02*
X115310000Y-95790000D01*
X120150000Y-100210000D02*
X120150000Y-95790000D01*
%TO.C,Battery*%
X119050000Y-92600000D02*
X119050000Y-70500000D01*
X126450000Y-70500000D02*
X119050000Y-70500000D01*
X126450000Y-70500000D02*
X126450000Y-65600000D01*
X126450000Y-92600000D02*
X119050000Y-92600000D01*
X126450000Y-97500000D02*
X126450000Y-92600000D01*
X126450000Y-97500000D02*
X132550000Y-97500000D01*
X132550000Y-65600000D02*
X126450000Y-65600000D01*
X132550000Y-70500000D02*
X132550000Y-65600000D01*
X132550000Y-70500000D02*
X133950000Y-70500000D01*
X132550000Y-92600000D02*
X133950000Y-92600000D01*
X132550000Y-97500000D02*
X132550000Y-92600000D01*
X133950000Y-92600000D02*
X140500000Y-85550000D01*
X140500000Y-77550000D02*
X133950000Y-70500000D01*
X140500000Y-85550000D02*
X140500000Y-77550000D01*
%TO.C,AND Input A*%
X127385000Y-101250000D02*
X127635000Y-101250000D01*
X127385000Y-101500000D02*
X127385000Y-101250000D01*
X127385000Y-108500000D02*
X127385000Y-101500000D01*
X127385000Y-108500000D02*
X127385000Y-108750000D01*
X127385000Y-108750000D02*
X127635000Y-108750000D01*
X127635000Y-101250000D02*
X136635000Y-101250000D01*
X136635000Y-101250000D02*
X136885000Y-101250000D01*
X136635000Y-108750000D02*
X127635000Y-108750000D01*
X136635000Y-108750000D02*
X136885000Y-108750000D01*
X136885000Y-101250000D02*
X136885000Y-101500000D01*
X136885000Y-101500000D02*
X136885000Y-108500000D01*
X136885000Y-108750000D02*
X136885000Y-108500000D01*
%TO.C,Q1*%
X145770000Y-74000000D02*
X145770000Y-68540000D01*
X145770000Y-74000000D02*
X150510000Y-74000000D01*
X150510000Y-68540000D02*
X145770000Y-68540000D01*
X150510000Y-68540000D02*
X150510000Y-74000000D01*
%TO.C,AND Input B*%
X138750000Y-101250000D02*
X139000000Y-101250000D01*
X138750000Y-101500000D02*
X138750000Y-101250000D01*
X138750000Y-108500000D02*
X138750000Y-101500000D01*
X138750000Y-108500000D02*
X138750000Y-108750000D01*
X138750000Y-108750000D02*
X139000000Y-108750000D01*
X139000000Y-101250000D02*
X148000000Y-101250000D01*
X148000000Y-101250000D02*
X148250000Y-101250000D01*
X148000000Y-108750000D02*
X139000000Y-108750000D01*
X148000000Y-108750000D02*
X148250000Y-108750000D01*
X148250000Y-101250000D02*
X148250000Y-101500000D01*
X148250000Y-101500000D02*
X148250000Y-108500000D01*
X148250000Y-108750000D02*
X148250000Y-108500000D01*
%TO.C,NOT Input*%
X150000000Y-101250000D02*
X150250000Y-101250000D01*
X150000000Y-101500000D02*
X150000000Y-101250000D01*
X150000000Y-108500000D02*
X150000000Y-101500000D01*
X150000000Y-108500000D02*
X150000000Y-108750000D01*
X150000000Y-108750000D02*
X150250000Y-108750000D01*
X150250000Y-101250000D02*
X159250000Y-101250000D01*
X159250000Y-101250000D02*
X159500000Y-101250000D01*
X159250000Y-108750000D02*
X150250000Y-108750000D01*
X159250000Y-108750000D02*
X159500000Y-108750000D01*
X159500000Y-101250000D02*
X159500000Y-101500000D01*
X159500000Y-101500000D02*
X159500000Y-108500000D01*
X159500000Y-108750000D02*
X159500000Y-108500000D01*
%TO.C,AND Output*%
X143580000Y-89790000D02*
X143580000Y-94210000D01*
X143580000Y-94210000D02*
X148420000Y-94210000D01*
X148420000Y-89790000D02*
X143580000Y-89790000D01*
X148420000Y-94210000D02*
X148420000Y-89790000D01*
%TO.C,Q2*%
X153270000Y-74040000D02*
X153270000Y-68580000D01*
X153270000Y-74040000D02*
X158010000Y-74040000D01*
X158010000Y-68580000D02*
X153270000Y-68580000D01*
X158010000Y-68580000D02*
X158010000Y-74040000D01*
%TO.C,NOT Output*%
X153080000Y-89790000D02*
X153080000Y-94210000D01*
X153080000Y-94210000D02*
X157920000Y-94210000D01*
X157920000Y-89790000D02*
X153080000Y-89790000D01*
X157920000Y-94210000D02*
X157920000Y-89790000D01*
%TD*%
D29*
X130789160Y-109822200D02*
X130932017Y-109869819D01*
X130932017Y-109869819D02*
X131170112Y-109869819D01*
X131170112Y-109869819D02*
X131265350Y-109822200D01*
X131265350Y-109822200D02*
X131312969Y-109774580D01*
X131312969Y-109774580D02*
X131360588Y-109679342D01*
X131360588Y-109679342D02*
X131360588Y-109584104D01*
X131360588Y-109584104D02*
X131312969Y-109488866D01*
X131312969Y-109488866D02*
X131265350Y-109441247D01*
X131265350Y-109441247D02*
X131170112Y-109393628D01*
X131170112Y-109393628D02*
X130979636Y-109346009D01*
X130979636Y-109346009D02*
X130884398Y-109298390D01*
X130884398Y-109298390D02*
X130836779Y-109250771D01*
X130836779Y-109250771D02*
X130789160Y-109155533D01*
X130789160Y-109155533D02*
X130789160Y-109060295D01*
X130789160Y-109060295D02*
X130836779Y-108965057D01*
X130836779Y-108965057D02*
X130884398Y-108917438D01*
X130884398Y-108917438D02*
X130979636Y-108869819D01*
X130979636Y-108869819D02*
X131217731Y-108869819D01*
X131217731Y-108869819D02*
X131360588Y-108917438D01*
X131693922Y-108869819D02*
X131932017Y-109869819D01*
X131932017Y-109869819D02*
X132122493Y-109155533D01*
X132122493Y-109155533D02*
X132312969Y-109869819D01*
X132312969Y-109869819D02*
X132551065Y-108869819D01*
X133455826Y-109869819D02*
X132884398Y-109869819D01*
X133170112Y-109869819D02*
X133170112Y-108869819D01*
X133170112Y-108869819D02*
X133074874Y-109012676D01*
X133074874Y-109012676D02*
X132979636Y-109107914D01*
X132979636Y-109107914D02*
X132884398Y-109155533D01*
X142289160Y-109822200D02*
X142432017Y-109869819D01*
X142432017Y-109869819D02*
X142670112Y-109869819D01*
X142670112Y-109869819D02*
X142765350Y-109822200D01*
X142765350Y-109822200D02*
X142812969Y-109774580D01*
X142812969Y-109774580D02*
X142860588Y-109679342D01*
X142860588Y-109679342D02*
X142860588Y-109584104D01*
X142860588Y-109584104D02*
X142812969Y-109488866D01*
X142812969Y-109488866D02*
X142765350Y-109441247D01*
X142765350Y-109441247D02*
X142670112Y-109393628D01*
X142670112Y-109393628D02*
X142479636Y-109346009D01*
X142479636Y-109346009D02*
X142384398Y-109298390D01*
X142384398Y-109298390D02*
X142336779Y-109250771D01*
X142336779Y-109250771D02*
X142289160Y-109155533D01*
X142289160Y-109155533D02*
X142289160Y-109060295D01*
X142289160Y-109060295D02*
X142336779Y-108965057D01*
X142336779Y-108965057D02*
X142384398Y-108917438D01*
X142384398Y-108917438D02*
X142479636Y-108869819D01*
X142479636Y-108869819D02*
X142717731Y-108869819D01*
X142717731Y-108869819D02*
X142860588Y-108917438D01*
X143193922Y-108869819D02*
X143432017Y-109869819D01*
X143432017Y-109869819D02*
X143622493Y-109155533D01*
X143622493Y-109155533D02*
X143812969Y-109869819D01*
X143812969Y-109869819D02*
X144051065Y-108869819D01*
X144384398Y-108965057D02*
X144432017Y-108917438D01*
X144432017Y-108917438D02*
X144527255Y-108869819D01*
X144527255Y-108869819D02*
X144765350Y-108869819D01*
X144765350Y-108869819D02*
X144860588Y-108917438D01*
X144860588Y-108917438D02*
X144908207Y-108965057D01*
X144908207Y-108965057D02*
X144955826Y-109060295D01*
X144955826Y-109060295D02*
X144955826Y-109155533D01*
X144955826Y-109155533D02*
X144908207Y-109298390D01*
X144908207Y-109298390D02*
X144336779Y-109869819D01*
X144336779Y-109869819D02*
X144955826Y-109869819D01*
X153539160Y-109822200D02*
X153682017Y-109869819D01*
X153682017Y-109869819D02*
X153920112Y-109869819D01*
X153920112Y-109869819D02*
X154015350Y-109822200D01*
X154015350Y-109822200D02*
X154062969Y-109774580D01*
X154062969Y-109774580D02*
X154110588Y-109679342D01*
X154110588Y-109679342D02*
X154110588Y-109584104D01*
X154110588Y-109584104D02*
X154062969Y-109488866D01*
X154062969Y-109488866D02*
X154015350Y-109441247D01*
X154015350Y-109441247D02*
X153920112Y-109393628D01*
X153920112Y-109393628D02*
X153729636Y-109346009D01*
X153729636Y-109346009D02*
X153634398Y-109298390D01*
X153634398Y-109298390D02*
X153586779Y-109250771D01*
X153586779Y-109250771D02*
X153539160Y-109155533D01*
X153539160Y-109155533D02*
X153539160Y-109060295D01*
X153539160Y-109060295D02*
X153586779Y-108965057D01*
X153586779Y-108965057D02*
X153634398Y-108917438D01*
X153634398Y-108917438D02*
X153729636Y-108869819D01*
X153729636Y-108869819D02*
X153967731Y-108869819D01*
X153967731Y-108869819D02*
X154110588Y-108917438D01*
X154443922Y-108869819D02*
X154682017Y-109869819D01*
X154682017Y-109869819D02*
X154872493Y-109155533D01*
X154872493Y-109155533D02*
X155062969Y-109869819D01*
X155062969Y-109869819D02*
X155301065Y-108869819D01*
X155586779Y-108869819D02*
X156205826Y-108869819D01*
X156205826Y-108869819D02*
X155872493Y-109250771D01*
X155872493Y-109250771D02*
X156015350Y-109250771D01*
X156015350Y-109250771D02*
X156110588Y-109298390D01*
X156110588Y-109298390D02*
X156158207Y-109346009D01*
X156158207Y-109346009D02*
X156205826Y-109441247D01*
X156205826Y-109441247D02*
X156205826Y-109679342D01*
X156205826Y-109679342D02*
X156158207Y-109774580D01*
X156158207Y-109774580D02*
X156110588Y-109822200D01*
X156110588Y-109822200D02*
X156015350Y-109869819D01*
X156015350Y-109869819D02*
X155729636Y-109869819D01*
X155729636Y-109869819D02*
X155634398Y-109822200D01*
X155634398Y-109822200D02*
X155586779Y-109774580D01*
X137170112Y-81846009D02*
X137312969Y-81893628D01*
X137312969Y-81893628D02*
X137360588Y-81941247D01*
X137360588Y-81941247D02*
X137408207Y-82036485D01*
X137408207Y-82036485D02*
X137408207Y-82179342D01*
X137408207Y-82179342D02*
X137360588Y-82274580D01*
X137360588Y-82274580D02*
X137312969Y-82322200D01*
X137312969Y-82322200D02*
X137217731Y-82369819D01*
X137217731Y-82369819D02*
X136836779Y-82369819D01*
X136836779Y-82369819D02*
X136836779Y-81369819D01*
X136836779Y-81369819D02*
X137170112Y-81369819D01*
X137170112Y-81369819D02*
X137265350Y-81417438D01*
X137265350Y-81417438D02*
X137312969Y-81465057D01*
X137312969Y-81465057D02*
X137360588Y-81560295D01*
X137360588Y-81560295D02*
X137360588Y-81655533D01*
X137360588Y-81655533D02*
X137312969Y-81750771D01*
X137312969Y-81750771D02*
X137265350Y-81798390D01*
X137265350Y-81798390D02*
X137170112Y-81846009D01*
X137170112Y-81846009D02*
X136836779Y-81846009D01*
X137693922Y-81369819D02*
X138265350Y-81369819D01*
X137979636Y-82369819D02*
X137979636Y-81369819D01*
X139122493Y-82369819D02*
X138551065Y-82369819D01*
X138836779Y-82369819D02*
X138836779Y-81369819D01*
X138836779Y-81369819D02*
X138741541Y-81512676D01*
X138741541Y-81512676D02*
X138646303Y-81607914D01*
X138646303Y-81607914D02*
X138551065Y-81655533D01*
X155744819Y-81039523D02*
X154744819Y-81039523D01*
X154744819Y-81039523D02*
X155744819Y-80468095D01*
X155744819Y-80468095D02*
X154744819Y-80468095D01*
X155744819Y-79991904D02*
X154744819Y-79991904D01*
X154744819Y-79991904D02*
X154744819Y-79610952D01*
X154744819Y-79610952D02*
X154792438Y-79515714D01*
X154792438Y-79515714D02*
X154840057Y-79468095D01*
X154840057Y-79468095D02*
X154935295Y-79420476D01*
X154935295Y-79420476D02*
X155078152Y-79420476D01*
X155078152Y-79420476D02*
X155173390Y-79468095D01*
X155173390Y-79468095D02*
X155221009Y-79515714D01*
X155221009Y-79515714D02*
X155268628Y-79610952D01*
X155268628Y-79610952D02*
X155268628Y-79991904D01*
X155744819Y-78991904D02*
X154744819Y-78991904D01*
X154744819Y-78991904D02*
X155744819Y-78420476D01*
X155744819Y-78420476D02*
X154744819Y-78420476D01*
X117087142Y-101414819D02*
X116610952Y-101414819D01*
X116610952Y-101414819D02*
X116610952Y-100414819D01*
X117420476Y-100891009D02*
X117753809Y-100891009D01*
X117896666Y-101414819D02*
X117420476Y-101414819D01*
X117420476Y-101414819D02*
X117420476Y-100414819D01*
X117420476Y-100414819D02*
X117896666Y-100414819D01*
X118325238Y-101414819D02*
X118325238Y-100414819D01*
X118325238Y-100414819D02*
X118563333Y-100414819D01*
X118563333Y-100414819D02*
X118706190Y-100462438D01*
X118706190Y-100462438D02*
X118801428Y-100557676D01*
X118801428Y-100557676D02*
X118849047Y-100652914D01*
X118849047Y-100652914D02*
X118896666Y-100843390D01*
X118896666Y-100843390D02*
X118896666Y-100986247D01*
X118896666Y-100986247D02*
X118849047Y-101176723D01*
X118849047Y-101176723D02*
X118801428Y-101271961D01*
X118801428Y-101271961D02*
X118706190Y-101367200D01*
X118706190Y-101367200D02*
X118563333Y-101414819D01*
X118563333Y-101414819D02*
X118325238Y-101414819D01*
D30*
X116149048Y-98363855D02*
X116149048Y-97563855D01*
X116149048Y-97563855D02*
X116453810Y-97563855D01*
X116453810Y-97563855D02*
X116530000Y-97601950D01*
X116530000Y-97601950D02*
X116568095Y-97640045D01*
X116568095Y-97640045D02*
X116606191Y-97716236D01*
X116606191Y-97716236D02*
X116606191Y-97830521D01*
X116606191Y-97830521D02*
X116568095Y-97906712D01*
X116568095Y-97906712D02*
X116530000Y-97944807D01*
X116530000Y-97944807D02*
X116453810Y-97982902D01*
X116453810Y-97982902D02*
X116149048Y-97982902D01*
X117063333Y-98363855D02*
X116987143Y-98325760D01*
X116987143Y-98325760D02*
X116949048Y-98287664D01*
X116949048Y-98287664D02*
X116910952Y-98211474D01*
X116910952Y-98211474D02*
X116910952Y-97982902D01*
X116910952Y-97982902D02*
X116949048Y-97906712D01*
X116949048Y-97906712D02*
X116987143Y-97868617D01*
X116987143Y-97868617D02*
X117063333Y-97830521D01*
X117063333Y-97830521D02*
X117177619Y-97830521D01*
X117177619Y-97830521D02*
X117253810Y-97868617D01*
X117253810Y-97868617D02*
X117291905Y-97906712D01*
X117291905Y-97906712D02*
X117330000Y-97982902D01*
X117330000Y-97982902D02*
X117330000Y-98211474D01*
X117330000Y-98211474D02*
X117291905Y-98287664D01*
X117291905Y-98287664D02*
X117253810Y-98325760D01*
X117253810Y-98325760D02*
X117177619Y-98363855D01*
X117177619Y-98363855D02*
X117063333Y-98363855D01*
X117596667Y-97830521D02*
X117749048Y-98363855D01*
X117749048Y-98363855D02*
X117901429Y-97982902D01*
X117901429Y-97982902D02*
X118053810Y-98363855D01*
X118053810Y-98363855D02*
X118206191Y-97830521D01*
X118815715Y-98325760D02*
X118739524Y-98363855D01*
X118739524Y-98363855D02*
X118587143Y-98363855D01*
X118587143Y-98363855D02*
X118510953Y-98325760D01*
X118510953Y-98325760D02*
X118472857Y-98249569D01*
X118472857Y-98249569D02*
X118472857Y-97944807D01*
X118472857Y-97944807D02*
X118510953Y-97868617D01*
X118510953Y-97868617D02*
X118587143Y-97830521D01*
X118587143Y-97830521D02*
X118739524Y-97830521D01*
X118739524Y-97830521D02*
X118815715Y-97868617D01*
X118815715Y-97868617D02*
X118853810Y-97944807D01*
X118853810Y-97944807D02*
X118853810Y-98020998D01*
X118853810Y-98020998D02*
X118472857Y-98097188D01*
X119196667Y-98363855D02*
X119196667Y-97830521D01*
X119196667Y-97982902D02*
X119234762Y-97906712D01*
X119234762Y-97906712D02*
X119272857Y-97868617D01*
X119272857Y-97868617D02*
X119349048Y-97830521D01*
X119349048Y-97830521D02*
X119425238Y-97830521D01*
D29*
X151744819Y-72579523D02*
X150744819Y-72579523D01*
X150744819Y-72579523D02*
X151744819Y-72008095D01*
X151744819Y-72008095D02*
X150744819Y-72008095D01*
X151744819Y-71531904D02*
X150744819Y-71531904D01*
X150744819Y-71531904D02*
X150744819Y-71150952D01*
X150744819Y-71150952D02*
X150792438Y-71055714D01*
X150792438Y-71055714D02*
X150840057Y-71008095D01*
X150840057Y-71008095D02*
X150935295Y-70960476D01*
X150935295Y-70960476D02*
X151078152Y-70960476D01*
X151078152Y-70960476D02*
X151173390Y-71008095D01*
X151173390Y-71008095D02*
X151221009Y-71055714D01*
X151221009Y-71055714D02*
X151268628Y-71150952D01*
X151268628Y-71150952D02*
X151268628Y-71531904D01*
X151744819Y-70531904D02*
X150744819Y-70531904D01*
X150744819Y-70531904D02*
X151744819Y-69960476D01*
X151744819Y-69960476D02*
X150744819Y-69960476D01*
X145357142Y-95414819D02*
X144880952Y-95414819D01*
X144880952Y-95414819D02*
X144880952Y-94414819D01*
X145690476Y-94891009D02*
X146023809Y-94891009D01*
X146166666Y-95414819D02*
X145690476Y-95414819D01*
X145690476Y-95414819D02*
X145690476Y-94414819D01*
X145690476Y-94414819D02*
X146166666Y-94414819D01*
X146595238Y-95414819D02*
X146595238Y-94414819D01*
X146595238Y-94414819D02*
X146833333Y-94414819D01*
X146833333Y-94414819D02*
X146976190Y-94462438D01*
X146976190Y-94462438D02*
X147071428Y-94557676D01*
X147071428Y-94557676D02*
X147119047Y-94652914D01*
X147119047Y-94652914D02*
X147166666Y-94843390D01*
X147166666Y-94843390D02*
X147166666Y-94986247D01*
X147166666Y-94986247D02*
X147119047Y-95176723D01*
X147119047Y-95176723D02*
X147071428Y-95271961D01*
X147071428Y-95271961D02*
X146976190Y-95367200D01*
X146976190Y-95367200D02*
X146833333Y-95414819D01*
X146833333Y-95414819D02*
X146595238Y-95414819D01*
D30*
X142723808Y-92135283D02*
X143104761Y-92135283D01*
X142647618Y-92363855D02*
X142914285Y-91563855D01*
X142914285Y-91563855D02*
X143180951Y-92363855D01*
X143447618Y-92363855D02*
X143447618Y-91563855D01*
X143447618Y-91563855D02*
X143904761Y-92363855D01*
X143904761Y-92363855D02*
X143904761Y-91563855D01*
X144285713Y-92363855D02*
X144285713Y-91563855D01*
X144285713Y-91563855D02*
X144476189Y-91563855D01*
X144476189Y-91563855D02*
X144590475Y-91601950D01*
X144590475Y-91601950D02*
X144666665Y-91678140D01*
X144666665Y-91678140D02*
X144704760Y-91754331D01*
X144704760Y-91754331D02*
X144742856Y-91906712D01*
X144742856Y-91906712D02*
X144742856Y-92020998D01*
X144742856Y-92020998D02*
X144704760Y-92173379D01*
X144704760Y-92173379D02*
X144666665Y-92249569D01*
X144666665Y-92249569D02*
X144590475Y-92325760D01*
X144590475Y-92325760D02*
X144476189Y-92363855D01*
X144476189Y-92363855D02*
X144285713Y-92363855D01*
X145847618Y-91563855D02*
X145999999Y-91563855D01*
X145999999Y-91563855D02*
X146076189Y-91601950D01*
X146076189Y-91601950D02*
X146152380Y-91678140D01*
X146152380Y-91678140D02*
X146190475Y-91830521D01*
X146190475Y-91830521D02*
X146190475Y-92097188D01*
X146190475Y-92097188D02*
X146152380Y-92249569D01*
X146152380Y-92249569D02*
X146076189Y-92325760D01*
X146076189Y-92325760D02*
X145999999Y-92363855D01*
X145999999Y-92363855D02*
X145847618Y-92363855D01*
X145847618Y-92363855D02*
X145771427Y-92325760D01*
X145771427Y-92325760D02*
X145695237Y-92249569D01*
X145695237Y-92249569D02*
X145657141Y-92097188D01*
X145657141Y-92097188D02*
X145657141Y-91830521D01*
X145657141Y-91830521D02*
X145695237Y-91678140D01*
X145695237Y-91678140D02*
X145771427Y-91601950D01*
X145771427Y-91601950D02*
X145847618Y-91563855D01*
X146876189Y-91830521D02*
X146876189Y-92363855D01*
X146533332Y-91830521D02*
X146533332Y-92249569D01*
X146533332Y-92249569D02*
X146571427Y-92325760D01*
X146571427Y-92325760D02*
X146647617Y-92363855D01*
X146647617Y-92363855D02*
X146761903Y-92363855D01*
X146761903Y-92363855D02*
X146838094Y-92325760D01*
X146838094Y-92325760D02*
X146876189Y-92287664D01*
X147142856Y-91830521D02*
X147447618Y-91830521D01*
X147257142Y-91563855D02*
X147257142Y-92249569D01*
X147257142Y-92249569D02*
X147295237Y-92325760D01*
X147295237Y-92325760D02*
X147371427Y-92363855D01*
X147371427Y-92363855D02*
X147447618Y-92363855D01*
X147714285Y-91830521D02*
X147714285Y-92630521D01*
X147714285Y-91868617D02*
X147790475Y-91830521D01*
X147790475Y-91830521D02*
X147942856Y-91830521D01*
X147942856Y-91830521D02*
X148019047Y-91868617D01*
X148019047Y-91868617D02*
X148057142Y-91906712D01*
X148057142Y-91906712D02*
X148095237Y-91982902D01*
X148095237Y-91982902D02*
X148095237Y-92211474D01*
X148095237Y-92211474D02*
X148057142Y-92287664D01*
X148057142Y-92287664D02*
X148019047Y-92325760D01*
X148019047Y-92325760D02*
X147942856Y-92363855D01*
X147942856Y-92363855D02*
X147790475Y-92363855D01*
X147790475Y-92363855D02*
X147714285Y-92325760D01*
X148780952Y-91830521D02*
X148780952Y-92363855D01*
X148438095Y-91830521D02*
X148438095Y-92249569D01*
X148438095Y-92249569D02*
X148476190Y-92325760D01*
X148476190Y-92325760D02*
X148552380Y-92363855D01*
X148552380Y-92363855D02*
X148666666Y-92363855D01*
X148666666Y-92363855D02*
X148742857Y-92325760D01*
X148742857Y-92325760D02*
X148780952Y-92287664D01*
X149047619Y-91830521D02*
X149352381Y-91830521D01*
X149161905Y-91563855D02*
X149161905Y-92249569D01*
X149161905Y-92249569D02*
X149200000Y-92325760D01*
X149200000Y-92325760D02*
X149276190Y-92363855D01*
X149276190Y-92363855D02*
X149352381Y-92363855D01*
D29*
X159244819Y-72619523D02*
X158244819Y-72619523D01*
X158244819Y-72619523D02*
X159244819Y-72048095D01*
X159244819Y-72048095D02*
X158244819Y-72048095D01*
X159244819Y-71571904D02*
X158244819Y-71571904D01*
X158244819Y-71571904D02*
X158244819Y-71190952D01*
X158244819Y-71190952D02*
X158292438Y-71095714D01*
X158292438Y-71095714D02*
X158340057Y-71048095D01*
X158340057Y-71048095D02*
X158435295Y-71000476D01*
X158435295Y-71000476D02*
X158578152Y-71000476D01*
X158578152Y-71000476D02*
X158673390Y-71048095D01*
X158673390Y-71048095D02*
X158721009Y-71095714D01*
X158721009Y-71095714D02*
X158768628Y-71190952D01*
X158768628Y-71190952D02*
X158768628Y-71571904D01*
X159244819Y-70571904D02*
X158244819Y-70571904D01*
X158244819Y-70571904D02*
X159244819Y-70000476D01*
X159244819Y-70000476D02*
X158244819Y-70000476D01*
X154857142Y-95414819D02*
X154380952Y-95414819D01*
X154380952Y-95414819D02*
X154380952Y-94414819D01*
X155190476Y-94891009D02*
X155523809Y-94891009D01*
X155666666Y-95414819D02*
X155190476Y-95414819D01*
X155190476Y-95414819D02*
X155190476Y-94414819D01*
X155190476Y-94414819D02*
X155666666Y-94414819D01*
X156095238Y-95414819D02*
X156095238Y-94414819D01*
X156095238Y-94414819D02*
X156333333Y-94414819D01*
X156333333Y-94414819D02*
X156476190Y-94462438D01*
X156476190Y-94462438D02*
X156571428Y-94557676D01*
X156571428Y-94557676D02*
X156619047Y-94652914D01*
X156619047Y-94652914D02*
X156666666Y-94843390D01*
X156666666Y-94843390D02*
X156666666Y-94986247D01*
X156666666Y-94986247D02*
X156619047Y-95176723D01*
X156619047Y-95176723D02*
X156571428Y-95271961D01*
X156571428Y-95271961D02*
X156476190Y-95367200D01*
X156476190Y-95367200D02*
X156333333Y-95414819D01*
X156333333Y-95414819D02*
X156095238Y-95414819D01*
D30*
X152280952Y-92363855D02*
X152280952Y-91563855D01*
X152280952Y-91563855D02*
X152738095Y-92363855D01*
X152738095Y-92363855D02*
X152738095Y-91563855D01*
X153271428Y-91563855D02*
X153423809Y-91563855D01*
X153423809Y-91563855D02*
X153499999Y-91601950D01*
X153499999Y-91601950D02*
X153576190Y-91678140D01*
X153576190Y-91678140D02*
X153614285Y-91830521D01*
X153614285Y-91830521D02*
X153614285Y-92097188D01*
X153614285Y-92097188D02*
X153576190Y-92249569D01*
X153576190Y-92249569D02*
X153499999Y-92325760D01*
X153499999Y-92325760D02*
X153423809Y-92363855D01*
X153423809Y-92363855D02*
X153271428Y-92363855D01*
X153271428Y-92363855D02*
X153195237Y-92325760D01*
X153195237Y-92325760D02*
X153119047Y-92249569D01*
X153119047Y-92249569D02*
X153080951Y-92097188D01*
X153080951Y-92097188D02*
X153080951Y-91830521D01*
X153080951Y-91830521D02*
X153119047Y-91678140D01*
X153119047Y-91678140D02*
X153195237Y-91601950D01*
X153195237Y-91601950D02*
X153271428Y-91563855D01*
X153842856Y-91563855D02*
X154299999Y-91563855D01*
X154071427Y-92363855D02*
X154071427Y-91563855D01*
X155328571Y-91563855D02*
X155480952Y-91563855D01*
X155480952Y-91563855D02*
X155557142Y-91601950D01*
X155557142Y-91601950D02*
X155633333Y-91678140D01*
X155633333Y-91678140D02*
X155671428Y-91830521D01*
X155671428Y-91830521D02*
X155671428Y-92097188D01*
X155671428Y-92097188D02*
X155633333Y-92249569D01*
X155633333Y-92249569D02*
X155557142Y-92325760D01*
X155557142Y-92325760D02*
X155480952Y-92363855D01*
X155480952Y-92363855D02*
X155328571Y-92363855D01*
X155328571Y-92363855D02*
X155252380Y-92325760D01*
X155252380Y-92325760D02*
X155176190Y-92249569D01*
X155176190Y-92249569D02*
X155138094Y-92097188D01*
X155138094Y-92097188D02*
X155138094Y-91830521D01*
X155138094Y-91830521D02*
X155176190Y-91678140D01*
X155176190Y-91678140D02*
X155252380Y-91601950D01*
X155252380Y-91601950D02*
X155328571Y-91563855D01*
X156357142Y-91830521D02*
X156357142Y-92363855D01*
X156014285Y-91830521D02*
X156014285Y-92249569D01*
X156014285Y-92249569D02*
X156052380Y-92325760D01*
X156052380Y-92325760D02*
X156128570Y-92363855D01*
X156128570Y-92363855D02*
X156242856Y-92363855D01*
X156242856Y-92363855D02*
X156319047Y-92325760D01*
X156319047Y-92325760D02*
X156357142Y-92287664D01*
X156623809Y-91830521D02*
X156928571Y-91830521D01*
X156738095Y-91563855D02*
X156738095Y-92249569D01*
X156738095Y-92249569D02*
X156776190Y-92325760D01*
X156776190Y-92325760D02*
X156852380Y-92363855D01*
X156852380Y-92363855D02*
X156928571Y-92363855D01*
X157195238Y-91830521D02*
X157195238Y-92630521D01*
X157195238Y-91868617D02*
X157271428Y-91830521D01*
X157271428Y-91830521D02*
X157423809Y-91830521D01*
X157423809Y-91830521D02*
X157500000Y-91868617D01*
X157500000Y-91868617D02*
X157538095Y-91906712D01*
X157538095Y-91906712D02*
X157576190Y-91982902D01*
X157576190Y-91982902D02*
X157576190Y-92211474D01*
X157576190Y-92211474D02*
X157538095Y-92287664D01*
X157538095Y-92287664D02*
X157500000Y-92325760D01*
X157500000Y-92325760D02*
X157423809Y-92363855D01*
X157423809Y-92363855D02*
X157271428Y-92363855D01*
X157271428Y-92363855D02*
X157195238Y-92325760D01*
X158261905Y-91830521D02*
X158261905Y-92363855D01*
X157919048Y-91830521D02*
X157919048Y-92249569D01*
X157919048Y-92249569D02*
X157957143Y-92325760D01*
X157957143Y-92325760D02*
X158033333Y-92363855D01*
X158033333Y-92363855D02*
X158147619Y-92363855D01*
X158147619Y-92363855D02*
X158223810Y-92325760D01*
X158223810Y-92325760D02*
X158261905Y-92287664D01*
X158528572Y-91830521D02*
X158833334Y-91830521D01*
X158642858Y-91563855D02*
X158642858Y-92249569D01*
X158642858Y-92249569D02*
X158680953Y-92325760D01*
X158680953Y-92325760D02*
X158757143Y-92363855D01*
X158757143Y-92363855D02*
X158833334Y-92363855D01*
D25*
%TO.C,Q3*%
X154250000Y-81500000D02*
X154250000Y-78000000D01*
X150020000Y-79730000D02*
G75*
G02*
X154253625Y-77976375I2480000J0D01*
G01*
X154253625Y-81483625D02*
G75*
G02*
X150020000Y-79730000I-1753625J1753625D01*
G01*
%TO.C,Power*%
X116230000Y-96833810D02*
X116230000Y-99166190D01*
X116230000Y-96833810D02*
G75*
G02*
X116230046Y-99166249I1500000J-1166190D01*
G01*
X119230000Y-98000000D02*
G75*
G02*
X116230000Y-98000000I-1500000J0D01*
G01*
X116230000Y-98000000D02*
G75*
G02*
X119230000Y-98000000I1500000J0D01*
G01*
%TO.C,Battery*%
X123200000Y-71000000D02*
X126950000Y-71000000D01*
X123210000Y-92100000D02*
X126950000Y-92100000D01*
X126950000Y-71000000D02*
X126950000Y-66300000D01*
X126950000Y-96800000D02*
X126950000Y-92100000D01*
X126950000Y-96800000D02*
X132050000Y-96800000D01*
X129600000Y-74450000D02*
X122500000Y-74450000D01*
X129600000Y-77650000D02*
X122500000Y-77650000D01*
X129600000Y-85450000D02*
X122500000Y-85450000D01*
X129600000Y-88650000D02*
X122500000Y-88650000D01*
X132050000Y-66300000D02*
X126950000Y-66300000D01*
X132050000Y-71000000D02*
X132050000Y-66300000D01*
X132050000Y-71000000D02*
X133700000Y-71000000D01*
X132050000Y-92100000D02*
X133700000Y-92100000D01*
X132050000Y-96800000D02*
X132050000Y-92100000D01*
X133700000Y-71000000D02*
X140000000Y-77800000D01*
X133700000Y-92100000D02*
X140000000Y-85300000D01*
X140000000Y-85300000D02*
X140000000Y-77800000D01*
X120910000Y-86580000D02*
G75*
G02*
X120910120Y-76519794I8650000J5030000D01*
G01*
X121132359Y-76173674D02*
G75*
G02*
X123200000Y-71000000I2067641J2173674D01*
G01*
X121151868Y-76198097D02*
G75*
G02*
X121049999Y-86999999I-5251868J-5351903D01*
G01*
X123200000Y-92105410D02*
G75*
G02*
X121050001Y-87000001I0J3005410D01*
G01*
X129600000Y-74450000D02*
G75*
G02*
X129600000Y-77650000I0J-1600000D01*
G01*
X129600000Y-85450000D02*
G75*
G02*
X129600000Y-88650000I0J-1600000D01*
G01*
X130675000Y-68600000D02*
G75*
G02*
X128325000Y-68600000I-1175000J0D01*
G01*
X128325000Y-68600000D02*
G75*
G02*
X130675000Y-68600000I1175000J0D01*
G01*
X130675000Y-94500000D02*
G75*
G02*
X128325000Y-94500000I-1175000J0D01*
G01*
X128325000Y-94500000D02*
G75*
G02*
X130675000Y-94500000I1175000J0D01*
G01*
X132700000Y-76050000D02*
G75*
G02*
X126500000Y-76050000I-3100000J0D01*
G01*
X126500000Y-76050000D02*
G75*
G02*
X132700000Y-76050000I3100000J0D01*
G01*
X132700000Y-87050000D02*
G75*
G02*
X126500000Y-87050000I-3100000J0D01*
G01*
X126500000Y-87050000D02*
G75*
G02*
X132700000Y-87050000I3100000J0D01*
G01*
%TO.C,AND Input A*%
X129135000Y-102000000D02*
X132135000Y-102000000D01*
X129135000Y-108000000D02*
X129135000Y-102000000D01*
X132135000Y-102000000D02*
X135135000Y-102000000D01*
X135135000Y-102000000D02*
X135135000Y-108000000D01*
X135135000Y-108000000D02*
X129135000Y-108000000D01*
X134150564Y-105000000D02*
G75*
G02*
X130119436Y-105000000I-2015564J0D01*
G01*
X130119436Y-105000000D02*
G75*
G02*
X134150564Y-105000000I2015564J0D01*
G01*
%TO.C,Q1*%
X150250000Y-73040000D02*
X150250000Y-69540000D01*
X146020000Y-71270000D02*
G75*
G02*
X150253625Y-69516375I2480000J0D01*
G01*
X150253625Y-73023625D02*
G75*
G02*
X146020000Y-71270000I-1753625J1753625D01*
G01*
%TO.C,AND Input B*%
X140500000Y-102000000D02*
X143500000Y-102000000D01*
X140500000Y-108000000D02*
X140500000Y-102000000D01*
X143500000Y-102000000D02*
X146500000Y-102000000D01*
X146500000Y-102000000D02*
X146500000Y-108000000D01*
X146500000Y-108000000D02*
X140500000Y-108000000D01*
X145515564Y-105000000D02*
G75*
G02*
X141484436Y-105000000I-2015564J0D01*
G01*
X141484436Y-105000000D02*
G75*
G02*
X145515564Y-105000000I2015564J0D01*
G01*
%TO.C,NOT Input*%
X151750000Y-102000000D02*
X154750000Y-102000000D01*
X151750000Y-108000000D02*
X151750000Y-102000000D01*
X154750000Y-102000000D02*
X157750000Y-102000000D01*
X157750000Y-102000000D02*
X157750000Y-108000000D01*
X157750000Y-108000000D02*
X151750000Y-108000000D01*
X156765564Y-105000000D02*
G75*
G02*
X152734436Y-105000000I-2015564J0D01*
G01*
X152734436Y-105000000D02*
G75*
G02*
X156765564Y-105000000I2015564J0D01*
G01*
%TO.C,AND Output*%
X144500000Y-90833810D02*
X144500000Y-93166190D01*
X144500000Y-90833810D02*
G75*
G02*
X144500046Y-93166249I1500000J-1166190D01*
G01*
X147500000Y-92000000D02*
G75*
G02*
X144500000Y-92000000I-1500000J0D01*
G01*
X144500000Y-92000000D02*
G75*
G02*
X147500000Y-92000000I1500000J0D01*
G01*
%TO.C,Q2*%
X157750000Y-73080000D02*
X157750000Y-69580000D01*
X153520000Y-71310000D02*
G75*
G02*
X157753625Y-69556375I2480000J0D01*
G01*
X157753625Y-73063625D02*
G75*
G02*
X153520000Y-71310000I-1753625J1753625D01*
G01*
%TO.C,NOT Output*%
X154000000Y-90833810D02*
X154000000Y-93166190D01*
X154000000Y-90833810D02*
G75*
G02*
X154000046Y-93166249I1500000J-1166190D01*
G01*
X157000000Y-92000000D02*
G75*
G02*
X154000000Y-92000000I-1500000J0D01*
G01*
X154000000Y-92000000D02*
G75*
G02*
X157000000Y-92000000I1500000J0D01*
G01*
%TD*%
D32*
X118500000Y-66000000D02*
G75*
G02*
X114500000Y-66000000I-2000000J0D01*
G01*
X114500000Y-66000000D02*
G75*
G02*
X118500000Y-66000000I2000000J0D01*
G01*
X112500000Y-62500000D02*
X161500000Y-62500000D01*
X161500000Y-110500000D01*
X112500000Y-110500000D01*
X112500000Y-62500000D01*
M02*
