%TF.GenerationSoftware,KiCad,Pcbnew,9.0.0*%
%TF.CreationDate,2025-04-13T09:29:25+08:00*%
%TF.ProjectId,computer,636f6d70-7574-4657-922e-6b696361645f,rev?*%
%TF.SameCoordinates,Original*%
%TF.FileFunction,Other,User*%
%FSLAX46Y46*%
G04 Gerber Fmt 4.6, Leading zero omitted, Abs format (unit mm)*
G04 Created by KiCad (PCBNEW 9.0.0) date 2025-04-13 09:29:25*
%MOMM*%
%LPD*%
G01*
G04 APERTURE LIST*
%ADD10C,0.050000*%
G04 APERTURE END LIST*
D10*
%TO.C,Q3*%
X149450000Y-82450000D02*
X154510000Y-82460000D01*
X149450000Y-82460000D02*
X149450000Y-77000000D01*
X154510000Y-77000000D02*
X149450000Y-77000000D01*
X154510000Y-77000000D02*
X154510000Y-82460000D01*
%TO.C,Power*%
X116020000Y-94790000D02*
X116020000Y-101210000D01*
X116020000Y-101210000D02*
X122450000Y-101210000D01*
X122450000Y-94790000D02*
X116020000Y-94790000D01*
X122450000Y-101210000D02*
X122450000Y-94790000D01*
%TO.C,Battery*%
X118370000Y-88945000D02*
X122360000Y-90395000D01*
X122360000Y-68635000D02*
X118380000Y-70075000D01*
X122360000Y-90395000D02*
X123210000Y-90395000D01*
X123210000Y-67645000D02*
X123210000Y-68635000D01*
X123210000Y-68635000D02*
X122360000Y-68635000D01*
X123210000Y-90395000D02*
X123210000Y-91385000D01*
X123210000Y-91385000D02*
X128790000Y-91385000D01*
X128790000Y-67645000D02*
X123210000Y-67645000D01*
X128790000Y-68635000D02*
X128790000Y-67645000D01*
X128790000Y-90395000D02*
X131500000Y-90395000D01*
X128790000Y-91385000D02*
X128790000Y-90395000D01*
X131500000Y-68635000D02*
X128790000Y-68635000D01*
X131500000Y-90395000D02*
X133640000Y-88255000D01*
X133640000Y-70775000D02*
X131500000Y-68635000D01*
X133640000Y-72315000D02*
X133640000Y-70775000D01*
X133640000Y-88255000D02*
X133640000Y-86715000D01*
X117345396Y-73558035D02*
G75*
G02*
X118380000Y-70085000I1804604J1353035D01*
G01*
X117349925Y-85460368D02*
G75*
G02*
X117360000Y-73555000I8650076J5945368D01*
G01*
X118378659Y-88930144D02*
G75*
G02*
X117360000Y-85475000I771341J2105144D01*
G01*
X133640427Y-72315454D02*
G75*
G02*
X133640000Y-86715000I-7640430J-7199546D01*
G01*
%TO.C,AND Input A*%
X127385000Y-101250000D02*
X127635000Y-101250000D01*
X127385000Y-101500000D02*
X127385000Y-101250000D01*
X127385000Y-108500000D02*
X127385000Y-101500000D01*
X127385000Y-108500000D02*
X127385000Y-108750000D01*
X127385000Y-108750000D02*
X127635000Y-108750000D01*
X127635000Y-101250000D02*
X136635000Y-101250000D01*
X136635000Y-101250000D02*
X136885000Y-101250000D01*
X136635000Y-108750000D02*
X127635000Y-108750000D01*
X136635000Y-108750000D02*
X136885000Y-108750000D01*
X136885000Y-101250000D02*
X136885000Y-101500000D01*
X136885000Y-101500000D02*
X136885000Y-108500000D01*
X136885000Y-108750000D02*
X136885000Y-108500000D01*
%TO.C,Q1*%
X145450000Y-73990000D02*
X150510000Y-74000000D01*
X145450000Y-74000000D02*
X145450000Y-68540000D01*
X150510000Y-68540000D02*
X145450000Y-68540000D01*
X150510000Y-68540000D02*
X150510000Y-74000000D01*
%TO.C,AND Input B*%
X138750000Y-101250000D02*
X139000000Y-101250000D01*
X138750000Y-101500000D02*
X138750000Y-101250000D01*
X138750000Y-108500000D02*
X138750000Y-101500000D01*
X138750000Y-108500000D02*
X138750000Y-108750000D01*
X138750000Y-108750000D02*
X139000000Y-108750000D01*
X139000000Y-101250000D02*
X148000000Y-101250000D01*
X148000000Y-101250000D02*
X148250000Y-101250000D01*
X148000000Y-108750000D02*
X139000000Y-108750000D01*
X148000000Y-108750000D02*
X148250000Y-108750000D01*
X148250000Y-101250000D02*
X148250000Y-101500000D01*
X148250000Y-101500000D02*
X148250000Y-108500000D01*
X148250000Y-108750000D02*
X148250000Y-108500000D01*
%TO.C,NOT Input*%
X150000000Y-101250000D02*
X150250000Y-101250000D01*
X150000000Y-101500000D02*
X150000000Y-101250000D01*
X150000000Y-108500000D02*
X150000000Y-101500000D01*
X150000000Y-108500000D02*
X150000000Y-108750000D01*
X150000000Y-108750000D02*
X150250000Y-108750000D01*
X150250000Y-101250000D02*
X159250000Y-101250000D01*
X159250000Y-101250000D02*
X159500000Y-101250000D01*
X159250000Y-108750000D02*
X150250000Y-108750000D01*
X159250000Y-108750000D02*
X159500000Y-108750000D01*
X159500000Y-101250000D02*
X159500000Y-101500000D01*
X159500000Y-101500000D02*
X159500000Y-108500000D01*
X159500000Y-108750000D02*
X159500000Y-108500000D01*
%TO.C,AND Output*%
X142790000Y-88790000D02*
X142790000Y-95210000D01*
X142790000Y-95210000D02*
X149220000Y-95210000D01*
X149220000Y-88790000D02*
X142790000Y-88790000D01*
X149220000Y-95210000D02*
X149220000Y-88790000D01*
%TO.C,Q2*%
X152950000Y-74030000D02*
X158010000Y-74040000D01*
X152950000Y-74040000D02*
X152950000Y-68580000D01*
X158010000Y-68580000D02*
X152950000Y-68580000D01*
X158010000Y-68580000D02*
X158010000Y-74040000D01*
%TO.C,NOT Output*%
X152290000Y-88790000D02*
X152290000Y-95210000D01*
X152290000Y-95210000D02*
X158720000Y-95210000D01*
X158720000Y-88790000D02*
X152290000Y-88790000D01*
X158720000Y-95210000D02*
X158720000Y-88790000D01*
%TD*%
M02*
