%TF.GenerationSoftware,KiCad,Pcbnew,9.0.0*%
%TF.CreationDate,2025-04-12T09:18:09+08:00*%
%TF.ProjectId,computer,636f6d70-7574-4657-922e-6b696361645f,rev?*%
%TF.SameCoordinates,Original*%
%TF.FileFunction,Copper,L1,Top*%
%TF.FilePolarity,Positive*%
%FSLAX46Y46*%
G04 Gerber Fmt 4.6, Leading zero omitted, Abs format (unit mm)*
G04 Created by KiCad (PCBNEW 9.0.0) date 2025-04-12 09:18:09*
%MOMM*%
%LPD*%
G01*
G04 APERTURE LIST*
%TA.AperFunction,ComponentPad*%
%ADD10R,1.300000X1.300000*%
%TD*%
%TA.AperFunction,ComponentPad*%
%ADD11C,1.300000*%
%TD*%
%TA.AperFunction,ComponentPad*%
%ADD12R,1.800000X1.800000*%
%TD*%
%TA.AperFunction,ComponentPad*%
%ADD13C,1.800000*%
%TD*%
%TA.AperFunction,SMDPad,CuDef*%
%ADD14R,5.000000X5.000000*%
%TD*%
%TA.AperFunction,SMDPad,CuDef*%
%ADD15R,4.000000X4.000000*%
%TD*%
%TA.AperFunction,ComponentPad*%
%ADD16C,2.000000*%
%TD*%
%TA.AperFunction,Conductor*%
%ADD17C,0.200000*%
%TD*%
G04 APERTURE END LIST*
D10*
%TO.P,Q3,1,C*%
%TO.N,Net-(D1-K)*%
X152500000Y-81000000D03*
D11*
%TO.P,Q3,2,B*%
%TO.N,Net-(Q3-B)*%
X151230000Y-79730000D03*
%TO.P,Q3,3,E*%
%TO.N,Net-(BT1--)*%
X152500000Y-78460000D03*
%TD*%
D12*
%TO.P,Power,1,K*%
%TO.N,Net-(BT1--)*%
X117960000Y-98000000D03*
D13*
%TO.P,Power,2,A*%
%TO.N,Net-(BT1-+)*%
X120500000Y-98000000D03*
%TD*%
D14*
%TO.P,Battery,1,+*%
%TO.N,Net-(BT1-+)*%
X129500000Y-94500000D03*
X129500000Y-68600000D03*
D15*
%TO.P,Battery,2,-*%
%TO.N,Net-(BT1--)*%
X129500000Y-81550000D03*
%TD*%
D16*
%TO.P,AND Input A,1,1*%
%TO.N,Net-(BT1-+)*%
X128885000Y-102750000D03*
X135385000Y-102750000D03*
%TO.P,AND Input A,2,2*%
%TO.N,Net-(Q2-B)*%
X128885000Y-107250000D03*
X135385000Y-107250000D03*
%TD*%
D10*
%TO.P,Q1,1,C*%
%TO.N,Net-(Q1-C)*%
X148500000Y-72540000D03*
D11*
%TO.P,Q1,2,B*%
%TO.N,Net-(Q1-B)*%
X147230000Y-71270000D03*
%TO.P,Q1,3,E*%
%TO.N,Net-(BT1--)*%
X148500000Y-70000000D03*
%TD*%
D16*
%TO.P,AND Input B,1,1*%
%TO.N,Net-(BT1-+)*%
X140250000Y-102750000D03*
X146750000Y-102750000D03*
%TO.P,AND Input B,2,2*%
%TO.N,Net-(Q1-B)*%
X140250000Y-107250000D03*
X146750000Y-107250000D03*
%TD*%
%TO.P,NOT Input,1,1*%
%TO.N,Net-(Q3-B)*%
X151500000Y-102750000D03*
X158000000Y-102750000D03*
%TO.P,NOT Input,2,2*%
%TO.N,Net-(BT1-+)*%
X151500000Y-107250000D03*
X158000000Y-107250000D03*
%TD*%
D12*
%TO.P,AND Output,1,K*%
%TO.N,Net-(D2-K)*%
X144730000Y-92000000D03*
D13*
%TO.P,AND Output,2,A*%
%TO.N,Net-(BT1-+)*%
X147270000Y-92000000D03*
%TD*%
D10*
%TO.P,Q2,1,C*%
%TO.N,Net-(D2-K)*%
X156000000Y-72580000D03*
D11*
%TO.P,Q2,2,B*%
%TO.N,Net-(Q2-B)*%
X154730000Y-71310000D03*
%TO.P,Q2,3,E*%
%TO.N,Net-(Q1-C)*%
X156000000Y-70040000D03*
%TD*%
D12*
%TO.P,NOT Output,1,K*%
%TO.N,Net-(D1-K)*%
X154230000Y-92000000D03*
D13*
%TO.P,NOT Output,2,A*%
%TO.N,Net-(BT1-+)*%
X156770000Y-92000000D03*
%TD*%
D17*
%TO.N,Net-(BT1--)*%
X152500000Y-78460000D02*
X156951000Y-74009000D01*
X141961000Y-69089000D02*
X129500000Y-81550000D01*
X141050000Y-70000000D02*
X129500000Y-81550000D01*
X156951000Y-74009000D02*
X156951000Y-69646082D01*
X148500000Y-70000000D02*
X141050000Y-70000000D01*
X117960000Y-93090000D02*
X129500000Y-81550000D01*
X117960000Y-98000000D02*
X117960000Y-93090000D01*
X156951000Y-69646082D02*
X156393918Y-69089000D01*
X156393918Y-69089000D02*
X141961000Y-69089000D01*
%TO.N,Net-(BT1-+)*%
X120500000Y-98000000D02*
X124000000Y-94500000D01*
X124000000Y-94500000D02*
X129500000Y-94500000D01*
X156472018Y-68600000D02*
X129500000Y-68600000D01*
X147270000Y-92000000D02*
X148000000Y-92730000D01*
X148000000Y-101500000D02*
X146750000Y-102750000D01*
X151500000Y-107250000D02*
X149397000Y-109353000D01*
X149397000Y-109353000D02*
X135081008Y-109353000D01*
X135081008Y-109353000D02*
X129500000Y-103771992D01*
X129500000Y-102135000D02*
X128885000Y-102750000D01*
X129500000Y-94500000D02*
X127199000Y-92199000D01*
X148000000Y-92730000D02*
X148000000Y-101500000D01*
X129500000Y-94500000D02*
X129500000Y-102135000D01*
X129500000Y-103771992D02*
X129500000Y-94500000D01*
X156770000Y-92000000D02*
X157352000Y-91418000D01*
X135385000Y-102750000D02*
X140250000Y-102750000D01*
X127199000Y-70901000D02*
X129500000Y-68600000D01*
X157352000Y-91418000D02*
X157352000Y-69479982D01*
X157352000Y-69479982D02*
X156472018Y-68600000D01*
%TO.N,Net-(D1-K)*%
X154230000Y-82730000D02*
X152500000Y-81000000D01*
X154230000Y-92000000D02*
X154230000Y-82730000D01*
%TO.N,Net-(D2-K)*%
X147454992Y-108952000D02*
X150199000Y-106207992D01*
X135247108Y-108952000D02*
X147454992Y-108952000D01*
X150199000Y-78381000D02*
X156000000Y-72580000D01*
X134846108Y-105949000D02*
X134084000Y-106711108D01*
X144730000Y-102569892D02*
X141350892Y-105949000D01*
X134084000Y-106711108D02*
X134084000Y-107788892D01*
X141350892Y-105949000D02*
X134846108Y-105949000D01*
X150199000Y-106207992D02*
X150199000Y-78381000D01*
X134084000Y-107788892D02*
X135247108Y-108952000D01*
X144730000Y-92000000D02*
X144730000Y-102569892D01*
%TO.N,Net-(Q1-B)*%
X147230000Y-90261529D02*
X147230000Y-71270000D01*
X148471000Y-105529000D02*
X148471000Y-91502529D01*
X146750000Y-107250000D02*
X148471000Y-105529000D01*
X148471000Y-91502529D02*
X147230000Y-90261529D01*
%TO.N,Net-(Q1-C)*%
X151000000Y-70040000D02*
X156000000Y-70040000D01*
X148500000Y-72540000D02*
X151000000Y-70040000D01*
%TO.N,Net-(Q2-B)*%
X136686000Y-108551000D02*
X135385000Y-107250000D01*
X147288892Y-108551000D02*
X136686000Y-108551000D01*
X149451000Y-106388892D02*
X147288892Y-108551000D01*
X154730000Y-71310000D02*
X149451000Y-76589000D01*
X149451000Y-76589000D02*
X149451000Y-106388892D01*
%TO.N,Net-(Q3-B)*%
X151230000Y-79730000D02*
X151500000Y-80000000D01*
X151500000Y-80000000D02*
X151500000Y-102750000D01*
%TD*%
M02*
