%TF.GenerationSoftware,KiCad,Pcbnew,9.0.0*%
%TF.CreationDate,2025-04-16T19:40:10+08:00*%
%TF.ProjectId,computer,636f6d70-7574-4657-922e-6b696361645f,rev?*%
%TF.SameCoordinates,Original*%
%TF.FileFunction,Legend,Top*%
%TF.FilePolarity,Positive*%
%FSLAX46Y46*%
G04 Gerber Fmt 4.6, Leading zero omitted, Abs format (unit mm)*
G04 Created by KiCad (PCBNEW 9.0.0) date 2025-04-16 19:40:10*
%MOMM*%
%LPD*%
G01*
G04 APERTURE LIST*
%ADD10C,0.125000*%
%ADD11C,0.100000*%
%ADD12C,0.150000*%
%ADD13C,0.200000*%
%ADD14C,0.203200*%
%ADD15C,0.120000*%
%ADD16C,0.000000*%
G04 APERTURE END LIST*
D10*
X110320331Y-99371119D02*
X110320331Y-98371119D01*
X110320331Y-98371119D02*
X110891759Y-99371119D01*
X110891759Y-99371119D02*
X110891759Y-98371119D01*
X111558426Y-98371119D02*
X111748902Y-98371119D01*
X111748902Y-98371119D02*
X111844140Y-98418738D01*
X111844140Y-98418738D02*
X111939378Y-98513976D01*
X111939378Y-98513976D02*
X111986997Y-98704452D01*
X111986997Y-98704452D02*
X111986997Y-99037785D01*
X111986997Y-99037785D02*
X111939378Y-99228261D01*
X111939378Y-99228261D02*
X111844140Y-99323500D01*
X111844140Y-99323500D02*
X111748902Y-99371119D01*
X111748902Y-99371119D02*
X111558426Y-99371119D01*
X111558426Y-99371119D02*
X111463188Y-99323500D01*
X111463188Y-99323500D02*
X111367950Y-99228261D01*
X111367950Y-99228261D02*
X111320331Y-99037785D01*
X111320331Y-99037785D02*
X111320331Y-98704452D01*
X111320331Y-98704452D02*
X111367950Y-98513976D01*
X111367950Y-98513976D02*
X111463188Y-98418738D01*
X111463188Y-98418738D02*
X111558426Y-98371119D01*
X112272712Y-98371119D02*
X112844140Y-98371119D01*
X112558426Y-99371119D02*
X112558426Y-98371119D01*
X110844140Y-90918738D02*
X110748902Y-90871119D01*
X110748902Y-90871119D02*
X110606045Y-90871119D01*
X110606045Y-90871119D02*
X110463188Y-90918738D01*
X110463188Y-90918738D02*
X110367950Y-91013976D01*
X110367950Y-91013976D02*
X110320331Y-91109214D01*
X110320331Y-91109214D02*
X110272712Y-91299690D01*
X110272712Y-91299690D02*
X110272712Y-91442547D01*
X110272712Y-91442547D02*
X110320331Y-91633023D01*
X110320331Y-91633023D02*
X110367950Y-91728261D01*
X110367950Y-91728261D02*
X110463188Y-91823500D01*
X110463188Y-91823500D02*
X110606045Y-91871119D01*
X110606045Y-91871119D02*
X110701283Y-91871119D01*
X110701283Y-91871119D02*
X110844140Y-91823500D01*
X110844140Y-91823500D02*
X110891759Y-91775880D01*
X110891759Y-91775880D02*
X110891759Y-91442547D01*
X110891759Y-91442547D02*
X110701283Y-91442547D01*
X111320331Y-91871119D02*
X111320331Y-90871119D01*
X111320331Y-90871119D02*
X111891759Y-91871119D01*
X111891759Y-91871119D02*
X111891759Y-90871119D01*
X112367950Y-91871119D02*
X112367950Y-90871119D01*
X112367950Y-90871119D02*
X112606045Y-90871119D01*
X112606045Y-90871119D02*
X112748902Y-90918738D01*
X112748902Y-90918738D02*
X112844140Y-91013976D01*
X112844140Y-91013976D02*
X112891759Y-91109214D01*
X112891759Y-91109214D02*
X112939378Y-91299690D01*
X112939378Y-91299690D02*
X112939378Y-91442547D01*
X112939378Y-91442547D02*
X112891759Y-91633023D01*
X112891759Y-91633023D02*
X112844140Y-91728261D01*
X112844140Y-91728261D02*
X112748902Y-91823500D01*
X112748902Y-91823500D02*
X112606045Y-91871119D01*
X112606045Y-91871119D02*
X112367950Y-91871119D01*
X110320331Y-93990166D02*
X111082236Y-93990166D01*
X110701283Y-94371119D02*
X110701283Y-93609214D01*
X111463188Y-93371119D02*
X112082235Y-93371119D01*
X112082235Y-93371119D02*
X111748902Y-93752071D01*
X111748902Y-93752071D02*
X111891759Y-93752071D01*
X111891759Y-93752071D02*
X111986997Y-93799690D01*
X111986997Y-93799690D02*
X112034616Y-93847309D01*
X112034616Y-93847309D02*
X112082235Y-93942547D01*
X112082235Y-93942547D02*
X112082235Y-94180642D01*
X112082235Y-94180642D02*
X112034616Y-94275880D01*
X112034616Y-94275880D02*
X111986997Y-94323500D01*
X111986997Y-94323500D02*
X111891759Y-94371119D01*
X111891759Y-94371119D02*
X111606045Y-94371119D01*
X111606045Y-94371119D02*
X111510807Y-94323500D01*
X111510807Y-94323500D02*
X111463188Y-94275880D01*
X112367950Y-93371119D02*
X112701283Y-94371119D01*
X112701283Y-94371119D02*
X113034616Y-93371119D01*
D11*
X143500000Y-68000000D02*
X160000000Y-68000000D01*
X160000000Y-74500000D01*
X143500000Y-74500000D01*
X143500000Y-68000000D01*
X143000000Y-65641522D02*
X160500000Y-65641522D01*
X160500000Y-83641522D01*
X143000000Y-83641522D01*
X143000000Y-65641522D01*
X147500000Y-76480000D02*
X156500000Y-76480000D01*
X156500000Y-82980000D01*
X147500000Y-82980000D01*
X147500000Y-76480000D01*
D12*
X148836779Y-76099819D02*
X148836779Y-75099819D01*
X148836779Y-75099819D02*
X149408207Y-76099819D01*
X149408207Y-76099819D02*
X149408207Y-75099819D01*
X150074874Y-75099819D02*
X150265350Y-75099819D01*
X150265350Y-75099819D02*
X150360588Y-75147438D01*
X150360588Y-75147438D02*
X150455826Y-75242676D01*
X150455826Y-75242676D02*
X150503445Y-75433152D01*
X150503445Y-75433152D02*
X150503445Y-75766485D01*
X150503445Y-75766485D02*
X150455826Y-75956961D01*
X150455826Y-75956961D02*
X150360588Y-76052200D01*
X150360588Y-76052200D02*
X150265350Y-76099819D01*
X150265350Y-76099819D02*
X150074874Y-76099819D01*
X150074874Y-76099819D02*
X149979636Y-76052200D01*
X149979636Y-76052200D02*
X149884398Y-75956961D01*
X149884398Y-75956961D02*
X149836779Y-75766485D01*
X149836779Y-75766485D02*
X149836779Y-75433152D01*
X149836779Y-75433152D02*
X149884398Y-75242676D01*
X149884398Y-75242676D02*
X149979636Y-75147438D01*
X149979636Y-75147438D02*
X150074874Y-75099819D01*
X150789160Y-75099819D02*
X151360588Y-75099819D01*
X151074874Y-76099819D02*
X151074874Y-75099819D01*
X152979636Y-75147438D02*
X152884398Y-75099819D01*
X152884398Y-75099819D02*
X152741541Y-75099819D01*
X152741541Y-75099819D02*
X152598684Y-75147438D01*
X152598684Y-75147438D02*
X152503446Y-75242676D01*
X152503446Y-75242676D02*
X152455827Y-75337914D01*
X152455827Y-75337914D02*
X152408208Y-75528390D01*
X152408208Y-75528390D02*
X152408208Y-75671247D01*
X152408208Y-75671247D02*
X152455827Y-75861723D01*
X152455827Y-75861723D02*
X152503446Y-75956961D01*
X152503446Y-75956961D02*
X152598684Y-76052200D01*
X152598684Y-76052200D02*
X152741541Y-76099819D01*
X152741541Y-76099819D02*
X152836779Y-76099819D01*
X152836779Y-76099819D02*
X152979636Y-76052200D01*
X152979636Y-76052200D02*
X153027255Y-76004580D01*
X153027255Y-76004580D02*
X153027255Y-75671247D01*
X153027255Y-75671247D02*
X152836779Y-75671247D01*
X153884398Y-76099819D02*
X153884398Y-75576009D01*
X153884398Y-75576009D02*
X153836779Y-75480771D01*
X153836779Y-75480771D02*
X153741541Y-75433152D01*
X153741541Y-75433152D02*
X153551065Y-75433152D01*
X153551065Y-75433152D02*
X153455827Y-75480771D01*
X153884398Y-76052200D02*
X153789160Y-76099819D01*
X153789160Y-76099819D02*
X153551065Y-76099819D01*
X153551065Y-76099819D02*
X153455827Y-76052200D01*
X153455827Y-76052200D02*
X153408208Y-75956961D01*
X153408208Y-75956961D02*
X153408208Y-75861723D01*
X153408208Y-75861723D02*
X153455827Y-75766485D01*
X153455827Y-75766485D02*
X153551065Y-75718866D01*
X153551065Y-75718866D02*
X153789160Y-75718866D01*
X153789160Y-75718866D02*
X153884398Y-75671247D01*
X154217732Y-75433152D02*
X154598684Y-75433152D01*
X154360589Y-75099819D02*
X154360589Y-75956961D01*
X154360589Y-75956961D02*
X154408208Y-76052200D01*
X154408208Y-76052200D02*
X154503446Y-76099819D01*
X154503446Y-76099819D02*
X154598684Y-76099819D01*
X155312970Y-76052200D02*
X155217732Y-76099819D01*
X155217732Y-76099819D02*
X155027256Y-76099819D01*
X155027256Y-76099819D02*
X154932018Y-76052200D01*
X154932018Y-76052200D02*
X154884399Y-75956961D01*
X154884399Y-75956961D02*
X154884399Y-75576009D01*
X154884399Y-75576009D02*
X154932018Y-75480771D01*
X154932018Y-75480771D02*
X155027256Y-75433152D01*
X155027256Y-75433152D02*
X155217732Y-75433152D01*
X155217732Y-75433152D02*
X155312970Y-75480771D01*
X155312970Y-75480771D02*
X155360589Y-75576009D01*
X155360589Y-75576009D02*
X155360589Y-75671247D01*
X155360589Y-75671247D02*
X154884399Y-75766485D01*
X148789160Y-67084104D02*
X149265350Y-67084104D01*
X148693922Y-67369819D02*
X149027255Y-66369819D01*
X149027255Y-66369819D02*
X149360588Y-67369819D01*
X149693922Y-67369819D02*
X149693922Y-66369819D01*
X149693922Y-66369819D02*
X150265350Y-67369819D01*
X150265350Y-67369819D02*
X150265350Y-66369819D01*
X150741541Y-67369819D02*
X150741541Y-66369819D01*
X150741541Y-66369819D02*
X150979636Y-66369819D01*
X150979636Y-66369819D02*
X151122493Y-66417438D01*
X151122493Y-66417438D02*
X151217731Y-66512676D01*
X151217731Y-66512676D02*
X151265350Y-66607914D01*
X151265350Y-66607914D02*
X151312969Y-66798390D01*
X151312969Y-66798390D02*
X151312969Y-66941247D01*
X151312969Y-66941247D02*
X151265350Y-67131723D01*
X151265350Y-67131723D02*
X151217731Y-67226961D01*
X151217731Y-67226961D02*
X151122493Y-67322200D01*
X151122493Y-67322200D02*
X150979636Y-67369819D01*
X150979636Y-67369819D02*
X150741541Y-67369819D01*
X153027255Y-66417438D02*
X152932017Y-66369819D01*
X152932017Y-66369819D02*
X152789160Y-66369819D01*
X152789160Y-66369819D02*
X152646303Y-66417438D01*
X152646303Y-66417438D02*
X152551065Y-66512676D01*
X152551065Y-66512676D02*
X152503446Y-66607914D01*
X152503446Y-66607914D02*
X152455827Y-66798390D01*
X152455827Y-66798390D02*
X152455827Y-66941247D01*
X152455827Y-66941247D02*
X152503446Y-67131723D01*
X152503446Y-67131723D02*
X152551065Y-67226961D01*
X152551065Y-67226961D02*
X152646303Y-67322200D01*
X152646303Y-67322200D02*
X152789160Y-67369819D01*
X152789160Y-67369819D02*
X152884398Y-67369819D01*
X152884398Y-67369819D02*
X153027255Y-67322200D01*
X153027255Y-67322200D02*
X153074874Y-67274580D01*
X153074874Y-67274580D02*
X153074874Y-66941247D01*
X153074874Y-66941247D02*
X152884398Y-66941247D01*
X153932017Y-67369819D02*
X153932017Y-66846009D01*
X153932017Y-66846009D02*
X153884398Y-66750771D01*
X153884398Y-66750771D02*
X153789160Y-66703152D01*
X153789160Y-66703152D02*
X153598684Y-66703152D01*
X153598684Y-66703152D02*
X153503446Y-66750771D01*
X153932017Y-67322200D02*
X153836779Y-67369819D01*
X153836779Y-67369819D02*
X153598684Y-67369819D01*
X153598684Y-67369819D02*
X153503446Y-67322200D01*
X153503446Y-67322200D02*
X153455827Y-67226961D01*
X153455827Y-67226961D02*
X153455827Y-67131723D01*
X153455827Y-67131723D02*
X153503446Y-67036485D01*
X153503446Y-67036485D02*
X153598684Y-66988866D01*
X153598684Y-66988866D02*
X153836779Y-66988866D01*
X153836779Y-66988866D02*
X153932017Y-66941247D01*
X154265351Y-66703152D02*
X154646303Y-66703152D01*
X154408208Y-66369819D02*
X154408208Y-67226961D01*
X154408208Y-67226961D02*
X154455827Y-67322200D01*
X154455827Y-67322200D02*
X154551065Y-67369819D01*
X154551065Y-67369819D02*
X154646303Y-67369819D01*
X155360589Y-67322200D02*
X155265351Y-67369819D01*
X155265351Y-67369819D02*
X155074875Y-67369819D01*
X155074875Y-67369819D02*
X154979637Y-67322200D01*
X154979637Y-67322200D02*
X154932018Y-67226961D01*
X154932018Y-67226961D02*
X154932018Y-66846009D01*
X154932018Y-66846009D02*
X154979637Y-66750771D01*
X154979637Y-66750771D02*
X155074875Y-66703152D01*
X155074875Y-66703152D02*
X155265351Y-66703152D01*
X155265351Y-66703152D02*
X155360589Y-66750771D01*
X155360589Y-66750771D02*
X155408208Y-66846009D01*
X155408208Y-66846009D02*
X155408208Y-66941247D01*
X155408208Y-66941247D02*
X154932018Y-67036485D01*
D10*
X110272712Y-96585404D02*
X110748902Y-96585404D01*
X110177474Y-96871119D02*
X110510807Y-95871119D01*
X110510807Y-95871119D02*
X110844140Y-96871119D01*
X111177474Y-96871119D02*
X111177474Y-95871119D01*
X111177474Y-95871119D02*
X111748902Y-96871119D01*
X111748902Y-96871119D02*
X111748902Y-95871119D01*
X112225093Y-96871119D02*
X112225093Y-95871119D01*
X112225093Y-95871119D02*
X112463188Y-95871119D01*
X112463188Y-95871119D02*
X112606045Y-95918738D01*
X112606045Y-95918738D02*
X112701283Y-96013976D01*
X112701283Y-96013976D02*
X112748902Y-96109214D01*
X112748902Y-96109214D02*
X112796521Y-96299690D01*
X112796521Y-96299690D02*
X112796521Y-96442547D01*
X112796521Y-96442547D02*
X112748902Y-96633023D01*
X112748902Y-96633023D02*
X112701283Y-96728261D01*
X112701283Y-96728261D02*
X112606045Y-96823500D01*
X112606045Y-96823500D02*
X112463188Y-96871119D01*
X112463188Y-96871119D02*
X112225093Y-96871119D01*
D13*
X148869673Y-64867219D02*
X148869673Y-63867219D01*
X148869673Y-63867219D02*
X149250625Y-63867219D01*
X149250625Y-63867219D02*
X149345863Y-63914838D01*
X149345863Y-63914838D02*
X149393482Y-63962457D01*
X149393482Y-63962457D02*
X149441101Y-64057695D01*
X149441101Y-64057695D02*
X149441101Y-64200552D01*
X149441101Y-64200552D02*
X149393482Y-64295790D01*
X149393482Y-64295790D02*
X149345863Y-64343409D01*
X149345863Y-64343409D02*
X149250625Y-64391028D01*
X149250625Y-64391028D02*
X148869673Y-64391028D01*
X149869673Y-64867219D02*
X149869673Y-64200552D01*
X149869673Y-64391028D02*
X149917292Y-64295790D01*
X149917292Y-64295790D02*
X149964911Y-64248171D01*
X149964911Y-64248171D02*
X150060149Y-64200552D01*
X150060149Y-64200552D02*
X150155387Y-64200552D01*
X150631578Y-64867219D02*
X150536340Y-64819600D01*
X150536340Y-64819600D02*
X150488721Y-64771980D01*
X150488721Y-64771980D02*
X150441102Y-64676742D01*
X150441102Y-64676742D02*
X150441102Y-64391028D01*
X150441102Y-64391028D02*
X150488721Y-64295790D01*
X150488721Y-64295790D02*
X150536340Y-64248171D01*
X150536340Y-64248171D02*
X150631578Y-64200552D01*
X150631578Y-64200552D02*
X150774435Y-64200552D01*
X150774435Y-64200552D02*
X150869673Y-64248171D01*
X150869673Y-64248171D02*
X150917292Y-64295790D01*
X150917292Y-64295790D02*
X150964911Y-64391028D01*
X150964911Y-64391028D02*
X150964911Y-64676742D01*
X150964911Y-64676742D02*
X150917292Y-64771980D01*
X150917292Y-64771980D02*
X150869673Y-64819600D01*
X150869673Y-64819600D02*
X150774435Y-64867219D01*
X150774435Y-64867219D02*
X150631578Y-64867219D01*
X151822054Y-64819600D02*
X151726816Y-64867219D01*
X151726816Y-64867219D02*
X151536340Y-64867219D01*
X151536340Y-64867219D02*
X151441102Y-64819600D01*
X151441102Y-64819600D02*
X151393483Y-64771980D01*
X151393483Y-64771980D02*
X151345864Y-64676742D01*
X151345864Y-64676742D02*
X151345864Y-64391028D01*
X151345864Y-64391028D02*
X151393483Y-64295790D01*
X151393483Y-64295790D02*
X151441102Y-64248171D01*
X151441102Y-64248171D02*
X151536340Y-64200552D01*
X151536340Y-64200552D02*
X151726816Y-64200552D01*
X151726816Y-64200552D02*
X151822054Y-64248171D01*
X152631578Y-64819600D02*
X152536340Y-64867219D01*
X152536340Y-64867219D02*
X152345864Y-64867219D01*
X152345864Y-64867219D02*
X152250626Y-64819600D01*
X152250626Y-64819600D02*
X152203007Y-64724361D01*
X152203007Y-64724361D02*
X152203007Y-64343409D01*
X152203007Y-64343409D02*
X152250626Y-64248171D01*
X152250626Y-64248171D02*
X152345864Y-64200552D01*
X152345864Y-64200552D02*
X152536340Y-64200552D01*
X152536340Y-64200552D02*
X152631578Y-64248171D01*
X152631578Y-64248171D02*
X152679197Y-64343409D01*
X152679197Y-64343409D02*
X152679197Y-64438647D01*
X152679197Y-64438647D02*
X152203007Y-64533885D01*
X153060150Y-64819600D02*
X153155388Y-64867219D01*
X153155388Y-64867219D02*
X153345864Y-64867219D01*
X153345864Y-64867219D02*
X153441102Y-64819600D01*
X153441102Y-64819600D02*
X153488721Y-64724361D01*
X153488721Y-64724361D02*
X153488721Y-64676742D01*
X153488721Y-64676742D02*
X153441102Y-64581504D01*
X153441102Y-64581504D02*
X153345864Y-64533885D01*
X153345864Y-64533885D02*
X153203007Y-64533885D01*
X153203007Y-64533885D02*
X153107769Y-64486266D01*
X153107769Y-64486266D02*
X153060150Y-64391028D01*
X153060150Y-64391028D02*
X153060150Y-64343409D01*
X153060150Y-64343409D02*
X153107769Y-64248171D01*
X153107769Y-64248171D02*
X153203007Y-64200552D01*
X153203007Y-64200552D02*
X153345864Y-64200552D01*
X153345864Y-64200552D02*
X153441102Y-64248171D01*
X153869674Y-64819600D02*
X153964912Y-64867219D01*
X153964912Y-64867219D02*
X154155388Y-64867219D01*
X154155388Y-64867219D02*
X154250626Y-64819600D01*
X154250626Y-64819600D02*
X154298245Y-64724361D01*
X154298245Y-64724361D02*
X154298245Y-64676742D01*
X154298245Y-64676742D02*
X154250626Y-64581504D01*
X154250626Y-64581504D02*
X154155388Y-64533885D01*
X154155388Y-64533885D02*
X154012531Y-64533885D01*
X154012531Y-64533885D02*
X153917293Y-64486266D01*
X153917293Y-64486266D02*
X153869674Y-64391028D01*
X153869674Y-64391028D02*
X153869674Y-64343409D01*
X153869674Y-64343409D02*
X153917293Y-64248171D01*
X153917293Y-64248171D02*
X154012531Y-64200552D01*
X154012531Y-64200552D02*
X154155388Y-64200552D01*
X154155388Y-64200552D02*
X154250626Y-64248171D01*
X154869674Y-64867219D02*
X154774436Y-64819600D01*
X154774436Y-64819600D02*
X154726817Y-64771980D01*
X154726817Y-64771980D02*
X154679198Y-64676742D01*
X154679198Y-64676742D02*
X154679198Y-64391028D01*
X154679198Y-64391028D02*
X154726817Y-64295790D01*
X154726817Y-64295790D02*
X154774436Y-64248171D01*
X154774436Y-64248171D02*
X154869674Y-64200552D01*
X154869674Y-64200552D02*
X155012531Y-64200552D01*
X155012531Y-64200552D02*
X155107769Y-64248171D01*
X155107769Y-64248171D02*
X155155388Y-64295790D01*
X155155388Y-64295790D02*
X155203007Y-64391028D01*
X155203007Y-64391028D02*
X155203007Y-64676742D01*
X155203007Y-64676742D02*
X155155388Y-64771980D01*
X155155388Y-64771980D02*
X155107769Y-64819600D01*
X155107769Y-64819600D02*
X155012531Y-64867219D01*
X155012531Y-64867219D02*
X154869674Y-64867219D01*
X155631579Y-64867219D02*
X155631579Y-64200552D01*
X155631579Y-64391028D02*
X155679198Y-64295790D01*
X155679198Y-64295790D02*
X155726817Y-64248171D01*
X155726817Y-64248171D02*
X155822055Y-64200552D01*
X155822055Y-64200552D02*
X155917293Y-64200552D01*
D14*
X111375588Y-105593687D02*
X111375588Y-104577687D01*
X111375588Y-104577687D02*
X111956160Y-105593687D01*
X111956160Y-105593687D02*
X111956160Y-104577687D01*
X112439969Y-105593687D02*
X112439969Y-104916354D01*
X112439969Y-104577687D02*
X112391588Y-104626068D01*
X112391588Y-104626068D02*
X112439969Y-104674449D01*
X112439969Y-104674449D02*
X112488350Y-104626068D01*
X112488350Y-104626068D02*
X112439969Y-104577687D01*
X112439969Y-104577687D02*
X112439969Y-104674449D01*
X113359208Y-105545307D02*
X113262446Y-105593687D01*
X113262446Y-105593687D02*
X113068922Y-105593687D01*
X113068922Y-105593687D02*
X112972160Y-105545307D01*
X112972160Y-105545307D02*
X112923779Y-105496926D01*
X112923779Y-105496926D02*
X112875398Y-105400164D01*
X112875398Y-105400164D02*
X112875398Y-105109878D01*
X112875398Y-105109878D02*
X112923779Y-105013116D01*
X112923779Y-105013116D02*
X112972160Y-104964735D01*
X112972160Y-104964735D02*
X113068922Y-104916354D01*
X113068922Y-104916354D02*
X113262446Y-104916354D01*
X113262446Y-104916354D02*
X113359208Y-104964735D01*
X113794636Y-105593687D02*
X113794636Y-104577687D01*
X114230065Y-105593687D02*
X114230065Y-105061497D01*
X114230065Y-105061497D02*
X114181684Y-104964735D01*
X114181684Y-104964735D02*
X114084922Y-104916354D01*
X114084922Y-104916354D02*
X113939779Y-104916354D01*
X113939779Y-104916354D02*
X113843017Y-104964735D01*
X113843017Y-104964735D02*
X113794636Y-105013116D01*
X114859017Y-105593687D02*
X114762255Y-105545307D01*
X114762255Y-105545307D02*
X114713874Y-105496926D01*
X114713874Y-105496926D02*
X114665493Y-105400164D01*
X114665493Y-105400164D02*
X114665493Y-105109878D01*
X114665493Y-105109878D02*
X114713874Y-105013116D01*
X114713874Y-105013116D02*
X114762255Y-104964735D01*
X114762255Y-104964735D02*
X114859017Y-104916354D01*
X114859017Y-104916354D02*
X115004160Y-104916354D01*
X115004160Y-104916354D02*
X115100922Y-104964735D01*
X115100922Y-104964735D02*
X115149303Y-105013116D01*
X115149303Y-105013116D02*
X115197684Y-105109878D01*
X115197684Y-105109878D02*
X115197684Y-105400164D01*
X115197684Y-105400164D02*
X115149303Y-105496926D01*
X115149303Y-105496926D02*
X115100922Y-105545307D01*
X115100922Y-105545307D02*
X115004160Y-105593687D01*
X115004160Y-105593687D02*
X114859017Y-105593687D01*
X115778255Y-105593687D02*
X115681493Y-105545307D01*
X115681493Y-105545307D02*
X115633112Y-105448545D01*
X115633112Y-105448545D02*
X115633112Y-104577687D01*
X116600731Y-105593687D02*
X116600731Y-105061497D01*
X116600731Y-105061497D02*
X116552350Y-104964735D01*
X116552350Y-104964735D02*
X116455588Y-104916354D01*
X116455588Y-104916354D02*
X116262064Y-104916354D01*
X116262064Y-104916354D02*
X116165302Y-104964735D01*
X116600731Y-105545307D02*
X116503969Y-105593687D01*
X116503969Y-105593687D02*
X116262064Y-105593687D01*
X116262064Y-105593687D02*
X116165302Y-105545307D01*
X116165302Y-105545307D02*
X116116921Y-105448545D01*
X116116921Y-105448545D02*
X116116921Y-105351783D01*
X116116921Y-105351783D02*
X116165302Y-105255021D01*
X116165302Y-105255021D02*
X116262064Y-105206640D01*
X116262064Y-105206640D02*
X116503969Y-105206640D01*
X116503969Y-105206640D02*
X116600731Y-105158259D01*
X117036159Y-105545307D02*
X117132921Y-105593687D01*
X117132921Y-105593687D02*
X117326445Y-105593687D01*
X117326445Y-105593687D02*
X117423207Y-105545307D01*
X117423207Y-105545307D02*
X117471588Y-105448545D01*
X117471588Y-105448545D02*
X117471588Y-105400164D01*
X117471588Y-105400164D02*
X117423207Y-105303402D01*
X117423207Y-105303402D02*
X117326445Y-105255021D01*
X117326445Y-105255021D02*
X117181302Y-105255021D01*
X117181302Y-105255021D02*
X117084540Y-105206640D01*
X117084540Y-105206640D02*
X117036159Y-105109878D01*
X117036159Y-105109878D02*
X117036159Y-105061497D01*
X117036159Y-105061497D02*
X117084540Y-104964735D01*
X117084540Y-104964735D02*
X117181302Y-104916354D01*
X117181302Y-104916354D02*
X117326445Y-104916354D01*
X117326445Y-104916354D02*
X117423207Y-104964735D01*
X117955397Y-104577687D02*
X117858635Y-104771211D01*
X118342445Y-105545307D02*
X118439207Y-105593687D01*
X118439207Y-105593687D02*
X118632731Y-105593687D01*
X118632731Y-105593687D02*
X118729493Y-105545307D01*
X118729493Y-105545307D02*
X118777874Y-105448545D01*
X118777874Y-105448545D02*
X118777874Y-105400164D01*
X118777874Y-105400164D02*
X118729493Y-105303402D01*
X118729493Y-105303402D02*
X118632731Y-105255021D01*
X118632731Y-105255021D02*
X118487588Y-105255021D01*
X118487588Y-105255021D02*
X118390826Y-105206640D01*
X118390826Y-105206640D02*
X118342445Y-105109878D01*
X118342445Y-105109878D02*
X118342445Y-105061497D01*
X118342445Y-105061497D02*
X118390826Y-104964735D01*
X118390826Y-104964735D02*
X118487588Y-104916354D01*
X118487588Y-104916354D02*
X118632731Y-104916354D01*
X118632731Y-104916354D02*
X118729493Y-104964735D01*
X111907779Y-107229390D02*
X111327207Y-107229390D01*
X111617493Y-107229390D02*
X111617493Y-106213390D01*
X111617493Y-106213390D02*
X111520731Y-106358533D01*
X111520731Y-106358533D02*
X111423969Y-106455295D01*
X111423969Y-106455295D02*
X111327207Y-106503676D01*
X112343207Y-106842343D02*
X113117303Y-106842343D01*
X113939779Y-106697200D02*
X114084922Y-106745581D01*
X114084922Y-106745581D02*
X114133303Y-106793962D01*
X114133303Y-106793962D02*
X114181684Y-106890724D01*
X114181684Y-106890724D02*
X114181684Y-107035867D01*
X114181684Y-107035867D02*
X114133303Y-107132629D01*
X114133303Y-107132629D02*
X114084922Y-107181010D01*
X114084922Y-107181010D02*
X113988160Y-107229390D01*
X113988160Y-107229390D02*
X113601112Y-107229390D01*
X113601112Y-107229390D02*
X113601112Y-106213390D01*
X113601112Y-106213390D02*
X113939779Y-106213390D01*
X113939779Y-106213390D02*
X114036541Y-106261771D01*
X114036541Y-106261771D02*
X114084922Y-106310152D01*
X114084922Y-106310152D02*
X114133303Y-106406914D01*
X114133303Y-106406914D02*
X114133303Y-106503676D01*
X114133303Y-106503676D02*
X114084922Y-106600438D01*
X114084922Y-106600438D02*
X114036541Y-106648819D01*
X114036541Y-106648819D02*
X113939779Y-106697200D01*
X113939779Y-106697200D02*
X113601112Y-106697200D01*
X114617112Y-107229390D02*
X114617112Y-106552057D01*
X114617112Y-106213390D02*
X114568731Y-106261771D01*
X114568731Y-106261771D02*
X114617112Y-106310152D01*
X114617112Y-106310152D02*
X114665493Y-106261771D01*
X114665493Y-106261771D02*
X114617112Y-106213390D01*
X114617112Y-106213390D02*
X114617112Y-106310152D01*
X114955779Y-106552057D02*
X115342827Y-106552057D01*
X115100922Y-106213390D02*
X115100922Y-107084248D01*
X115100922Y-107084248D02*
X115149303Y-107181010D01*
X115149303Y-107181010D02*
X115246065Y-107229390D01*
X115246065Y-107229390D02*
X115342827Y-107229390D01*
X116600731Y-107229390D02*
X116503969Y-107181010D01*
X116503969Y-107181010D02*
X116455588Y-107084248D01*
X116455588Y-107084248D02*
X116455588Y-106213390D01*
X117132921Y-107229390D02*
X117036159Y-107181010D01*
X117036159Y-107181010D02*
X116987778Y-107132629D01*
X116987778Y-107132629D02*
X116939397Y-107035867D01*
X116939397Y-107035867D02*
X116939397Y-106745581D01*
X116939397Y-106745581D02*
X116987778Y-106648819D01*
X116987778Y-106648819D02*
X117036159Y-106600438D01*
X117036159Y-106600438D02*
X117132921Y-106552057D01*
X117132921Y-106552057D02*
X117278064Y-106552057D01*
X117278064Y-106552057D02*
X117374826Y-106600438D01*
X117374826Y-106600438D02*
X117423207Y-106648819D01*
X117423207Y-106648819D02*
X117471588Y-106745581D01*
X117471588Y-106745581D02*
X117471588Y-107035867D01*
X117471588Y-107035867D02*
X117423207Y-107132629D01*
X117423207Y-107132629D02*
X117374826Y-107181010D01*
X117374826Y-107181010D02*
X117278064Y-107229390D01*
X117278064Y-107229390D02*
X117132921Y-107229390D01*
X118342445Y-106552057D02*
X118342445Y-107374533D01*
X118342445Y-107374533D02*
X118294064Y-107471295D01*
X118294064Y-107471295D02*
X118245683Y-107519676D01*
X118245683Y-107519676D02*
X118148921Y-107568057D01*
X118148921Y-107568057D02*
X118003778Y-107568057D01*
X118003778Y-107568057D02*
X117907016Y-107519676D01*
X118342445Y-107181010D02*
X118245683Y-107229390D01*
X118245683Y-107229390D02*
X118052159Y-107229390D01*
X118052159Y-107229390D02*
X117955397Y-107181010D01*
X117955397Y-107181010D02*
X117907016Y-107132629D01*
X117907016Y-107132629D02*
X117858635Y-107035867D01*
X117858635Y-107035867D02*
X117858635Y-106745581D01*
X117858635Y-106745581D02*
X117907016Y-106648819D01*
X117907016Y-106648819D02*
X117955397Y-106600438D01*
X117955397Y-106600438D02*
X118052159Y-106552057D01*
X118052159Y-106552057D02*
X118245683Y-106552057D01*
X118245683Y-106552057D02*
X118342445Y-106600438D01*
X118826254Y-107229390D02*
X118826254Y-106552057D01*
X118826254Y-106213390D02*
X118777873Y-106261771D01*
X118777873Y-106261771D02*
X118826254Y-106310152D01*
X118826254Y-106310152D02*
X118874635Y-106261771D01*
X118874635Y-106261771D02*
X118826254Y-106213390D01*
X118826254Y-106213390D02*
X118826254Y-106310152D01*
X119745493Y-107181010D02*
X119648731Y-107229390D01*
X119648731Y-107229390D02*
X119455207Y-107229390D01*
X119455207Y-107229390D02*
X119358445Y-107181010D01*
X119358445Y-107181010D02*
X119310064Y-107132629D01*
X119310064Y-107132629D02*
X119261683Y-107035867D01*
X119261683Y-107035867D02*
X119261683Y-106745581D01*
X119261683Y-106745581D02*
X119310064Y-106648819D01*
X119310064Y-106648819D02*
X119358445Y-106600438D01*
X119358445Y-106600438D02*
X119455207Y-106552057D01*
X119455207Y-106552057D02*
X119648731Y-106552057D01*
X119648731Y-106552057D02*
X119745493Y-106600438D01*
X111811017Y-108187760D02*
X111811017Y-109010236D01*
X111811017Y-109010236D02*
X111762636Y-109106998D01*
X111762636Y-109106998D02*
X111714255Y-109155379D01*
X111714255Y-109155379D02*
X111617493Y-109203760D01*
X111617493Y-109203760D02*
X111472350Y-109203760D01*
X111472350Y-109203760D02*
X111375588Y-109155379D01*
X111811017Y-108816713D02*
X111714255Y-108865093D01*
X111714255Y-108865093D02*
X111520731Y-108865093D01*
X111520731Y-108865093D02*
X111423969Y-108816713D01*
X111423969Y-108816713D02*
X111375588Y-108768332D01*
X111375588Y-108768332D02*
X111327207Y-108671570D01*
X111327207Y-108671570D02*
X111327207Y-108381284D01*
X111327207Y-108381284D02*
X111375588Y-108284522D01*
X111375588Y-108284522D02*
X111423969Y-108236141D01*
X111423969Y-108236141D02*
X111520731Y-108187760D01*
X111520731Y-108187760D02*
X111714255Y-108187760D01*
X111714255Y-108187760D02*
X111811017Y-108236141D01*
X112730255Y-108865093D02*
X112730255Y-108332903D01*
X112730255Y-108332903D02*
X112681874Y-108236141D01*
X112681874Y-108236141D02*
X112585112Y-108187760D01*
X112585112Y-108187760D02*
X112391588Y-108187760D01*
X112391588Y-108187760D02*
X112294826Y-108236141D01*
X112730255Y-108816713D02*
X112633493Y-108865093D01*
X112633493Y-108865093D02*
X112391588Y-108865093D01*
X112391588Y-108865093D02*
X112294826Y-108816713D01*
X112294826Y-108816713D02*
X112246445Y-108719951D01*
X112246445Y-108719951D02*
X112246445Y-108623189D01*
X112246445Y-108623189D02*
X112294826Y-108526427D01*
X112294826Y-108526427D02*
X112391588Y-108478046D01*
X112391588Y-108478046D02*
X112633493Y-108478046D01*
X112633493Y-108478046D02*
X112730255Y-108429665D01*
X113068921Y-108187760D02*
X113455969Y-108187760D01*
X113214064Y-107849093D02*
X113214064Y-108719951D01*
X113214064Y-108719951D02*
X113262445Y-108816713D01*
X113262445Y-108816713D02*
X113359207Y-108865093D01*
X113359207Y-108865093D02*
X113455969Y-108865093D01*
X114181683Y-108816713D02*
X114084921Y-108865093D01*
X114084921Y-108865093D02*
X113891397Y-108865093D01*
X113891397Y-108865093D02*
X113794635Y-108816713D01*
X113794635Y-108816713D02*
X113746254Y-108719951D01*
X113746254Y-108719951D02*
X113746254Y-108332903D01*
X113746254Y-108332903D02*
X113794635Y-108236141D01*
X113794635Y-108236141D02*
X113891397Y-108187760D01*
X113891397Y-108187760D02*
X114084921Y-108187760D01*
X114084921Y-108187760D02*
X114181683Y-108236141D01*
X114181683Y-108236141D02*
X114230064Y-108332903D01*
X114230064Y-108332903D02*
X114230064Y-108429665D01*
X114230064Y-108429665D02*
X113746254Y-108526427D01*
X115875016Y-108816713D02*
X115778254Y-108865093D01*
X115778254Y-108865093D02*
X115584730Y-108865093D01*
X115584730Y-108865093D02*
X115487968Y-108816713D01*
X115487968Y-108816713D02*
X115439587Y-108768332D01*
X115439587Y-108768332D02*
X115391206Y-108671570D01*
X115391206Y-108671570D02*
X115391206Y-108381284D01*
X115391206Y-108381284D02*
X115439587Y-108284522D01*
X115439587Y-108284522D02*
X115487968Y-108236141D01*
X115487968Y-108236141D02*
X115584730Y-108187760D01*
X115584730Y-108187760D02*
X115778254Y-108187760D01*
X115778254Y-108187760D02*
X115875016Y-108236141D01*
X116455587Y-108865093D02*
X116358825Y-108816713D01*
X116358825Y-108816713D02*
X116310444Y-108768332D01*
X116310444Y-108768332D02*
X116262063Y-108671570D01*
X116262063Y-108671570D02*
X116262063Y-108381284D01*
X116262063Y-108381284D02*
X116310444Y-108284522D01*
X116310444Y-108284522D02*
X116358825Y-108236141D01*
X116358825Y-108236141D02*
X116455587Y-108187760D01*
X116455587Y-108187760D02*
X116600730Y-108187760D01*
X116600730Y-108187760D02*
X116697492Y-108236141D01*
X116697492Y-108236141D02*
X116745873Y-108284522D01*
X116745873Y-108284522D02*
X116794254Y-108381284D01*
X116794254Y-108381284D02*
X116794254Y-108671570D01*
X116794254Y-108671570D02*
X116745873Y-108768332D01*
X116745873Y-108768332D02*
X116697492Y-108816713D01*
X116697492Y-108816713D02*
X116600730Y-108865093D01*
X116600730Y-108865093D02*
X116455587Y-108865093D01*
X117229682Y-108865093D02*
X117229682Y-108187760D01*
X117229682Y-108284522D02*
X117278063Y-108236141D01*
X117278063Y-108236141D02*
X117374825Y-108187760D01*
X117374825Y-108187760D02*
X117519968Y-108187760D01*
X117519968Y-108187760D02*
X117616730Y-108236141D01*
X117616730Y-108236141D02*
X117665111Y-108332903D01*
X117665111Y-108332903D02*
X117665111Y-108865093D01*
X117665111Y-108332903D02*
X117713492Y-108236141D01*
X117713492Y-108236141D02*
X117810254Y-108187760D01*
X117810254Y-108187760D02*
X117955397Y-108187760D01*
X117955397Y-108187760D02*
X118052158Y-108236141D01*
X118052158Y-108236141D02*
X118100539Y-108332903D01*
X118100539Y-108332903D02*
X118100539Y-108865093D01*
X118584349Y-108187760D02*
X118584349Y-109203760D01*
X118584349Y-108236141D02*
X118681111Y-108187760D01*
X118681111Y-108187760D02*
X118874635Y-108187760D01*
X118874635Y-108187760D02*
X118971397Y-108236141D01*
X118971397Y-108236141D02*
X119019778Y-108284522D01*
X119019778Y-108284522D02*
X119068159Y-108381284D01*
X119068159Y-108381284D02*
X119068159Y-108671570D01*
X119068159Y-108671570D02*
X119019778Y-108768332D01*
X119019778Y-108768332D02*
X118971397Y-108816713D01*
X118971397Y-108816713D02*
X118874635Y-108865093D01*
X118874635Y-108865093D02*
X118681111Y-108865093D01*
X118681111Y-108865093D02*
X118584349Y-108816713D01*
X119939016Y-108187760D02*
X119939016Y-108865093D01*
X119503587Y-108187760D02*
X119503587Y-108719951D01*
X119503587Y-108719951D02*
X119551968Y-108816713D01*
X119551968Y-108816713D02*
X119648730Y-108865093D01*
X119648730Y-108865093D02*
X119793873Y-108865093D01*
X119793873Y-108865093D02*
X119890635Y-108816713D01*
X119890635Y-108816713D02*
X119939016Y-108768332D01*
X120277682Y-108187760D02*
X120664730Y-108187760D01*
X120422825Y-107849093D02*
X120422825Y-108719951D01*
X120422825Y-108719951D02*
X120471206Y-108816713D01*
X120471206Y-108816713D02*
X120567968Y-108865093D01*
X120567968Y-108865093D02*
X120664730Y-108865093D01*
X121390444Y-108816713D02*
X121293682Y-108865093D01*
X121293682Y-108865093D02*
X121100158Y-108865093D01*
X121100158Y-108865093D02*
X121003396Y-108816713D01*
X121003396Y-108816713D02*
X120955015Y-108719951D01*
X120955015Y-108719951D02*
X120955015Y-108332903D01*
X120955015Y-108332903D02*
X121003396Y-108236141D01*
X121003396Y-108236141D02*
X121100158Y-108187760D01*
X121100158Y-108187760D02*
X121293682Y-108187760D01*
X121293682Y-108187760D02*
X121390444Y-108236141D01*
X121390444Y-108236141D02*
X121438825Y-108332903D01*
X121438825Y-108332903D02*
X121438825Y-108429665D01*
X121438825Y-108429665D02*
X120955015Y-108526427D01*
X121874253Y-108865093D02*
X121874253Y-108187760D01*
X121874253Y-108381284D02*
X121922634Y-108284522D01*
X121922634Y-108284522D02*
X121971015Y-108236141D01*
X121971015Y-108236141D02*
X122067777Y-108187760D01*
X122067777Y-108187760D02*
X122164539Y-108187760D01*
D12*
X124714285Y-63931009D02*
X124857142Y-63978628D01*
X124857142Y-63978628D02*
X124904761Y-64026247D01*
X124904761Y-64026247D02*
X124952380Y-64121485D01*
X124952380Y-64121485D02*
X124952380Y-64264342D01*
X124952380Y-64264342D02*
X124904761Y-64359580D01*
X124904761Y-64359580D02*
X124857142Y-64407200D01*
X124857142Y-64407200D02*
X124761904Y-64454819D01*
X124761904Y-64454819D02*
X124380952Y-64454819D01*
X124380952Y-64454819D02*
X124380952Y-63454819D01*
X124380952Y-63454819D02*
X124714285Y-63454819D01*
X124714285Y-63454819D02*
X124809523Y-63502438D01*
X124809523Y-63502438D02*
X124857142Y-63550057D01*
X124857142Y-63550057D02*
X124904761Y-63645295D01*
X124904761Y-63645295D02*
X124904761Y-63740533D01*
X124904761Y-63740533D02*
X124857142Y-63835771D01*
X124857142Y-63835771D02*
X124809523Y-63883390D01*
X124809523Y-63883390D02*
X124714285Y-63931009D01*
X124714285Y-63931009D02*
X124380952Y-63931009D01*
X125238095Y-63454819D02*
X125809523Y-63454819D01*
X125523809Y-64454819D02*
X125523809Y-63454819D01*
X126666666Y-64454819D02*
X126095238Y-64454819D01*
X126380952Y-64454819D02*
X126380952Y-63454819D01*
X126380952Y-63454819D02*
X126285714Y-63597676D01*
X126285714Y-63597676D02*
X126190476Y-63692914D01*
X126190476Y-63692914D02*
X126095238Y-63740533D01*
D10*
X149251357Y-79825238D02*
X149203738Y-79920476D01*
X149203738Y-79920476D02*
X149108500Y-80015714D01*
X149108500Y-80015714D02*
X148965642Y-80158571D01*
X148965642Y-80158571D02*
X148918023Y-80253809D01*
X148918023Y-80253809D02*
X148918023Y-80349047D01*
X149156119Y-80301428D02*
X149108500Y-80396666D01*
X149108500Y-80396666D02*
X149013261Y-80491904D01*
X149013261Y-80491904D02*
X148822785Y-80539523D01*
X148822785Y-80539523D02*
X148489452Y-80539523D01*
X148489452Y-80539523D02*
X148298976Y-80491904D01*
X148298976Y-80491904D02*
X148203738Y-80396666D01*
X148203738Y-80396666D02*
X148156119Y-80301428D01*
X148156119Y-80301428D02*
X148156119Y-80110952D01*
X148156119Y-80110952D02*
X148203738Y-80015714D01*
X148203738Y-80015714D02*
X148298976Y-79920476D01*
X148298976Y-79920476D02*
X148489452Y-79872857D01*
X148489452Y-79872857D02*
X148822785Y-79872857D01*
X148822785Y-79872857D02*
X149013261Y-79920476D01*
X149013261Y-79920476D02*
X149108500Y-80015714D01*
X149108500Y-80015714D02*
X149156119Y-80110952D01*
X149156119Y-80110952D02*
X149156119Y-80301428D01*
X148156119Y-79539523D02*
X148156119Y-78920476D01*
X148156119Y-78920476D02*
X148537071Y-79253809D01*
X148537071Y-79253809D02*
X148537071Y-79110952D01*
X148537071Y-79110952D02*
X148584690Y-79015714D01*
X148584690Y-79015714D02*
X148632309Y-78968095D01*
X148632309Y-78968095D02*
X148727547Y-78920476D01*
X148727547Y-78920476D02*
X148965642Y-78920476D01*
X148965642Y-78920476D02*
X149060880Y-78968095D01*
X149060880Y-78968095D02*
X149108500Y-79015714D01*
X149108500Y-79015714D02*
X149156119Y-79110952D01*
X149156119Y-79110952D02*
X149156119Y-79396666D01*
X149156119Y-79396666D02*
X149108500Y-79491904D01*
X149108500Y-79491904D02*
X149060880Y-79539523D01*
D12*
X120991905Y-94454819D02*
X120991905Y-93454819D01*
X120991905Y-93454819D02*
X121230000Y-93454819D01*
X121230000Y-93454819D02*
X121372857Y-93502438D01*
X121372857Y-93502438D02*
X121468095Y-93597676D01*
X121468095Y-93597676D02*
X121515714Y-93692914D01*
X121515714Y-93692914D02*
X121563333Y-93883390D01*
X121563333Y-93883390D02*
X121563333Y-94026247D01*
X121563333Y-94026247D02*
X121515714Y-94216723D01*
X121515714Y-94216723D02*
X121468095Y-94311961D01*
X121468095Y-94311961D02*
X121372857Y-94407200D01*
X121372857Y-94407200D02*
X121230000Y-94454819D01*
X121230000Y-94454819D02*
X120991905Y-94454819D01*
X121896667Y-93454819D02*
X122515714Y-93454819D01*
X122515714Y-93454819D02*
X122182381Y-93835771D01*
X122182381Y-93835771D02*
X122325238Y-93835771D01*
X122325238Y-93835771D02*
X122420476Y-93883390D01*
X122420476Y-93883390D02*
X122468095Y-93931009D01*
X122468095Y-93931009D02*
X122515714Y-94026247D01*
X122515714Y-94026247D02*
X122515714Y-94264342D01*
X122515714Y-94264342D02*
X122468095Y-94359580D01*
X122468095Y-94359580D02*
X122420476Y-94407200D01*
X122420476Y-94407200D02*
X122325238Y-94454819D01*
X122325238Y-94454819D02*
X122039524Y-94454819D01*
X122039524Y-94454819D02*
X121944286Y-94407200D01*
X121944286Y-94407200D02*
X121896667Y-94359580D01*
X130801667Y-101157200D02*
X130944524Y-101204819D01*
X130944524Y-101204819D02*
X131182619Y-101204819D01*
X131182619Y-101204819D02*
X131277857Y-101157200D01*
X131277857Y-101157200D02*
X131325476Y-101109580D01*
X131325476Y-101109580D02*
X131373095Y-101014342D01*
X131373095Y-101014342D02*
X131373095Y-100919104D01*
X131373095Y-100919104D02*
X131325476Y-100823866D01*
X131325476Y-100823866D02*
X131277857Y-100776247D01*
X131277857Y-100776247D02*
X131182619Y-100728628D01*
X131182619Y-100728628D02*
X130992143Y-100681009D01*
X130992143Y-100681009D02*
X130896905Y-100633390D01*
X130896905Y-100633390D02*
X130849286Y-100585771D01*
X130849286Y-100585771D02*
X130801667Y-100490533D01*
X130801667Y-100490533D02*
X130801667Y-100395295D01*
X130801667Y-100395295D02*
X130849286Y-100300057D01*
X130849286Y-100300057D02*
X130896905Y-100252438D01*
X130896905Y-100252438D02*
X130992143Y-100204819D01*
X130992143Y-100204819D02*
X131230238Y-100204819D01*
X131230238Y-100204819D02*
X131373095Y-100252438D01*
X131706429Y-100204819D02*
X131944524Y-101204819D01*
X131944524Y-101204819D02*
X132135000Y-100490533D01*
X132135000Y-100490533D02*
X132325476Y-101204819D01*
X132325476Y-101204819D02*
X132563572Y-100204819D01*
X133468333Y-101204819D02*
X132896905Y-101204819D01*
X133182619Y-101204819D02*
X133182619Y-100204819D01*
X133182619Y-100204819D02*
X133087381Y-100347676D01*
X133087381Y-100347676D02*
X132992143Y-100442914D01*
X132992143Y-100442914D02*
X132896905Y-100490533D01*
D10*
X145251357Y-71365238D02*
X145203738Y-71460476D01*
X145203738Y-71460476D02*
X145108500Y-71555714D01*
X145108500Y-71555714D02*
X144965642Y-71698571D01*
X144965642Y-71698571D02*
X144918023Y-71793809D01*
X144918023Y-71793809D02*
X144918023Y-71889047D01*
X145156119Y-71841428D02*
X145108500Y-71936666D01*
X145108500Y-71936666D02*
X145013261Y-72031904D01*
X145013261Y-72031904D02*
X144822785Y-72079523D01*
X144822785Y-72079523D02*
X144489452Y-72079523D01*
X144489452Y-72079523D02*
X144298976Y-72031904D01*
X144298976Y-72031904D02*
X144203738Y-71936666D01*
X144203738Y-71936666D02*
X144156119Y-71841428D01*
X144156119Y-71841428D02*
X144156119Y-71650952D01*
X144156119Y-71650952D02*
X144203738Y-71555714D01*
X144203738Y-71555714D02*
X144298976Y-71460476D01*
X144298976Y-71460476D02*
X144489452Y-71412857D01*
X144489452Y-71412857D02*
X144822785Y-71412857D01*
X144822785Y-71412857D02*
X145013261Y-71460476D01*
X145013261Y-71460476D02*
X145108500Y-71555714D01*
X145108500Y-71555714D02*
X145156119Y-71650952D01*
X145156119Y-71650952D02*
X145156119Y-71841428D01*
X145156119Y-70460476D02*
X145156119Y-71031904D01*
X145156119Y-70746190D02*
X144156119Y-70746190D01*
X144156119Y-70746190D02*
X144298976Y-70841428D01*
X144298976Y-70841428D02*
X144394214Y-70936666D01*
X144394214Y-70936666D02*
X144441833Y-71031904D01*
D12*
X121643333Y-89454819D02*
X121310000Y-88978628D01*
X121071905Y-89454819D02*
X121071905Y-88454819D01*
X121071905Y-88454819D02*
X121452857Y-88454819D01*
X121452857Y-88454819D02*
X121548095Y-88502438D01*
X121548095Y-88502438D02*
X121595714Y-88550057D01*
X121595714Y-88550057D02*
X121643333Y-88645295D01*
X121643333Y-88645295D02*
X121643333Y-88788152D01*
X121643333Y-88788152D02*
X121595714Y-88883390D01*
X121595714Y-88883390D02*
X121548095Y-88931009D01*
X121548095Y-88931009D02*
X121452857Y-88978628D01*
X121452857Y-88978628D02*
X121071905Y-88978628D01*
X122595714Y-89454819D02*
X122024286Y-89454819D01*
X122310000Y-89454819D02*
X122310000Y-88454819D01*
X122310000Y-88454819D02*
X122214762Y-88597676D01*
X122214762Y-88597676D02*
X122119524Y-88692914D01*
X122119524Y-88692914D02*
X122024286Y-88740533D01*
X142166667Y-101157200D02*
X142309524Y-101204819D01*
X142309524Y-101204819D02*
X142547619Y-101204819D01*
X142547619Y-101204819D02*
X142642857Y-101157200D01*
X142642857Y-101157200D02*
X142690476Y-101109580D01*
X142690476Y-101109580D02*
X142738095Y-101014342D01*
X142738095Y-101014342D02*
X142738095Y-100919104D01*
X142738095Y-100919104D02*
X142690476Y-100823866D01*
X142690476Y-100823866D02*
X142642857Y-100776247D01*
X142642857Y-100776247D02*
X142547619Y-100728628D01*
X142547619Y-100728628D02*
X142357143Y-100681009D01*
X142357143Y-100681009D02*
X142261905Y-100633390D01*
X142261905Y-100633390D02*
X142214286Y-100585771D01*
X142214286Y-100585771D02*
X142166667Y-100490533D01*
X142166667Y-100490533D02*
X142166667Y-100395295D01*
X142166667Y-100395295D02*
X142214286Y-100300057D01*
X142214286Y-100300057D02*
X142261905Y-100252438D01*
X142261905Y-100252438D02*
X142357143Y-100204819D01*
X142357143Y-100204819D02*
X142595238Y-100204819D01*
X142595238Y-100204819D02*
X142738095Y-100252438D01*
X143071429Y-100204819D02*
X143309524Y-101204819D01*
X143309524Y-101204819D02*
X143500000Y-100490533D01*
X143500000Y-100490533D02*
X143690476Y-101204819D01*
X143690476Y-101204819D02*
X143928572Y-100204819D01*
X144261905Y-100300057D02*
X144309524Y-100252438D01*
X144309524Y-100252438D02*
X144404762Y-100204819D01*
X144404762Y-100204819D02*
X144642857Y-100204819D01*
X144642857Y-100204819D02*
X144738095Y-100252438D01*
X144738095Y-100252438D02*
X144785714Y-100300057D01*
X144785714Y-100300057D02*
X144833333Y-100395295D01*
X144833333Y-100395295D02*
X144833333Y-100490533D01*
X144833333Y-100490533D02*
X144785714Y-100633390D01*
X144785714Y-100633390D02*
X144214286Y-101204819D01*
X144214286Y-101204819D02*
X144833333Y-101204819D01*
X153416667Y-101157200D02*
X153559524Y-101204819D01*
X153559524Y-101204819D02*
X153797619Y-101204819D01*
X153797619Y-101204819D02*
X153892857Y-101157200D01*
X153892857Y-101157200D02*
X153940476Y-101109580D01*
X153940476Y-101109580D02*
X153988095Y-101014342D01*
X153988095Y-101014342D02*
X153988095Y-100919104D01*
X153988095Y-100919104D02*
X153940476Y-100823866D01*
X153940476Y-100823866D02*
X153892857Y-100776247D01*
X153892857Y-100776247D02*
X153797619Y-100728628D01*
X153797619Y-100728628D02*
X153607143Y-100681009D01*
X153607143Y-100681009D02*
X153511905Y-100633390D01*
X153511905Y-100633390D02*
X153464286Y-100585771D01*
X153464286Y-100585771D02*
X153416667Y-100490533D01*
X153416667Y-100490533D02*
X153416667Y-100395295D01*
X153416667Y-100395295D02*
X153464286Y-100300057D01*
X153464286Y-100300057D02*
X153511905Y-100252438D01*
X153511905Y-100252438D02*
X153607143Y-100204819D01*
X153607143Y-100204819D02*
X153845238Y-100204819D01*
X153845238Y-100204819D02*
X153988095Y-100252438D01*
X154321429Y-100204819D02*
X154559524Y-101204819D01*
X154559524Y-101204819D02*
X154750000Y-100490533D01*
X154750000Y-100490533D02*
X154940476Y-101204819D01*
X154940476Y-101204819D02*
X155178572Y-100204819D01*
X155464286Y-100204819D02*
X156083333Y-100204819D01*
X156083333Y-100204819D02*
X155750000Y-100585771D01*
X155750000Y-100585771D02*
X155892857Y-100585771D01*
X155892857Y-100585771D02*
X155988095Y-100633390D01*
X155988095Y-100633390D02*
X156035714Y-100681009D01*
X156035714Y-100681009D02*
X156083333Y-100776247D01*
X156083333Y-100776247D02*
X156083333Y-101014342D01*
X156083333Y-101014342D02*
X156035714Y-101109580D01*
X156035714Y-101109580D02*
X155988095Y-101157200D01*
X155988095Y-101157200D02*
X155892857Y-101204819D01*
X155892857Y-101204819D02*
X155607143Y-101204819D01*
X155607143Y-101204819D02*
X155511905Y-101157200D01*
X155511905Y-101157200D02*
X155464286Y-101109580D01*
X145261905Y-88454819D02*
X145261905Y-87454819D01*
X145261905Y-87454819D02*
X145500000Y-87454819D01*
X145500000Y-87454819D02*
X145642857Y-87502438D01*
X145642857Y-87502438D02*
X145738095Y-87597676D01*
X145738095Y-87597676D02*
X145785714Y-87692914D01*
X145785714Y-87692914D02*
X145833333Y-87883390D01*
X145833333Y-87883390D02*
X145833333Y-88026247D01*
X145833333Y-88026247D02*
X145785714Y-88216723D01*
X145785714Y-88216723D02*
X145738095Y-88311961D01*
X145738095Y-88311961D02*
X145642857Y-88407200D01*
X145642857Y-88407200D02*
X145500000Y-88454819D01*
X145500000Y-88454819D02*
X145261905Y-88454819D01*
X146214286Y-87550057D02*
X146261905Y-87502438D01*
X146261905Y-87502438D02*
X146357143Y-87454819D01*
X146357143Y-87454819D02*
X146595238Y-87454819D01*
X146595238Y-87454819D02*
X146690476Y-87502438D01*
X146690476Y-87502438D02*
X146738095Y-87550057D01*
X146738095Y-87550057D02*
X146785714Y-87645295D01*
X146785714Y-87645295D02*
X146785714Y-87740533D01*
X146785714Y-87740533D02*
X146738095Y-87883390D01*
X146738095Y-87883390D02*
X146166667Y-88454819D01*
X146166667Y-88454819D02*
X146785714Y-88454819D01*
D10*
X152751357Y-71405238D02*
X152703738Y-71500476D01*
X152703738Y-71500476D02*
X152608500Y-71595714D01*
X152608500Y-71595714D02*
X152465642Y-71738571D01*
X152465642Y-71738571D02*
X152418023Y-71833809D01*
X152418023Y-71833809D02*
X152418023Y-71929047D01*
X152656119Y-71881428D02*
X152608500Y-71976666D01*
X152608500Y-71976666D02*
X152513261Y-72071904D01*
X152513261Y-72071904D02*
X152322785Y-72119523D01*
X152322785Y-72119523D02*
X151989452Y-72119523D01*
X151989452Y-72119523D02*
X151798976Y-72071904D01*
X151798976Y-72071904D02*
X151703738Y-71976666D01*
X151703738Y-71976666D02*
X151656119Y-71881428D01*
X151656119Y-71881428D02*
X151656119Y-71690952D01*
X151656119Y-71690952D02*
X151703738Y-71595714D01*
X151703738Y-71595714D02*
X151798976Y-71500476D01*
X151798976Y-71500476D02*
X151989452Y-71452857D01*
X151989452Y-71452857D02*
X152322785Y-71452857D01*
X152322785Y-71452857D02*
X152513261Y-71500476D01*
X152513261Y-71500476D02*
X152608500Y-71595714D01*
X152608500Y-71595714D02*
X152656119Y-71690952D01*
X152656119Y-71690952D02*
X152656119Y-71881428D01*
X151751357Y-71071904D02*
X151703738Y-71024285D01*
X151703738Y-71024285D02*
X151656119Y-70929047D01*
X151656119Y-70929047D02*
X151656119Y-70690952D01*
X151656119Y-70690952D02*
X151703738Y-70595714D01*
X151703738Y-70595714D02*
X151751357Y-70548095D01*
X151751357Y-70548095D02*
X151846595Y-70500476D01*
X151846595Y-70500476D02*
X151941833Y-70500476D01*
X151941833Y-70500476D02*
X152084690Y-70548095D01*
X152084690Y-70548095D02*
X152656119Y-71119523D01*
X152656119Y-71119523D02*
X152656119Y-70500476D01*
D12*
X154761905Y-88494819D02*
X154761905Y-87494819D01*
X154761905Y-87494819D02*
X155000000Y-87494819D01*
X155000000Y-87494819D02*
X155142857Y-87542438D01*
X155142857Y-87542438D02*
X155238095Y-87637676D01*
X155238095Y-87637676D02*
X155285714Y-87732914D01*
X155285714Y-87732914D02*
X155333333Y-87923390D01*
X155333333Y-87923390D02*
X155333333Y-88066247D01*
X155333333Y-88066247D02*
X155285714Y-88256723D01*
X155285714Y-88256723D02*
X155238095Y-88351961D01*
X155238095Y-88351961D02*
X155142857Y-88447200D01*
X155142857Y-88447200D02*
X155000000Y-88494819D01*
X155000000Y-88494819D02*
X154761905Y-88494819D01*
X156285714Y-88494819D02*
X155714286Y-88494819D01*
X156000000Y-88494819D02*
X156000000Y-87494819D01*
X156000000Y-87494819D02*
X155904762Y-87637676D01*
X155904762Y-87637676D02*
X155809524Y-87732914D01*
X155809524Y-87732914D02*
X155714286Y-87780533D01*
D15*
%TO.C,BT1*%
X117911831Y-86325243D02*
G75*
G02*
X116950000Y-83000000I738169J2015243D01*
G01*
X116933470Y-70996646D02*
G75*
G02*
X117920000Y-67660000I1716531J1306646D01*
G01*
X133040000Y-85700000D02*
X133040000Y-82200000D01*
X133040000Y-85700000D02*
X130960000Y-87780000D01*
X133040000Y-71800000D02*
X133040000Y-68300000D01*
X133040000Y-68300000D02*
X130960000Y-66220000D01*
X130960000Y-87780000D02*
X128500000Y-87780000D01*
X130960000Y-66220000D02*
X128500000Y-66220000D01*
X122500000Y-87780000D02*
X121870000Y-87780000D01*
X122500000Y-66220000D02*
X121870000Y-66220000D01*
X121870000Y-87780000D02*
X117920000Y-86340000D01*
X121870000Y-66220000D02*
X117920000Y-67660000D01*
%TO.C,Q3*%
X154350000Y-81530000D02*
X154350000Y-77930000D01*
X150050000Y-78950000D02*
G75*
G02*
X154327684Y-77921555I2450000J-780000D01*
G01*
X154342156Y-81541453D02*
G75*
G02*
X150050000Y-80550000I-1842156J1811453D01*
G01*
%TO.C,D3*%
X119170000Y-96455000D02*
X119170000Y-99545000D01*
X119170000Y-96455170D02*
G75*
G02*
X124720000Y-97999952I2560000J-1544830D01*
G01*
X124720000Y-98000048D02*
G75*
G02*
X119170000Y-99544830I-2990000J48D01*
G01*
X124230000Y-98000000D02*
G75*
G02*
X119230000Y-98000000I-2500000J0D01*
G01*
X119230000Y-98000000D02*
G75*
G02*
X124230000Y-98000000I2500000J0D01*
G01*
D16*
%TO.C,G\u002A\u002A\u002A*%
G36*
X138512097Y-66274231D02*
G01*
X138549655Y-66283118D01*
X138550786Y-66283448D01*
X138615795Y-66311152D01*
X138665340Y-66351495D01*
X138699141Y-66404102D01*
X138716920Y-66468600D01*
X138719780Y-66510927D01*
X138712809Y-66577110D01*
X138690368Y-66632026D01*
X138650891Y-66678782D01*
X138624608Y-66699832D01*
X138596635Y-66718485D01*
X138572405Y-66729456D01*
X138544215Y-66735107D01*
X138504366Y-66737803D01*
X138500325Y-66737966D01*
X138451257Y-66738003D01*
X138416636Y-66733124D01*
X138395065Y-66724796D01*
X138335844Y-66685818D01*
X138294756Y-66641334D01*
X138270141Y-66588688D01*
X138260335Y-66525224D01*
X138260000Y-66508961D01*
X138268933Y-66439644D01*
X138294795Y-66379958D01*
X138336180Y-66331663D01*
X138391681Y-66296523D01*
X138443055Y-66279560D01*
X138480532Y-66273188D01*
X138512097Y-66274231D01*
G37*
G36*
X138220000Y-65750000D02*
G01*
X138220000Y-66000000D01*
X138315000Y-66000000D01*
X138410000Y-66000000D01*
X138410000Y-65750000D01*
X138410000Y-65500000D01*
X138505000Y-65500000D01*
X138600000Y-65500000D01*
X138600000Y-65750000D01*
X138600000Y-66000000D01*
X138690000Y-66000000D01*
X138780000Y-66000000D01*
X138780000Y-65750000D01*
X138780000Y-65500000D01*
X138875000Y-65500000D01*
X138970000Y-65500000D01*
X138970000Y-65750000D01*
X138970000Y-66000000D01*
X139060000Y-66000000D01*
X139150000Y-66000000D01*
X139150000Y-65750000D01*
X139150000Y-65500000D01*
X139245000Y-65500000D01*
X139340000Y-65500000D01*
X139340000Y-65750000D01*
X139340000Y-66000000D01*
X139435000Y-66000000D01*
X139530000Y-66000000D01*
X139530000Y-65750000D01*
X139530000Y-65500000D01*
X139625000Y-65500000D01*
X139720000Y-65500000D01*
X139720000Y-65750000D01*
X139720000Y-66000000D01*
X139810000Y-66000000D01*
X139900000Y-66000000D01*
X139900000Y-65750000D01*
X139900000Y-65500000D01*
X139995000Y-65500000D01*
X140090000Y-65500000D01*
X140090000Y-65750000D01*
X140090000Y-66000000D01*
X140185000Y-66000000D01*
X140280000Y-66000000D01*
X140280000Y-65750000D01*
X140280000Y-65500000D01*
X140375000Y-65500000D01*
X140470000Y-65500000D01*
X140470000Y-65750000D01*
X140470000Y-66000000D01*
X140565000Y-66000000D01*
X140660000Y-66000000D01*
X140660000Y-65750000D01*
X140660000Y-65500000D01*
X140755000Y-65500000D01*
X140850000Y-65500000D01*
X140850000Y-65750000D01*
X140850000Y-66000000D01*
X140940000Y-66000000D01*
X141030000Y-66000000D01*
X141030000Y-65750000D01*
X141030000Y-65500000D01*
X141125000Y-65500000D01*
X141220000Y-65500000D01*
X141220000Y-65750000D01*
X141220000Y-66000000D01*
X141310000Y-66000000D01*
X141400000Y-66000000D01*
X141400000Y-65750000D01*
X141400000Y-65500000D01*
X141495000Y-65500000D01*
X141590000Y-65500000D01*
X141590000Y-65750000D01*
X141590000Y-66000000D01*
X141685000Y-66000000D01*
X141780000Y-66000000D01*
X141780000Y-65750000D01*
X141780000Y-65500000D01*
X141875000Y-65500000D01*
X141970000Y-65500000D01*
X141970000Y-65749885D01*
X141970126Y-65828078D01*
X141970610Y-65888739D01*
X141971609Y-65934336D01*
X141973281Y-65967337D01*
X141975783Y-65990208D01*
X141979272Y-66005418D01*
X141983905Y-66015434D01*
X141987222Y-66019885D01*
X141993483Y-66026123D01*
X142001901Y-66030919D01*
X142014960Y-66034463D01*
X142035144Y-66036944D01*
X142064938Y-66038549D01*
X142106826Y-66039467D01*
X142163293Y-66039887D01*
X142236824Y-66039998D01*
X142252222Y-66040000D01*
X142500000Y-66040000D01*
X142500000Y-66135000D01*
X142500000Y-66230000D01*
X142250000Y-66230000D01*
X142000000Y-66230000D01*
X142000000Y-66320000D01*
X142000000Y-66410000D01*
X142250000Y-66410000D01*
X142500000Y-66410000D01*
X142500000Y-66505000D01*
X142500000Y-66600000D01*
X142250000Y-66600000D01*
X142000000Y-66600000D01*
X142000000Y-66695000D01*
X142000000Y-66790000D01*
X142250000Y-66790000D01*
X142500000Y-66790000D01*
X142500000Y-66885000D01*
X142500000Y-66980000D01*
X142250000Y-66980000D01*
X142000000Y-66980000D01*
X142000000Y-67070000D01*
X142000000Y-67160000D01*
X142250000Y-67160000D01*
X142500000Y-67160000D01*
X142500000Y-67255000D01*
X142500000Y-67350000D01*
X142250000Y-67350000D01*
X142000000Y-67350000D01*
X142000000Y-67440000D01*
X142000000Y-67530000D01*
X142250000Y-67530000D01*
X142500000Y-67530000D01*
X142500000Y-67625000D01*
X142500000Y-67720000D01*
X142250000Y-67720000D01*
X142000000Y-67720000D01*
X142000000Y-67815000D01*
X142000000Y-67910000D01*
X142250000Y-67910000D01*
X142500000Y-67910000D01*
X142500000Y-68005000D01*
X142500000Y-68100000D01*
X142250000Y-68100000D01*
X142000000Y-68100000D01*
X142000000Y-68190000D01*
X142000000Y-68280000D01*
X142250000Y-68280000D01*
X142500000Y-68280000D01*
X142500000Y-68375000D01*
X142500000Y-68470000D01*
X142250000Y-68470000D01*
X142000000Y-68470000D01*
X142000000Y-68560000D01*
X142000000Y-68650000D01*
X142250000Y-68650000D01*
X142500000Y-68650000D01*
X142500000Y-68745000D01*
X142500000Y-68840000D01*
X142250000Y-68840000D01*
X142000000Y-68840000D01*
X142000000Y-68930000D01*
X142000000Y-69020000D01*
X142250000Y-69020000D01*
X142500000Y-69020000D01*
X142500000Y-69115000D01*
X142500000Y-69210000D01*
X142250000Y-69210000D01*
X142000000Y-69210000D01*
X142000000Y-69305000D01*
X142000000Y-69400000D01*
X142250000Y-69400000D01*
X142500000Y-69400000D01*
X142500000Y-69495000D01*
X142500000Y-69590000D01*
X142250000Y-69590000D01*
X142000000Y-69590000D01*
X142000000Y-69680000D01*
X142000000Y-69770000D01*
X142250000Y-69770000D01*
X142500000Y-69770000D01*
X142500000Y-69865000D01*
X142500000Y-69960000D01*
X142252222Y-69960000D01*
X142175321Y-69960074D01*
X142115936Y-69960424D01*
X142071582Y-69961238D01*
X142039774Y-69962704D01*
X142018027Y-69965011D01*
X142003858Y-69968348D01*
X141994781Y-69972902D01*
X141988312Y-69978864D01*
X141987222Y-69980114D01*
X141981843Y-69988230D01*
X141977701Y-70000092D01*
X141974639Y-70018166D01*
X141972499Y-70044921D01*
X141971124Y-70082825D01*
X141970357Y-70134343D01*
X141970039Y-70201945D01*
X141970000Y-70250114D01*
X141970000Y-70500000D01*
X141875000Y-70500000D01*
X141780000Y-70500000D01*
X141780000Y-70250000D01*
X141780000Y-70000000D01*
X141685000Y-70000000D01*
X141590000Y-70000000D01*
X141590000Y-70250000D01*
X141590000Y-70500000D01*
X141495000Y-70500000D01*
X141400000Y-70500000D01*
X141400000Y-70250000D01*
X141400000Y-70000000D01*
X141310000Y-70000000D01*
X141220000Y-70000000D01*
X141220000Y-70250000D01*
X141220000Y-70500000D01*
X141125000Y-70500000D01*
X141030000Y-70500000D01*
X141030000Y-70250000D01*
X141030000Y-70000000D01*
X140940000Y-70000000D01*
X140850000Y-70000000D01*
X140850000Y-70250000D01*
X140850000Y-70500000D01*
X140755000Y-70500000D01*
X140660000Y-70500000D01*
X140660000Y-70250000D01*
X140660000Y-70000000D01*
X140565000Y-70000000D01*
X140470000Y-70000000D01*
X140470000Y-70250000D01*
X140470000Y-70500000D01*
X140375000Y-70500000D01*
X140280000Y-70500000D01*
X140280000Y-70250000D01*
X140280000Y-70000000D01*
X140185000Y-70000000D01*
X140090000Y-70000000D01*
X140090000Y-70250000D01*
X140090000Y-70500000D01*
X139995000Y-70500000D01*
X139900000Y-70500000D01*
X139900000Y-70250000D01*
X139900000Y-70000000D01*
X139810000Y-70000000D01*
X139720000Y-70000000D01*
X139720000Y-70250000D01*
X139720000Y-70500000D01*
X139625000Y-70500000D01*
X139530000Y-70500000D01*
X139530000Y-70250000D01*
X139530000Y-70000000D01*
X139435000Y-70000000D01*
X139340000Y-70000000D01*
X139340000Y-70250000D01*
X139340000Y-70500000D01*
X139245000Y-70500000D01*
X139150000Y-70500000D01*
X139150000Y-70250000D01*
X139150000Y-70000000D01*
X139060000Y-70000000D01*
X138970000Y-70000000D01*
X138970000Y-70250000D01*
X138970000Y-70500000D01*
X138875000Y-70500000D01*
X138780000Y-70500000D01*
X138780000Y-70250000D01*
X138780000Y-70000000D01*
X138690000Y-70000000D01*
X138600000Y-70000000D01*
X138600000Y-70250000D01*
X138600000Y-70500000D01*
X138505000Y-70500000D01*
X138410000Y-70500000D01*
X138410000Y-70250000D01*
X138410000Y-70000000D01*
X138315000Y-70000000D01*
X138220000Y-70000000D01*
X138220000Y-70250000D01*
X138220000Y-70500000D01*
X138125000Y-70500000D01*
X138030000Y-70500000D01*
X138030000Y-70250114D01*
X138029873Y-70171921D01*
X138029389Y-70111260D01*
X138028390Y-70065663D01*
X138026718Y-70032662D01*
X138024216Y-70009791D01*
X138020727Y-69994581D01*
X138016094Y-69984565D01*
X138012777Y-69980114D01*
X138006516Y-69973876D01*
X137998098Y-69969080D01*
X137985039Y-69965536D01*
X137964855Y-69963055D01*
X137935061Y-69961450D01*
X137893173Y-69960532D01*
X137836706Y-69960112D01*
X137763175Y-69960001D01*
X137747777Y-69960000D01*
X137500000Y-69960000D01*
X137500000Y-69865000D01*
X137500000Y-69810000D01*
X138190000Y-69810000D01*
X140000000Y-69810000D01*
X141810000Y-69810000D01*
X141810000Y-68000000D01*
X141810000Y-66190000D01*
X140000000Y-66190000D01*
X138190000Y-66190000D01*
X138190000Y-68000000D01*
X138190000Y-69810000D01*
X137500000Y-69810000D01*
X137500000Y-69770000D01*
X137750000Y-69770000D01*
X138000000Y-69770000D01*
X138000000Y-69680000D01*
X138000000Y-69590000D01*
X137750000Y-69590000D01*
X137500000Y-69590000D01*
X137500000Y-69495000D01*
X137500000Y-69400000D01*
X137750000Y-69400000D01*
X138000000Y-69400000D01*
X138000000Y-69305000D01*
X138000000Y-69210000D01*
X137750000Y-69210000D01*
X137500000Y-69210000D01*
X137500000Y-69115000D01*
X137500000Y-69020000D01*
X137750000Y-69020000D01*
X138000000Y-69020000D01*
X138000000Y-68930000D01*
X138000000Y-68840000D01*
X137750000Y-68840000D01*
X137500000Y-68840000D01*
X137500000Y-68745000D01*
X137500000Y-68650000D01*
X137750000Y-68650000D01*
X138000000Y-68650000D01*
X138000000Y-68560000D01*
X138000000Y-68470000D01*
X137750000Y-68470000D01*
X137500000Y-68470000D01*
X137500000Y-68375000D01*
X137500000Y-68280000D01*
X137750000Y-68280000D01*
X138000000Y-68280000D01*
X138000000Y-68190000D01*
X138000000Y-68100000D01*
X137750000Y-68100000D01*
X137500000Y-68100000D01*
X137500000Y-68005000D01*
X137500000Y-68000000D01*
X137500000Y-67910000D01*
X137750000Y-67910000D01*
X138000000Y-67910000D01*
X138000000Y-67815000D01*
X138000000Y-67720000D01*
X137750000Y-67720000D01*
X137500000Y-67720000D01*
X137500000Y-67625000D01*
X137500000Y-67530000D01*
X137750000Y-67530000D01*
X138000000Y-67530000D01*
X138000000Y-67440000D01*
X138000000Y-67350000D01*
X137750000Y-67350000D01*
X137500000Y-67350000D01*
X137500000Y-67255000D01*
X137500000Y-67160000D01*
X137750000Y-67160000D01*
X138000000Y-67160000D01*
X138000000Y-67070000D01*
X138000000Y-66980000D01*
X137750000Y-66980000D01*
X137500000Y-66980000D01*
X137500000Y-66885000D01*
X137500000Y-66790000D01*
X137750000Y-66790000D01*
X138000000Y-66790000D01*
X138000000Y-66695000D01*
X138000000Y-66600000D01*
X137750000Y-66600000D01*
X137500000Y-66600000D01*
X137500000Y-66505000D01*
X137500000Y-66410000D01*
X137750000Y-66410000D01*
X138000000Y-66410000D01*
X138000000Y-66320000D01*
X138000000Y-66230000D01*
X137750000Y-66230000D01*
X137500000Y-66230000D01*
X137500000Y-66135000D01*
X137500000Y-66040000D01*
X137747777Y-66040000D01*
X137824678Y-66039925D01*
X137884063Y-66039575D01*
X137928417Y-66038761D01*
X137960225Y-66037295D01*
X137981972Y-66034988D01*
X137996141Y-66031651D01*
X138005218Y-66027097D01*
X138011687Y-66021135D01*
X138012777Y-66019885D01*
X138018156Y-66011769D01*
X138022298Y-65999907D01*
X138025360Y-65981833D01*
X138027500Y-65955078D01*
X138028875Y-65917174D01*
X138029642Y-65865656D01*
X138029960Y-65798054D01*
X138029999Y-65749885D01*
X138030000Y-65500000D01*
X138125000Y-65500000D01*
X138220000Y-65500000D01*
X138220000Y-65750000D01*
G37*
D15*
%TO.C,SW1*%
X128635000Y-104250000D02*
X128635000Y-105750000D01*
X129885000Y-108250000D02*
X134385000Y-108250000D01*
X134385000Y-101750000D02*
X129885000Y-101750000D01*
X135635000Y-105750000D02*
X135635000Y-104250000D01*
%TO.C,Q1*%
X150350000Y-73070000D02*
X150350000Y-69470000D01*
X146050000Y-70490000D02*
G75*
G02*
X150327684Y-69461555I2450000J-780000D01*
G01*
X150342156Y-73081453D02*
G75*
G02*
X146050000Y-72090000I-1842156J1811453D01*
G01*
%TO.C,R1*%
X118540000Y-90130000D02*
X118540000Y-90460000D01*
X118540000Y-92870000D02*
X118540000Y-92540000D01*
X125080000Y-90130000D02*
X118540000Y-90130000D01*
X125080000Y-90460000D02*
X125080000Y-90130000D01*
X125080000Y-92540000D02*
X125080000Y-92870000D01*
X125080000Y-92870000D02*
X118540000Y-92870000D01*
%TO.C,SW2*%
X140000000Y-104250000D02*
X140000000Y-105750000D01*
X141250000Y-108250000D02*
X145750000Y-108250000D01*
X145750000Y-101750000D02*
X141250000Y-101750000D01*
X147000000Y-105750000D02*
X147000000Y-104250000D01*
%TO.C,SW3*%
X151250000Y-104250000D02*
X151250000Y-105750000D01*
X152500000Y-108250000D02*
X157000000Y-108250000D01*
X157000000Y-101750000D02*
X152500000Y-101750000D01*
X158250000Y-105750000D02*
X158250000Y-104250000D01*
%TO.C,D2*%
X143440000Y-90455000D02*
X143440000Y-93545000D01*
X143440000Y-90455170D02*
G75*
G02*
X148990000Y-91999952I2560000J-1544830D01*
G01*
X148990000Y-92000048D02*
G75*
G02*
X143440000Y-93544830I-2990000J48D01*
G01*
X148500000Y-92000000D02*
G75*
G02*
X143500000Y-92000000I-2500000J0D01*
G01*
X143500000Y-92000000D02*
G75*
G02*
X148500000Y-92000000I2500000J0D01*
G01*
%TO.C,Q2*%
X157850000Y-73110000D02*
X157850000Y-69510000D01*
X153550000Y-70530000D02*
G75*
G02*
X157827684Y-69501555I2450000J-780000D01*
G01*
X157842156Y-73121453D02*
G75*
G02*
X153550000Y-72130000I-1842156J1811453D01*
G01*
%TO.C,IO Pins*%
X113670000Y-90050000D02*
X115000000Y-90050000D01*
X113670000Y-91380000D02*
X113670000Y-90050000D01*
X113670000Y-92650000D02*
X113670000Y-100330000D01*
X113670000Y-92650000D02*
X116330000Y-92650000D01*
X113670000Y-100330000D02*
X116330000Y-100330000D01*
X116330000Y-92650000D02*
X116330000Y-100330000D01*
%TO.C,D1*%
X152940000Y-90455000D02*
X152940000Y-93545000D01*
X152940000Y-90455170D02*
G75*
G02*
X158490000Y-91999952I2560000J-1544830D01*
G01*
X158490000Y-92000048D02*
G75*
G02*
X152940000Y-93544830I-2990000J48D01*
G01*
X158000000Y-92000000D02*
G75*
G02*
X153000000Y-92000000I-2500000J0D01*
G01*
X153000000Y-92000000D02*
G75*
G02*
X158000000Y-92000000I2500000J0D01*
G01*
%TD*%
M02*
