%TF.GenerationSoftware,KiCad,Pcbnew,9.0.0*%
%TF.CreationDate,2025-04-16T19:40:09+08:00*%
%TF.ProjectId,computer,636f6d70-7574-4657-922e-6b696361645f,rev?*%
%TF.SameCoordinates,Original*%
%TF.FileFunction,Copper,L1,Top*%
%TF.FilePolarity,Positive*%
%FSLAX46Y46*%
G04 Gerber Fmt 4.6, Leading zero omitted, Abs format (unit mm)*
G04 Created by KiCad (PCBNEW 9.0.0) date 2025-04-16 19:40:09*
%MOMM*%
%LPD*%
G01*
G04 APERTURE LIST*
G04 Aperture macros list*
%AMRoundRect*
0 Rectangle with rounded corners*
0 $1 Rounding radius*
0 $2 $3 $4 $5 $6 $7 $8 $9 X,Y pos of 4 corners*
0 Add a 4 corners polygon primitive as box body*
4,1,4,$2,$3,$4,$5,$6,$7,$8,$9,$2,$3,0*
0 Add four circle primitives for the rounded corners*
1,1,$1+$1,$2,$3*
1,1,$1+$1,$4,$5*
1,1,$1+$1,$6,$7*
1,1,$1+$1,$8,$9*
0 Add four rect primitives between the rounded corners*
20,1,$1+$1,$2,$3,$4,$5,0*
20,1,$1+$1,$4,$5,$6,$7,0*
20,1,$1+$1,$6,$7,$8,$9,0*
20,1,$1+$1,$8,$9,$2,$3,0*%
G04 Aperture macros list end*
%TA.AperFunction,SMDPad,CuDef*%
%ADD10C,17.800000*%
%TD*%
%TA.AperFunction,SMDPad,CuDef*%
%ADD11R,5.080000X1.270000*%
%TD*%
%TA.AperFunction,ComponentPad*%
%ADD12R,1.800000X1.100000*%
%TD*%
%TA.AperFunction,ComponentPad*%
%ADD13RoundRect,0.275000X0.625000X-0.275000X0.625000X0.275000X-0.625000X0.275000X-0.625000X-0.275000X0*%
%TD*%
%TA.AperFunction,ComponentPad*%
%ADD14R,1.800000X1.800000*%
%TD*%
%TA.AperFunction,ComponentPad*%
%ADD15C,1.800000*%
%TD*%
%TA.AperFunction,ComponentPad*%
%ADD16C,2.000000*%
%TD*%
%TA.AperFunction,ComponentPad*%
%ADD17C,1.600000*%
%TD*%
%TA.AperFunction,ComponentPad*%
%ADD18O,1.600000X1.600000*%
%TD*%
%TA.AperFunction,ComponentPad*%
%ADD19R,1.700000X1.700000*%
%TD*%
%TA.AperFunction,ComponentPad*%
%ADD20O,1.700000X1.700000*%
%TD*%
%TA.AperFunction,Conductor*%
%ADD21C,0.200000*%
%TD*%
G04 APERTURE END LIST*
D10*
%TO.P,BT1,2,-*%
%TO.N,Net-(BT1--)*%
X125500000Y-77000000D03*
D11*
%TO.P,BT1,1,+*%
%TO.N,Net-(BT1-+)*%
X125500000Y-87985000D03*
X125500000Y-66015000D03*
%TD*%
D12*
%TO.P,Q3,1,C*%
%TO.N,Net-(D1-K)*%
X152900000Y-81000000D03*
D13*
%TO.P,Q3,2,B*%
%TO.N,Net-(Q3-B)*%
X150830000Y-79730000D03*
%TO.P,Q3,3,E*%
%TO.N,Net-(BT1--)*%
X152900000Y-78460000D03*
%TD*%
D14*
%TO.P,D3,1,K*%
%TO.N,Net-(D3-K)*%
X120460000Y-98000000D03*
D15*
%TO.P,D3,2,A*%
%TO.N,Net-(BT1-+)*%
X123000000Y-98000000D03*
%TD*%
D16*
%TO.P,SW1,1,1*%
%TO.N,Net-(BT1-+)*%
X128885000Y-102750000D03*
X135385000Y-102750000D03*
%TO.P,SW1,2,2*%
%TO.N,Net-(Q2-B)*%
X128885000Y-107250000D03*
X135385000Y-107250000D03*
%TD*%
D12*
%TO.P,Q1,1,C*%
%TO.N,Net-(Q1-C)*%
X148900000Y-72540000D03*
D13*
%TO.P,Q1,2,B*%
%TO.N,Net-(Q1-B)*%
X146830000Y-71270000D03*
%TO.P,Q1,3,E*%
%TO.N,Net-(BT1--)*%
X148900000Y-70000000D03*
%TD*%
D17*
%TO.P,R1,1*%
%TO.N,Net-(D3-K)*%
X125620000Y-91500000D03*
D18*
%TO.P,R1,2*%
%TO.N,Net-(BT1--)*%
X118000000Y-91500000D03*
%TD*%
D16*
%TO.P,SW2,1,1*%
%TO.N,Net-(BT1-+)*%
X140250000Y-102750000D03*
X146750000Y-102750000D03*
%TO.P,SW2,2,2*%
%TO.N,Net-(Q1-B)*%
X140250000Y-107250000D03*
X146750000Y-107250000D03*
%TD*%
%TO.P,SW3,1,1*%
%TO.N,Net-(Q3-B)*%
X151500000Y-102750000D03*
X158000000Y-102750000D03*
%TO.P,SW3,2,2*%
%TO.N,Net-(BT1-+)*%
X151500000Y-107250000D03*
X158000000Y-107250000D03*
%TD*%
D14*
%TO.P,D2,1,K*%
%TO.N,Net-(D2-K)*%
X144730000Y-92000000D03*
D15*
%TO.P,D2,2,A*%
%TO.N,Net-(BT1-+)*%
X147270000Y-92000000D03*
%TD*%
D12*
%TO.P,Q2,1,C*%
%TO.N,Net-(D2-K)*%
X156400000Y-72580000D03*
D13*
%TO.P,Q2,2,B*%
%TO.N,Net-(Q2-B)*%
X154330000Y-71310000D03*
%TO.P,Q2,3,E*%
%TO.N,Net-(Q1-C)*%
X156400000Y-70040000D03*
%TD*%
D19*
%TO.P,IO Pins,1,Pin_1*%
%TO.N,Net-(BT1--)*%
X115000000Y-91380000D03*
D20*
%TO.P,IO Pins,2,Pin_2*%
%TO.N,Net-(BT1-+)*%
X115000000Y-93920000D03*
%TO.P,IO Pins,3,Pin_3*%
%TO.N,Net-(D2-K)*%
X115000000Y-96460000D03*
%TO.P,IO Pins,4,Pin_4*%
%TO.N,Net-(D1-K)*%
X115000000Y-99000000D03*
%TD*%
D14*
%TO.P,D1,1,K*%
%TO.N,Net-(D1-K)*%
X154230000Y-92000000D03*
D15*
%TO.P,D1,2,A*%
%TO.N,Net-(BT1-+)*%
X156770000Y-92000000D03*
%TD*%
D21*
%TO.N,Net-(D1-K)*%
X116000000Y-103500000D02*
X115000000Y-102500000D01*
X115000000Y-102500000D02*
X115000000Y-99000000D01*
X124000000Y-103500000D02*
X116000000Y-103500000D01*
X125000000Y-109000000D02*
X125000000Y-104500000D01*
X125000000Y-104500000D02*
X124000000Y-103500000D01*
X125754000Y-109754000D02*
X125000000Y-109000000D01*
%TO.N,Net-(BT1--)*%
X118000000Y-84500000D02*
X125500000Y-77000000D01*
X118000000Y-91500000D02*
X118000000Y-84500000D01*
%TO.N,Net-(D2-K)*%
X134084000Y-88084000D02*
X134084000Y-105500000D01*
X132500000Y-86500000D02*
X134084000Y-88084000D01*
X121500000Y-86500000D02*
X132500000Y-86500000D01*
X120500000Y-87500000D02*
X121500000Y-86500000D01*
X120500000Y-91000000D02*
X120500000Y-87500000D01*
X118899000Y-92601000D02*
X120500000Y-91000000D01*
X113849000Y-93151000D02*
X114399000Y-92601000D01*
X113849000Y-95309000D02*
X113849000Y-93151000D01*
X114399000Y-92601000D02*
X118899000Y-92601000D01*
X115000000Y-96460000D02*
X113849000Y-95309000D01*
%TO.N,Net-(BT1-+)*%
X126721000Y-96779000D02*
X126721000Y-89206000D01*
X126721000Y-89206000D02*
X125500000Y-87985000D01*
X125500000Y-98000000D02*
X126721000Y-96779000D01*
X123000000Y-98000000D02*
X125500000Y-98000000D01*
%TO.N,Net-(D2-K)*%
X137500000Y-105000000D02*
X134584000Y-105000000D01*
X134584000Y-105000000D02*
X134084000Y-105500000D01*
X138000000Y-100000000D02*
X138000000Y-104500000D01*
X138500000Y-99500000D02*
X138000000Y-100000000D01*
X144000000Y-99500000D02*
X138500000Y-99500000D01*
X144730000Y-98770000D02*
X144000000Y-99500000D01*
X144730000Y-92000000D02*
X144730000Y-98770000D01*
X138000000Y-104500000D02*
X137500000Y-105000000D01*
%TO.N,Net-(BT1-+)*%
X132750000Y-102750000D02*
X128885000Y-102750000D01*
X133500000Y-103500000D02*
X132750000Y-102750000D01*
X133500000Y-108000000D02*
X133500000Y-103500000D01*
X134853000Y-109353000D02*
X133500000Y-108000000D01*
X149397000Y-109353000D02*
X134853000Y-109353000D01*
X151500000Y-107250000D02*
X149397000Y-109353000D01*
X146069000Y-90799000D02*
X147270000Y-92000000D01*
X136201000Y-90799000D02*
X146069000Y-90799000D01*
X135385000Y-91615000D02*
X136201000Y-90799000D01*
X135385000Y-102750000D02*
X135385000Y-91615000D01*
%TO.N,Net-(BT1--)*%
X148500000Y-70000000D02*
X135500000Y-70000000D01*
X135500000Y-70000000D02*
X128500000Y-77000000D01*
X157271206Y-69189000D02*
X157601000Y-69518794D01*
X149311000Y-69189000D02*
X157271206Y-69189000D01*
X157601000Y-73359000D02*
X152500000Y-78460000D01*
X118000000Y-91500000D02*
X115120000Y-91500000D01*
X115120000Y-91500000D02*
X115000000Y-91380000D01*
X157601000Y-69518794D02*
X157601000Y-73359000D01*
X123500000Y-82000000D02*
X128500000Y-77000000D01*
X148500000Y-70000000D02*
X149311000Y-69189000D01*
%TO.N,Net-(BT1-+)*%
X146750000Y-92520000D02*
X147270000Y-92000000D01*
X128885000Y-103156992D02*
X128885000Y-102750000D01*
X159301000Y-94531000D02*
X156770000Y-92000000D01*
X123750000Y-102750000D02*
X123000000Y-102000000D01*
X117500000Y-99500000D02*
X121500000Y-99500000D01*
X117000000Y-99000000D02*
X117500000Y-99500000D01*
X115000000Y-93920000D02*
X116420000Y-93920000D01*
X123000000Y-102000000D02*
X123000000Y-98000000D01*
X128885000Y-102750000D02*
X123750000Y-102750000D01*
X146750000Y-102750000D02*
X146750000Y-92520000D01*
X140250000Y-102750000D02*
X146750000Y-102750000D01*
X158000000Y-107250000D02*
X151500000Y-107250000D01*
X129500000Y-102135000D02*
X128885000Y-102750000D01*
X159301000Y-105949000D02*
X159301000Y-94531000D01*
X156770000Y-92000000D02*
X157352000Y-91418000D01*
X121500000Y-99500000D02*
X123000000Y-98000000D01*
X116420000Y-93920000D02*
X117000000Y-94500000D01*
X158000000Y-107250000D02*
X159301000Y-105949000D01*
X117000000Y-94500000D02*
X117000000Y-99000000D01*
%TO.N,Net-(D1-K)*%
X157001100Y-90500000D02*
X155730000Y-90500000D01*
X150075000Y-83425000D02*
X150075000Y-90575000D01*
X152500000Y-81000000D02*
X150075000Y-83425000D01*
X159702000Y-107387892D02*
X159702000Y-93200900D01*
X159702000Y-93200900D02*
X157001100Y-90500000D01*
X125754000Y-109754000D02*
X157335892Y-109754000D01*
X157335892Y-109754000D02*
X159702000Y-107387892D01*
X155730000Y-90500000D02*
X154230000Y-92000000D01*
X151500000Y-92000000D02*
X154230000Y-92000000D01*
X150075000Y-90575000D02*
X151500000Y-92000000D01*
%TO.N,Net-(D2-K)*%
X149273000Y-107133992D02*
X147454992Y-108952000D01*
X156000000Y-72580000D02*
X149273000Y-79307000D01*
X149273000Y-79307000D02*
X149273000Y-107133992D01*
X135247108Y-108952000D02*
X134084000Y-107788892D01*
X134084000Y-105890892D02*
X134084000Y-105500000D01*
X147454992Y-108952000D02*
X135247108Y-108952000D01*
X134084000Y-107788892D02*
X134084000Y-105890892D01*
%TO.N,Net-(Q1-B)*%
X148471000Y-74163000D02*
X148471000Y-105529000D01*
X140250000Y-107250000D02*
X146750000Y-107250000D01*
X148471000Y-105529000D02*
X146750000Y-107250000D01*
X147230000Y-72922000D02*
X148471000Y-74163000D01*
X147230000Y-71270000D02*
X147230000Y-72922000D01*
%TO.N,Net-(Q1-C)*%
X148500000Y-72540000D02*
X151000000Y-70040000D01*
X151000000Y-70040000D02*
X156000000Y-70040000D01*
%TO.N,Net-(Q2-B)*%
X147288892Y-108551000D02*
X136686000Y-108551000D01*
X154730000Y-71310000D02*
X148872000Y-77168000D01*
X148872000Y-106967892D02*
X147288892Y-108551000D01*
X148872000Y-77168000D02*
X148872000Y-106967892D01*
X136686000Y-108551000D02*
X135385000Y-107250000D01*
%TO.N,Net-(Q3-B)*%
X149674000Y-100924000D02*
X151500000Y-102750000D01*
X151500000Y-80000000D02*
X151230000Y-79730000D01*
X149674000Y-81286000D02*
X149674000Y-100924000D01*
X158000000Y-102750000D02*
X151500000Y-102750000D01*
X151230000Y-79730000D02*
X149674000Y-81286000D01*
%TO.N,Net-(D3-K)*%
X125620000Y-91500000D02*
X121000000Y-91500000D01*
X121000000Y-91500000D02*
X120460000Y-92040000D01*
X120460000Y-92040000D02*
X120460000Y-98000000D01*
%TD*%
M02*
