%TF.GenerationSoftware,KiCad,Pcbnew,9.0.0*%
%TF.CreationDate,2025-04-16T19:40:10+08:00*%
%TF.ProjectId,computer,636f6d70-7574-4657-922e-6b696361645f,rev?*%
%TF.SameCoordinates,Original*%
%TF.FileFunction,Other,User*%
%FSLAX46Y46*%
G04 Gerber Fmt 4.6, Leading zero omitted, Abs format (unit mm)*
G04 Created by KiCad (PCBNEW 9.0.0) date 2025-04-16 19:40:10*
%MOMM*%
%LPD*%
G01*
G04 APERTURE LIST*
%ADD10C,0.050000*%
G04 APERTURE END LIST*
D10*
%TO.C,BT1*%
X133140427Y-69800454D02*
G75*
G02*
X133140000Y-84200000I-7640430J-7199546D01*
G01*
X117878659Y-86415144D02*
G75*
G02*
X116860000Y-82960000I771341J2105144D01*
G01*
X116849925Y-82945368D02*
G75*
G02*
X116860000Y-71040000I8650076J5945368D01*
G01*
X116845396Y-71043035D02*
G75*
G02*
X117880000Y-67570000I1804604J1353035D01*
G01*
X133140000Y-85740000D02*
X133140000Y-84200000D01*
X133140000Y-69800000D02*
X133140000Y-68260000D01*
X133140000Y-68260000D02*
X131000000Y-66120000D01*
X131000000Y-87880000D02*
X133140000Y-85740000D01*
X131000000Y-66120000D02*
X128290000Y-66120000D01*
X128290000Y-88870000D02*
X128290000Y-87880000D01*
X128290000Y-87880000D02*
X131000000Y-87880000D01*
X128290000Y-66120000D02*
X128290000Y-65130000D01*
X128290000Y-65130000D02*
X122710000Y-65130000D01*
X122710000Y-88870000D02*
X128290000Y-88870000D01*
X122710000Y-87880000D02*
X122710000Y-88870000D01*
X122710000Y-66120000D02*
X121860000Y-66120000D01*
X122710000Y-65130000D02*
X122710000Y-66120000D01*
X121860000Y-87880000D02*
X122710000Y-87880000D01*
X121860000Y-66120000D02*
X117880000Y-67560000D01*
X117870000Y-86430000D02*
X121860000Y-87880000D01*
%TO.C,Q3*%
X149450000Y-82450000D02*
X154510000Y-82460000D01*
X149450000Y-82460000D02*
X149450000Y-77000000D01*
X154510000Y-77000000D02*
X149450000Y-77000000D01*
X154510000Y-77000000D02*
X154510000Y-82460000D01*
%TO.C,D3*%
X118520000Y-94790000D02*
X118520000Y-101210000D01*
X118520000Y-101210000D02*
X124950000Y-101210000D01*
X124950000Y-94790000D02*
X118520000Y-94790000D01*
X124950000Y-101210000D02*
X124950000Y-94790000D01*
%TO.C,SW1*%
X127385000Y-101250000D02*
X127635000Y-101250000D01*
X127385000Y-101500000D02*
X127385000Y-101250000D01*
X127385000Y-108500000D02*
X127385000Y-101500000D01*
X127385000Y-108500000D02*
X127385000Y-108750000D01*
X127385000Y-108750000D02*
X127635000Y-108750000D01*
X127635000Y-101250000D02*
X136635000Y-101250000D01*
X136635000Y-101250000D02*
X136885000Y-101250000D01*
X136635000Y-108750000D02*
X127635000Y-108750000D01*
X136635000Y-108750000D02*
X136885000Y-108750000D01*
X136885000Y-101250000D02*
X136885000Y-101500000D01*
X136885000Y-101500000D02*
X136885000Y-108500000D01*
X136885000Y-108750000D02*
X136885000Y-108500000D01*
%TO.C,Q1*%
X145450000Y-73990000D02*
X150510000Y-74000000D01*
X145450000Y-74000000D02*
X145450000Y-68540000D01*
X150510000Y-68540000D02*
X145450000Y-68540000D01*
X150510000Y-68540000D02*
X150510000Y-74000000D01*
%TO.C,R1*%
X116950000Y-90000000D02*
X116950000Y-93000000D01*
X116950000Y-93000000D02*
X126670000Y-93000000D01*
X126670000Y-90000000D02*
X116950000Y-90000000D01*
X126670000Y-93000000D02*
X126670000Y-90000000D01*
%TO.C,SW2*%
X138750000Y-101250000D02*
X139000000Y-101250000D01*
X138750000Y-101500000D02*
X138750000Y-101250000D01*
X138750000Y-108500000D02*
X138750000Y-101500000D01*
X138750000Y-108500000D02*
X138750000Y-108750000D01*
X138750000Y-108750000D02*
X139000000Y-108750000D01*
X139000000Y-101250000D02*
X148000000Y-101250000D01*
X148000000Y-101250000D02*
X148250000Y-101250000D01*
X148000000Y-108750000D02*
X139000000Y-108750000D01*
X148000000Y-108750000D02*
X148250000Y-108750000D01*
X148250000Y-101250000D02*
X148250000Y-101500000D01*
X148250000Y-101500000D02*
X148250000Y-108500000D01*
X148250000Y-108750000D02*
X148250000Y-108500000D01*
%TO.C,SW3*%
X150000000Y-101250000D02*
X150250000Y-101250000D01*
X150000000Y-101500000D02*
X150000000Y-101250000D01*
X150000000Y-108500000D02*
X150000000Y-101500000D01*
X150000000Y-108500000D02*
X150000000Y-108750000D01*
X150000000Y-108750000D02*
X150250000Y-108750000D01*
X150250000Y-101250000D02*
X159250000Y-101250000D01*
X159250000Y-101250000D02*
X159500000Y-101250000D01*
X159250000Y-108750000D02*
X150250000Y-108750000D01*
X159250000Y-108750000D02*
X159500000Y-108750000D01*
X159500000Y-101250000D02*
X159500000Y-101500000D01*
X159500000Y-101500000D02*
X159500000Y-108500000D01*
X159500000Y-108750000D02*
X159500000Y-108500000D01*
%TO.C,D2*%
X142790000Y-88790000D02*
X142790000Y-95210000D01*
X142790000Y-95210000D02*
X149220000Y-95210000D01*
X149220000Y-88790000D02*
X142790000Y-88790000D01*
X149220000Y-95210000D02*
X149220000Y-88790000D01*
%TO.C,Q2*%
X152950000Y-74030000D02*
X158010000Y-74040000D01*
X152950000Y-74040000D02*
X152950000Y-68580000D01*
X158010000Y-68580000D02*
X152950000Y-68580000D01*
X158010000Y-68580000D02*
X158010000Y-74040000D01*
%TO.C,IO Pins*%
X113200000Y-89580000D02*
X113200000Y-100780000D01*
X113200000Y-100780000D02*
X116800000Y-100780000D01*
X116800000Y-89580000D02*
X113200000Y-89580000D01*
X116800000Y-100780000D02*
X116800000Y-89580000D01*
%TO.C,D1*%
X152290000Y-88790000D02*
X152290000Y-95210000D01*
X152290000Y-95210000D02*
X158720000Y-95210000D01*
X158720000Y-88790000D02*
X152290000Y-88790000D01*
X158720000Y-95210000D02*
X158720000Y-88790000D01*
%TD*%
M02*
