%TF.GenerationSoftware,KiCad,Pcbnew,9.0.0*%
%TF.CreationDate,2025-04-12T10:04:44+08:00*%
%TF.ProjectId,computer,636f6d70-7574-4657-922e-6b696361645f,rev?*%
%TF.SameCoordinates,Original*%
%TF.FileFunction,Other,User*%
%FSLAX46Y46*%
G04 Gerber Fmt 4.6, Leading zero omitted, Abs format (unit mm)*
G04 Created by KiCad (PCBNEW 9.0.0) date 2025-04-12 10:04:44*
%MOMM*%
%LPD*%
G01*
G04 APERTURE LIST*
%ADD10C,0.050000*%
G04 APERTURE END LIST*
D10*
%TO.C,Q3*%
X149770000Y-82460000D02*
X149770000Y-77000000D01*
X149770000Y-82460000D02*
X154510000Y-82460000D01*
X154510000Y-77000000D02*
X149770000Y-77000000D01*
X154510000Y-77000000D02*
X154510000Y-82460000D01*
%TO.C,Power*%
X116020000Y-94790000D02*
X116020000Y-101210000D01*
X116020000Y-101210000D02*
X122450000Y-101210000D01*
X122450000Y-94790000D02*
X116020000Y-94790000D01*
X122450000Y-101210000D02*
X122450000Y-94790000D01*
%TO.C,Battery*%
X119050000Y-92600000D02*
X119050000Y-70500000D01*
X126450000Y-70500000D02*
X119050000Y-70500000D01*
X126450000Y-70500000D02*
X126450000Y-65600000D01*
X126450000Y-92600000D02*
X119050000Y-92600000D01*
X126450000Y-97500000D02*
X126450000Y-92600000D01*
X126450000Y-97500000D02*
X132550000Y-97500000D01*
X132550000Y-65600000D02*
X126450000Y-65600000D01*
X132550000Y-70500000D02*
X132550000Y-65600000D01*
X132550000Y-70500000D02*
X133950000Y-70500000D01*
X132550000Y-92600000D02*
X133950000Y-92600000D01*
X132550000Y-97500000D02*
X132550000Y-92600000D01*
X133950000Y-92600000D02*
X140500000Y-85550000D01*
X140500000Y-77550000D02*
X133950000Y-70500000D01*
X140500000Y-85550000D02*
X140500000Y-77550000D01*
%TO.C,AND Input A*%
X127385000Y-101250000D02*
X127635000Y-101250000D01*
X127385000Y-101500000D02*
X127385000Y-101250000D01*
X127385000Y-108500000D02*
X127385000Y-101500000D01*
X127385000Y-108500000D02*
X127385000Y-108750000D01*
X127385000Y-108750000D02*
X127635000Y-108750000D01*
X127635000Y-101250000D02*
X136635000Y-101250000D01*
X136635000Y-101250000D02*
X136885000Y-101250000D01*
X136635000Y-108750000D02*
X127635000Y-108750000D01*
X136635000Y-108750000D02*
X136885000Y-108750000D01*
X136885000Y-101250000D02*
X136885000Y-101500000D01*
X136885000Y-101500000D02*
X136885000Y-108500000D01*
X136885000Y-108750000D02*
X136885000Y-108500000D01*
%TO.C,Q1*%
X145770000Y-74000000D02*
X145770000Y-68540000D01*
X145770000Y-74000000D02*
X150510000Y-74000000D01*
X150510000Y-68540000D02*
X145770000Y-68540000D01*
X150510000Y-68540000D02*
X150510000Y-74000000D01*
%TO.C,AND Input B*%
X138750000Y-101250000D02*
X139000000Y-101250000D01*
X138750000Y-101500000D02*
X138750000Y-101250000D01*
X138750000Y-108500000D02*
X138750000Y-101500000D01*
X138750000Y-108500000D02*
X138750000Y-108750000D01*
X138750000Y-108750000D02*
X139000000Y-108750000D01*
X139000000Y-101250000D02*
X148000000Y-101250000D01*
X148000000Y-101250000D02*
X148250000Y-101250000D01*
X148000000Y-108750000D02*
X139000000Y-108750000D01*
X148000000Y-108750000D02*
X148250000Y-108750000D01*
X148250000Y-101250000D02*
X148250000Y-101500000D01*
X148250000Y-101500000D02*
X148250000Y-108500000D01*
X148250000Y-108750000D02*
X148250000Y-108500000D01*
%TO.C,NOT Input*%
X150000000Y-101250000D02*
X150250000Y-101250000D01*
X150000000Y-101500000D02*
X150000000Y-101250000D01*
X150000000Y-108500000D02*
X150000000Y-101500000D01*
X150000000Y-108500000D02*
X150000000Y-108750000D01*
X150000000Y-108750000D02*
X150250000Y-108750000D01*
X150250000Y-101250000D02*
X159250000Y-101250000D01*
X159250000Y-101250000D02*
X159500000Y-101250000D01*
X159250000Y-108750000D02*
X150250000Y-108750000D01*
X159250000Y-108750000D02*
X159500000Y-108750000D01*
X159500000Y-101250000D02*
X159500000Y-101500000D01*
X159500000Y-101500000D02*
X159500000Y-108500000D01*
X159500000Y-108750000D02*
X159500000Y-108500000D01*
%TO.C,AND Output*%
X142790000Y-88790000D02*
X142790000Y-95210000D01*
X142790000Y-95210000D02*
X149220000Y-95210000D01*
X149220000Y-88790000D02*
X142790000Y-88790000D01*
X149220000Y-95210000D02*
X149220000Y-88790000D01*
%TO.C,Q2*%
X153270000Y-74040000D02*
X153270000Y-68580000D01*
X153270000Y-74040000D02*
X158010000Y-74040000D01*
X158010000Y-68580000D02*
X153270000Y-68580000D01*
X158010000Y-68580000D02*
X158010000Y-74040000D01*
%TO.C,NOT Output*%
X152290000Y-88790000D02*
X152290000Y-95210000D01*
X152290000Y-95210000D02*
X158720000Y-95210000D01*
X158720000Y-88790000D02*
X152290000Y-88790000D01*
X158720000Y-95210000D02*
X158720000Y-88790000D01*
%TD*%
M02*
