M48
; DRILL file {KiCad 9.0.0} date 2025-04-16T19:40:24+0800
; FORMAT={-:-/ absolute / metric / decimal}
; #@! TF.CreationDate,2025-04-16T19:40:24+08:00
; #@! TF.GenerationSoftware,Kicad,Pcbnew,9.0.0
; #@! TF.FileFunction,Plated,1,2,PTH
FMAT,2
METRIC
; #@! TA.AperFunction,Plated,PTH,ComponentDrill
T1C0.750
; #@! TA.AperFunction,Plated,PTH,ComponentDrill
T2C0.800
; #@! TA.AperFunction,Plated,PTH,ComponentDrill
T3C0.900
; #@! TA.AperFunction,Plated,PTH,ComponentDrill
T4C1.000
; #@! TA.AperFunction,Plated,PTH,ComponentDrill
T5C1.100
%
G90
G05
T1
X147.23Y-71.27
X148.5Y-70.0
X148.5Y-72.54
X151.23Y-79.73
X152.5Y-78.46
X152.5Y-81.0
X154.73Y-71.31
X156.0Y-70.04
X156.0Y-72.58
T2
X118.0Y-91.5
X125.62Y-91.5
T3
X120.46Y-98.0
X123.0Y-98.0
X144.73Y-92.0
X147.27Y-92.0
X154.23Y-92.0
X156.77Y-92.0
T4
X115.0Y-91.38
X115.0Y-93.92
X115.0Y-96.46
X115.0Y-99.0
T5
X128.885Y-102.75
X128.885Y-107.25
X135.385Y-102.75
X135.385Y-107.25
X140.25Y-102.75
X140.25Y-107.25
X146.75Y-102.75
X146.75Y-107.25
X151.5Y-102.75
X151.5Y-107.25
X158.0Y-102.75
X158.0Y-107.25
M30
